<svg id="Calque_1" data-name="Calque 1" xmlns="http://www.w3.org/2000/svg" viewBox="0 0 12.241 12.241"><defs><style>.cls-1{fill:#131226;}</style></defs><path class="cls-1" d="M6.1,8.582a.714.714,0,1,0,.7.714A.71.71,0,0,0,6.1,8.582Z"/><path class="cls-1" d="M3.525,4.351c-.2.806,1.028,1.148,1.224.343.312-1.28,3.2-.9,2.944.641-.1.575-1.114.526-1.532.734a1.316,1.316,0,0,0-.623,1.659.636.636,0,0,0,1.226-.341c-.089-.326.31-.27.643-.346A2.1,2.1,0,0,0,8.515,6.45a2.28,2.28,0,0,0-.2-2.946C7.179,2.067,3.978,2.484,3.525,4.351Z"/><path class="cls-1" d="M11.862,3.429C10.5-.31,6.122-.379,2.9.389c-.707.168-.419,1.254.278,1.117C.77,3-.839,5.744.465,8.634a6.255,6.255,0,0,0,9.152,2.51A7,7,0,0,0,11.862,3.429Zm-2.3,5.8c-1.6,2.009-4.219,1.919-6.25.645a3.988,3.988,0,0,1-1.136-5.5A5.368,5.368,0,0,1,7.359,1.8a.447.447,0,0,0,.418-.181,3.944,3.944,0,0,1,2.6,2A5.411,5.411,0,0,1,9.56,9.227Z"/></svg>