<svg id="Calque_1" data-name="Calque 1" xmlns="http://www.w3.org/2000/svg" viewBox="0 0 16 16"><defs><style>.cls-1{fill:#131226;}</style></defs><path class="cls-1" d="M8.417,10.084a.714.714,0,1,0,.7.713A.71.71,0,0,0,8.417,10.084Z"/><path class="cls-1" d="M9.286,6.891c-.27-1.253-1.812-.979-1.543.274a3.67,3.67,0,0,1,.063,1.547c-.343,1.205,1.235,1.437,1.534.215A6.764,6.764,0,0,0,9.37,7.6,3.209,3.209,0,0,0,9.286,6.891Z"/><path class="cls-1" d="M13.941,12.874q-1.092-2.6-2.183-5.206A48.831,48.831,0,0,0,9.393,2.5a.644.644,0,0,0-.465-.35.49.49,0,0,0-.828.078q-3.163,4.713-6,9.707a.8.8,0,0,0,.574,1.175l10.69.935C13.907,14.1,14.145,13.362,13.941,12.874ZM3.864,11.657q2.266-3.932,4.75-7.68C9.316,5.33,9.9,6.761,10.5,8.182q.882,2.1,1.765,4.209Z"/></svg>