<svg id="Calque_1" data-name="Calque 1" xmlns="http://www.w3.org/2000/svg" viewBox="0 0 16 16"><defs><style>.cls-1{fill:#131226;}</style></defs><path class="cls-1" d="M8.561,11.133a.705.705,0,1,1-.7-.714A.709.709,0,0,1,8.561,11.133Z"/><path class="cls-1" d="M13.621,5.266c-1.36-3.739-5.74-3.808-8.966-3.04-.707.168-.419,1.254.278,1.117C2.53,4.834.92,7.581,2.225,10.471a6.253,6.253,0,0,0,9.151,2.51A7,7,0,0,0,13.621,5.266Zm-2.3,5.8c-1.6,2.009-4.219,1.919-6.249.646a3.988,3.988,0,0,1-1.137-5.5A5.369,5.369,0,0,1,9.118,3.633a.447.447,0,0,0,.418-.181,3.948,3.948,0,0,1,2.6,2A5.413,5.413,0,0,1,11.319,11.064Z"/><path class="cls-1" d="M8.872,7.684a6.84,6.84,0,0,1-.031,1.329c-.3,1.223-1.877.99-1.534-.215a8.327,8.327,0,0,0-.166-3.032C6.872,4.514,8.414,4.24,8.684,5.492A13.882,13.882,0,0,1,8.872,7.684Z"/></svg>