<?xml version="1.0" encoding="utf-8"?>
<!-- Generator: $$$/GeneralStr/196=Adobe Illustrator 27.6.0, SVG Export Plug-In . SVG Version: 6.00 Build 0)  -->
<svg version="1.1" id="Calque_1" xmlns="http://www.w3.org/2000/svg" xmlns:xlink="http://www.w3.org/1999/xlink" x="0px" y="0px"
	 viewBox="0 0 953.5 221.1" style="enable-background:new 0 0 953.5 221.1;" xml:space="preserve">
<style type="text/css">
	.st0{fill:#FFFFFF;}
	.st1{fill:#131226;}
	.st2{fill:#40B9BC;}
	.st3{fill:#BE1D43;}
	.st4{fill:#EF7B1A;}
	.st5{fill:#FCC009;}
</style>
<g id="Calque_6">
	<path class="st0" d="M439.4,50.6c-10.1-9.3-25.2-13.9-45.1-13.9h-45.5V155h40.6c11.7,0,21.7-1.7,29.9-5.2
		c8.2-3.4,14.9-8.2,20.1-14.2s9-12.9,11.5-20.7s3.7-16,3.7-24.6C454.6,73.1,449.5,59.9,439.4,50.6L439.4,50.6z M422.9,105.7
		c-1.3,4.7-3.3,8.9-6.1,12.5c-2.7,3.6-6.2,6.4-10.5,8.5c-4.3,2-9.4,3-15.4,3h-12.8V62h16.3c10.8,0,18.6,2.5,23.4,7.5
		s7.1,12,7.1,21.1C424.8,96,424.2,101,422.9,105.7L422.9,105.7z"/>
	<path class="st0" d="M550,130.7c-0.1-3.4-0.2-6.2-0.2-8.5v-19.9c0-8-1.1-14.5-3.3-19.6c-2.2-5.1-5.3-9.1-9.4-12
		c-4.1-2.9-9-5-14.5-6.2c-5.6-1.2-11.7-1.8-18.4-1.8c-5.5,0-10.7,0.4-15.5,1.1c-4.9,0.7-9.3,1.6-13.2,2.7v22h1.6
		c2.6-1.2,6.1-2.2,10.3-3c4.2-0.8,8.7-1.2,13.4-1.2s8.6,0.4,11.7,1.2c3.1,0.8,5.4,2.4,7,4.8c1.5,2.4,2.3,5.9,2.3,10.3v0.8
		c-1.5-0.3-3-0.5-4.6-0.8c-3.1-0.4-6.5-0.7-10.2-0.7c-7.6,0-14.3,1-20.2,2.9c-5.9,1.9-10.5,5-13.9,9.1c-3.3,4.2-5,9.6-5,16.3
		c0,10.5,3.7,17.9,11,22.3c7.3,4.3,18.2,6.5,32.7,6.5c4.7,0,9.4-0.3,14-0.9c4.6-0.6,9-1.4,13.3-2.5c4.3-1,8.3-2.3,12.2-3.7l0.7-1.3
		c-0.5-2-0.9-4.6-1.1-7.9C550.2,137.4,550.1,134.1,550,130.7L550,130.7z M510.4,138.1c-5.2,0-9.1-0.8-11.9-2.3s-4.2-4.2-4.2-8
		s1.4-6.6,4.2-8.2c2.8-1.6,7.1-2.5,12.9-2.5c2.5,0,5.1,0.2,7.9,0.7c0.9,0.1,1.7,0.3,2.5,0.4c0,3.3,0,6,0.1,8.2
		c0.1,2.2,0.2,4.2,0.4,5.7c0.2,1.4,0.5,2.8,0.9,4.1c-0.9,0.3-1.8,0.6-2.8,0.8C517.1,137.7,513.8,138.1,510.4,138.1L510.4,138.1z"/>
	<path class="st0" d="M642.8,65c-6-1.5-12.8-2.3-20.2-2.3c-7.8,0-15,1-21.7,2.9c-6.7,1.9-12.5,4.8-17.5,8.6
		c-5,3.8-8.8,8.7-11.6,14.6c-2.7,5.9-4.1,12.9-4.1,20.9c0,10,2,18.3,5.9,24.9c3.9,6.6,9.5,11.6,16.8,14.9c7.2,3.3,15.7,4.9,25.5,4.9
		c2.1,0,4.3-0.1,6.6-0.3c1.7-0.2,3.6-0.4,5.6-0.7c-0.2,4.4-1.3,7.9-3.4,10.4c-2.3,2.8-5.5,4.9-9.6,6.1c-4.1,1.2-8.9,1.8-14.4,1.8
		c-3.4,0-7.1-0.4-11.2-1.1c-4-0.7-7.5-1.7-10.3-3h-2.3v22.8c3.1,1.4,7.1,2.5,12.1,3.1c5,0.7,9.7,1,14,1c10.7,0,20.1-1.6,28.3-4.9
		c8.1-3.3,14.4-8.3,19-15.1c4.5-6.8,6.8-15.5,6.8-26.1V97.8c0-2.3,0-5.2,0.1-8.5c0.1-3.4,0.2-6.7,0.3-10c0.2-3.3,0.5-5.9,0.9-7.9
		l-0.7-1.3C653.8,68.2,648.8,66.5,642.8,65L642.8,65z M620.3,133.3c-8,0-13.9-2.1-17.6-6.2c-3.7-4.2-5.6-10.1-5.6-17.9
		c0-4.7,0.8-8.9,2.4-12.6c1.6-3.7,4.1-6.6,7.6-8.7c3.4-2.1,7.8-3.1,13.2-3.1c3,0,5.7,0.2,8.1,0.6c0.2,0,0.4,0.1,0.6,0.1
		c-0.1,0.7-0.2,1.5-0.3,2.3c-0.3,3.3-0.5,6.9-0.5,10.8v33.9c-1.2,0.3-2.2,0.5-3.2,0.6C623.4,133.2,621.8,133.3,620.3,133.3
		L620.3,133.3z"/>
	<path class="st0" d="M751.3,65c-6-1.5-12.8-2.3-20.2-2.3c-7.8,0-15,1-21.7,2.9c-6.7,1.9-12.5,4.8-17.5,8.6
		c-5,3.8-8.8,8.7-11.6,14.6c-2.7,5.9-4.1,12.9-4.1,20.9c0,10,2,18.3,5.9,24.9c3.9,6.6,9.5,11.6,16.8,14.9c7.2,3.3,15.7,4.9,25.4,4.9
		c2.1,0,4.3-0.1,6.7-0.3c1.7-0.2,3.6-0.4,5.6-0.7c-0.2,4.4-1.3,7.9-3.4,10.4c-2.3,2.8-5.5,4.9-9.6,6.1c-4.1,1.2-8.9,1.8-14.4,1.8
		c-3.4,0-7.1-0.4-11.2-1.1c-4.1-0.7-7.5-1.7-10.3-3h-2.3v22.8c3.1,1.4,7.1,2.5,12.1,3.1c5,0.7,9.7,1,14,1c10.7,0,20.1-1.6,28.2-4.9
		c8.1-3.3,14.4-8.3,19-15.1c4.5-6.8,6.8-15.5,6.8-26.1V97.8c0-2.3,0-5.2,0.1-8.5c0.1-3.4,0.2-6.7,0.3-10c0.2-3.3,0.5-5.9,0.9-7.9
		l-0.7-1.3C762.3,68.2,757.4,66.5,751.3,65L751.3,65z M728.8,133.3c-8,0-13.9-2.1-17.6-6.2c-3.7-4.2-5.6-10.1-5.6-17.9
		c0-4.7,0.8-8.9,2.4-12.6c1.6-3.7,4.1-6.6,7.6-8.7c3.4-2.1,7.9-3.1,13.2-3.1c3,0,5.7,0.2,8.1,0.6c0.2,0,0.4,0.1,0.6,0.1
		c-0.1,0.7-0.2,1.5-0.3,2.3c-0.3,3.3-0.5,6.9-0.5,10.8v33.9c-1.2,0.3-2.3,0.5-3.2,0.6C731.9,133.2,730.4,133.3,728.8,133.3
		L728.8,133.3z"/>
	<path class="st0" d="M855.8,69.1c-6.5-4.3-14.8-6.4-25-6.4c-9.4,0-17.6,1.9-24.5,5.6s-12.2,9.1-15.9,16.2
		c-3.7,7.1-5.6,15.5-5.6,25.4c0,8.4,1.3,15.7,3.9,21.7c2.6,6,6.2,10.9,11,14.5c4.8,3.7,10.5,6.4,17.2,8.1c6.7,1.8,14.1,2.6,22.1,2.6
		c6.2,0,11.6-0.4,16.2-1.1c4.5-0.8,8.5-1.8,11.7-3.1V130h-1.6c-2.3,1.3-5.6,2.5-9.8,3.4c-4.2,1-8.8,1.5-13.9,1.5
		c-5.6,0-10.5-0.7-14.6-2.1c-4.2-1.4-7.4-3.7-9.8-6.9c-1.6-2.1-2.6-4.9-3.1-8.1h59l0.2-5.9c0.5-9.4-0.6-17.8-3.5-25.3
		C866.9,79.2,862.2,73.4,855.8,69.1L855.8,69.1z M845.6,100.8H814c0.3-3.2,0.9-5.9,1.8-8.1c1.4-3.6,3.3-6.1,5.7-7.6
		c2.5-1.5,5.4-2.3,8.8-2.3c5.3,0,9.1,1.5,11.6,4.5s3.7,7.3,3.7,12.7V100.8L845.6,100.8z"/>
	<path class="st0" d="M938.2,63.3c-2.8-0.1-5-0.2-6.7-0.2c-5.8,0-11.1,0.3-16,0.9c-4.9,0.6-9.3,1.3-13.3,2.2c-4,0.9-7.6,1.9-10.8,3
		l-0.5,1.3c0.4,2,0.8,4.6,1.1,8c0.3,3.3,0.4,6.7,0.5,10.2c0.1,3.4,0.1,6.3,0.1,8.5V155h28.9V99.1c0-5.2-0.3-9.2-1-12.2
		c0.7-0.2,1.5-0.3,2.3-0.5c3.2-0.6,6.6-0.9,10.2-0.9c2.1,0,4.2,0.1,6.3,0.4s4.1,0.6,6,1.1h1.8V64.3
		C943.9,63.8,940.9,63.4,938.2,63.3L938.2,63.3z"/>
</g>
<g id="Calque_5">
	<circle class="st0" cx="112" cy="110.6" r="110.5"/>
	<circle class="st1" cx="112" cy="110.6" r="98.8"/>
	<path class="st2" d="M19,91.9c-1.2,6-1.8,12.2-1.8,18.6c0,1.7,0,3.3,0.1,5c5.8,0.1,10.9-1.1,14.3-4.1
		c17.3-15.1,50.1-10.8,50.1-10.8S71.7,83.3,19,91.9z"/>
	<path class="st3" d="M28.3,66c49.1-15.1,61.6,10.1,64.2,18.3c0,0,3-46.1-34.8-51.5C45.5,41.4,35.3,52.7,28.3,66L28.3,66z"/>
	<path class="st4" d="M111.6,71.1c0,0,5.1-32.3,14.2-54.4c-4.5-0.7-9.1-1-13.8-1c-5,0-9.8,0.4-14.6,1.1
		C106.5,38.9,111.6,71.1,111.6,71.1L111.6,71.1z"/>
	<path class="st3" d="M166.2,32.7c-38.5,5-35.4,51.6-35.4,51.6c2.6-8.2,15.3-33.7,65.2-18C188.8,52.9,178.6,41.3,166.2,32.7z"/>
	<path class="st2" d="M205,92.1c-53.4-9-63.5,8.6-63.5,8.6s32.8-4.3,50.1,10.8c3.6,3.2,9,4.3,15.1,4.1c0.1-1.7,0.1-3.3,0.1-5
		C206.8,104.2,206.2,98.1,205,92.1z"/>
	<path class="st5" d="M112,205.4c2.6,0,5.2-0.1,7.8-0.3c-6.3-10.9-6.6-27.4-6.6-37.6c0,0,6.3,27.9,13.9,36.7
		c25.5-4.1,47.7-18.4,62.1-38.6c-2.6-2.5-8.4-6-16.4,1.2c0,0,3.5-13.8,19.1-7.3c-2.9-7.7-10.5-13-19.4-12.3
		c-9.4,0.7-17,8.4-17.6,17.8c-0.3,4.9,1.2,9.4,3.9,12.9c-4.9,0.9-9.2,3.7-12,7.7c-0.7-4.5-4.7-8-9.4-8c-2.1,0-4.1,0.7-5.7,1.9
		c-2.1-1.7-4.4-4.4-6.7-7.9c-6-9-8.6-22.8-9.6-30.7c-0.3-2-1.9-3.5-4-3.5s-3.7,1.5-4,3.5c-1,7.9-4.3,21.7-10.3,30.7
		c-7.7,11.5-13.1,12.7-16.3,0h-0.1C78.3,162,69.5,155,59.1,155c-9.7,0-18,6.1-21.2,14.7c3.3,4.1,7,8,10.9,11.5
		c11.8-10.2,21.9,3.7,21.9,3.7c-8.5-3.9-14.4-2.9-18.2-0.5c11.4,9.2,24.9,15.8,39.8,19c6.2-7.1,12.2-20.3,12.2-20.3
		c0,4.5-2.6,14.9-6.4,21.4C102.6,205,107.2,205.4,112,205.4L112,205.4z"/>
	<path class="st0" d="M114.7,81.8c-0.8-0.9-1.9-1.4-3-1.4s-2.2,0.5-3,1.4c-21.5,23.8-26.8,55.7-20.6,60c6.5,4.4,14.5-14.9,23.2-15.1
		h0.8c8.7,0.2,16.8,19.6,23.2,15.1C141.4,137.5,136.1,105.6,114.7,81.8L114.7,81.8z M111.6,113.4c-3.5,0-6.4-2.9-6.4-6.4
		s2.9-6.4,6.4-6.4s6.4,2.9,6.4,6.4S115.1,113.4,111.6,113.4z"/>
</g>
</svg>
