<svg id="Calque_1" data-name="Calque 1" xmlns="http://www.w3.org/2000/svg" viewBox="0 0 16 16"><defs><style>.cls-1{fill:#131226;}</style></defs><path class="cls-1" d="M13.892,2.065c-1.648-.019-3.226.262-4.821-.3C8.248,1.48,7.909,2.79,8.727,3.077a9.147,9.147,0,0,0,3.354.377c-.045.049-.089.095-.134.151a21.771,21.771,0,0,1-3.809,3.11C6.432,7.848,7.112,9.3,8.818,8.168c.834-.565,2.044-1.545,2.8-2.2.361-.321.809-.67,1.192-1.025-.1.876-.149,1.757-.178,2.649-.027.873,1.326.871,1.353,0a20.058,20.058,0,0,1,.562-4.683A.682.682,0,0,0,13.892,2.065Z"/><path class="cls-1" d="M12.13,8.3h0a1.316,1.316,0,0,0-1-.151.25.25,0,0,0-.163.23,16.125,16.125,0,0,1-.292,2.491,4.539,4.539,0,0,0-.048.64,2.291,2.291,0,0,1-.135.868c-.19.415-.448.45-1.119.5a24.242,24.242,0,0,1-4.056-.089l-.3-.021c-.738-.047-1.2-.105-1.289-.662-.118-.7-.221-1.4-.32-2.075L3.313,9.4A1.861,1.861,0,0,1,3.3,8.9a7.544,7.544,0,0,1,.175-1.677,4.015,4.015,0,0,0,.074-.507,1.228,1.228,0,0,1,.226-.744.886.886,0,0,1,.666-.212l.428-.007c.514-.014,1.036-.011,1.6-.006.143,0,.294.01.449.02a3.868,3.868,0,0,0,1.119-.032,1.012,1.012,0,0,0,.83-1.087C8.741,4,8.044,4.083,7.625,4.131a2.425,2.425,0,0,1-.294.024c-.416,0-.834,0-1.253,0-.563,0-1.145.01-1.714,0-.087,0-.176,0-.267,0a2.584,2.584,0,0,0-1.813.685A3.075,3.075,0,0,0,1.688,7c-.013.965.057,1.929.125,2.862l.02.269c.019.261.028.525.036.781a6.766,6.766,0,0,0,.421,2.539,1.027,1.027,0,0,0,.776.663,11.054,11.054,0,0,0,3.151.227l1.145-.047c.355-.012.821-.025,1.281-.009.151.005.3,0,.441,0a5.186,5.186,0,0,1,.623.017,5.038,5.038,0,0,0,.738.039,2.163,2.163,0,0,0,.606-.1c1.177-.386,1.167-1.984,1.159-3.151,0-.211,0-.409,0-.569.017-.358.048-.723.079-1.076.022-.26.044-.525.063-.79a.256.256,0,0,0-.044-.159A.726.726,0,0,0,12.13,8.3Z"/></svg>