<svg width="48" height="48" viewBox="0 0 48 48" fill="none" xmlns="http://www.w3.org/2000/svg">
<g clip-path="url(#clip0)">
<path d="M35.0894 13.2264C33.0498 12.2826 30.8626 11.5872 28.5759 11.1889C28.5342 11.1812 28.4926 11.2004 28.4712 11.2389C28.1899 11.7434 27.8783 12.4016 27.6601 12.919C25.2005 12.5476 22.7536 12.5476 20.3444 12.919C20.1262 12.3901 19.8033 11.7434 19.5208 11.2389C19.4993 11.2017 19.4577 11.1825 19.4161 11.1889C17.1305 11.5859 14.9434 12.2813 12.9026 13.2264C12.8849 13.2341 12.8698 13.2469 12.8597 13.2635C8.71119 19.5141 7.57473 25.6111 8.13224 31.6326C8.13476 31.662 8.15116 31.6902 8.17386 31.7081C10.9109 33.7353 13.5623 34.966 16.1644 35.7817C16.206 35.7945 16.2501 35.7791 16.2766 35.7446C16.8922 34.8968 17.4409 34.003 17.9113 33.063C17.9391 33.0079 17.9126 32.9426 17.8558 32.9208C16.9855 32.5879 16.1568 32.1819 15.3596 31.7209C15.2966 31.6838 15.2915 31.5928 15.3495 31.5493C15.5173 31.4225 15.6851 31.2906 15.8453 31.1574C15.8743 31.1331 15.9146 31.128 15.9487 31.1433C21.1857 33.5547 26.8554 33.5547 32.0306 31.1433C32.0647 31.1267 32.1051 31.1318 32.1353 31.1561C32.2955 31.2893 32.4633 31.4225 32.6323 31.5493C32.6903 31.5928 32.6865 31.6838 32.6235 31.7209C31.8263 32.1909 30.9976 32.5879 30.126 32.9196C30.0693 32.9413 30.044 33.0079 30.0718 33.063C30.5523 34.0016 31.101 34.8955 31.7052 35.7433C31.7304 35.7791 31.7758 35.7945 31.8175 35.7817C34.4322 34.966 37.0835 33.7353 39.8206 31.7081C39.8446 31.6902 39.8597 31.6633 39.8622 31.6338C40.5294 24.6724 38.7447 18.6254 35.131 13.2648C35.1221 13.2469 35.107 13.2341 35.0894 13.2264ZM18.6934 27.9661C17.1167 27.9661 15.8175 26.5063 15.8175 24.7134C15.8175 22.9206 17.0915 21.4607 18.6934 21.4607C20.3078 21.4607 21.5944 22.9334 21.5692 24.7134C21.5692 26.5063 20.2952 27.9661 18.6934 27.9661ZM29.3263 27.9661C27.7497 27.9661 26.4505 26.5063 26.4505 24.7134C26.4505 22.9206 27.7244 21.4607 29.3263 21.4607C30.9408 21.4607 32.2274 22.9334 32.2022 24.7134C32.2022 26.5063 30.9408 27.9661 29.3263 27.9661Z" fill="white"/>
</g>
<defs>
<clipPath id="clip0">
<rect width="32" height="25" fill="white" transform="translate(8 11)"/>
</clipPath>
</defs>
</svg>
