<svg width="48" height="48" viewBox="0 0 48 48" fill="none" xmlns="http://www.w3.org/2000/svg">
<g clip-path="url(#clip0)">
<path fill-rule="evenodd" clip-rule="evenodd" d="M24 8.99995C20.1978 8.99611 16.5185 10.3376 13.6215 12.7839C10.7244 15.2302 8.79893 18.6216 8.19016 22.3501C7.58138 26.0787 8.32907 29.9007 10.2992 33.1314C12.2694 36.362 15.3332 38.7901 18.9417 39.9804C19.7373 40.1268 20.0319 39.6292 20.0319 39.2096C20.0319 38.79 20.0319 37.8338 20.0319 36.5067C15.5826 37.4825 14.6397 34.3796 14.6397 34.3796C14.3432 33.4179 13.7133 32.5916 12.8619 32.0475C11.4181 31.0717 12.9797 31.0717 12.9797 31.0717C13.4859 31.1427 13.9691 31.3272 14.3928 31.6113C14.8165 31.8953 15.1697 32.2713 15.4254 32.711C15.6427 33.1025 15.9357 33.4475 16.2876 33.7262C16.6394 34.0049 17.0432 34.2118 17.4758 34.3351C17.9084 34.4584 18.3612 34.4956 18.8082 34.4447C19.2553 34.3937 19.6878 34.2555 20.081 34.038C20.1427 33.2353 20.491 32.4809 21.0632 31.9109C17.5077 31.5108 13.7753 30.1447 13.7753 24.056C13.7509 22.4781 14.3382 20.9514 15.4156 19.7919C14.9348 18.4201 14.9909 16.9189 15.5727 15.5864C15.5727 15.5864 16.9184 15.157 19.973 17.2159C22.596 16.5004 25.3647 16.5004 27.9877 17.2159C31.0424 15.157 32.3782 15.5864 32.3782 15.5864C32.9661 16.917 33.0258 18.4194 32.5451 19.7919C33.6225 20.9514 34.2098 22.4781 34.1854 24.056C34.1854 30.1642 30.4432 31.501 26.8778 31.8621C27.2601 32.2439 27.5554 32.7029 27.7435 33.2079C27.9316 33.713 28.0082 34.2523 27.9681 34.7894C27.9681 36.9165 27.9681 38.6339 27.9681 39.151C27.9681 39.6682 28.2529 40.0683 29.0682 39.9219C32.6653 38.7203 35.7158 36.2884 37.6756 33.0599C39.6354 29.8314 40.3771 26.0162 39.7683 22.2949C39.1595 18.5736 37.2399 15.1881 34.3518 12.7423C31.4637 10.2965 27.795 8.94946 24 8.94141V8.99995Z" fill="white"/>
</g>
<defs>
<clipPath id="clip0">
<rect width="32" height="31" fill="white" transform="translate(8 9)"/>
</clipPath>
</defs>
</svg>
