<?xml version="1.0" encoding="UTF-8"?><svg xmlns="http://www.w3.org/2000/svg" viewBox="0 0 674.646 221.102"><defs><style>.cls-1{fill:#ef7b1a;}.cls-2{fill:#fff;}.cls-3{fill:#fcc009;}.cls-4{fill:#be1d43;}.cls-5{fill:#131226;}.cls-6{fill:#40b9bc;}</style></defs><g id="Calque_6"><path class="cls-2" d="m340.099,78.68c-6.642-6.068-16.5-9.104-29.574-9.104h-29.841v77.572h26.611c7.686,0,14.219-1.131,19.609-3.393,5.385-2.262,9.785-5.368,13.195-9.321,3.413-3.95,5.928-8.474,7.545-13.574,1.615-5.098,2.422-10.485,2.422-16.16,0-11.276-3.323-19.949-9.968-26.021Zm-10.826,36.146c-.861,3.089-2.192,5.818-3.986,8.19-1.798,2.369-4.094,4.22-6.896,5.548-2.802,1.331-6.178,1.995-10.128,1.995h-8.401v-44.389h10.663c7.112,0,12.23,1.635,15.355,4.901,3.123,3.269,4.687,7.883,4.687,13.844,0,3.522-.433,6.825-1.294,9.911Z"/><path class="cls-2" d="m412.66,131.203c-.073-2.225-.107-4.093-.107-5.601v-13.037c0-5.241-.72-9.534-2.155-12.874-1.438-3.339-3.5-5.961-6.195-7.866-2.695-1.902-5.871-3.249-9.535-4.04-3.663-.788-7.689-1.184-12.066-1.184-3.593,0-6.988.234-10.181.701-3.199.467-6.088,1.061-8.674,1.778v14.435h1.078c1.724-.788,3.97-1.454,6.732-1.992,2.766-.54,5.694-.807,8.783-.807s5.655.267,7.703.807c2.048.537,3.573,1.598,4.577,3.179,1.004,1.578,1.511,3.843,1.511,6.786v.504c-.978-.186-1.983-.355-3.019-.504-2.012-.284-4.24-.43-6.679-.43-4.957,0-9.374.63-13.254,1.885-3.877,1.258-6.912,3.252-9.104,5.981-2.189,2.729-3.286,6.285-3.286,10.665,0,6.896,2.408,11.763,7.219,14.598,4.811,2.839,11.959,4.257,21.44,4.257,3.086,0,6.142-.2,9.157-.594,3.016-.397,5.925-.934,8.727-1.618,2.802-.681,5.458-1.488,7.973-2.422l.431-.864c-.36-1.291-.61-3.016-.754-5.171-.143-2.155-.253-4.344-.323-6.572Zm-25.964,4.85c-3.379,0-5.978-.504-7.813-1.511-1.829-1.004-2.746-2.763-2.746-5.278s.917-4.31,2.746-5.388c1.834-1.078,4.653-1.615,8.46-1.615,1.651,0,3.373.143,5.171.43.582.093,1.112.191,1.618.292,0,2.143.017,3.937.05,5.366.036,1.471.126,2.729.27,3.77.129.937.326,1.825.572,2.676-.594.216-1.208.409-1.866.557-2.082.467-4.237.701-6.462.701Z"/><path class="cls-2" d="m473.53,88.108c-3.95-1.004-8.367-1.508-13.251-1.508-5.103,0-9.841.63-14.219,1.885-4.383,1.258-8.209,3.143-11.478,5.658-3.269,2.515-5.801,5.708-7.596,9.588-1.795,3.877-2.69,8.44-2.69,13.684,0,6.535,1.294,11.976,3.877,16.32,2.588,4.347,6.251,7.596,10.989,9.751,4.743,2.155,10.308,3.233,16.7,3.233,1.362,0,2.819-.07,4.361-.217,1.127-.104,2.358-.267,3.693-.486-.13,2.866-.87,5.151-2.235,6.844-1.508,1.865-3.612,3.193-6.302,3.987-2.695.788-5.835,1.184-9.43,1.184-2.223,0-4.67-.234-7.326-.701-2.656-.467-4.918-1.131-6.786-1.995h-1.508v14.975c2.009.934,4.648,1.618,7.917,2.048,3.269.43,6.341.647,9.211.647,7.039,0,13.217-1.078,18.534-3.233,5.312-2.155,9.464-5.461,12.441-9.911,2.982-4.453,4.473-10.165,4.473-17.13v-33.074c0-1.511.017-3.379.056-5.604.034-2.225.107-4.417.214-6.572s.304-3.88.591-5.171l-.428-.864c-2.588-1.221-5.857-2.332-9.807-3.339Zm-14.759,44.819c-5.244,0-9.087-1.365-11.529-4.093-2.442-2.729-3.663-6.642-3.663-11.743,0-3.089.523-5.855,1.564-8.297,1.041-2.442,2.689-4.347,4.957-5.711,2.262-1.365,5.148-2.048,8.671-2.048,1.941,0,3.719.127,5.334.38.134.021.238.035.364.054-.082.461-.151.963-.206,1.507-.214,2.155-.321,4.524-.321,7.112v22.26c-.768.207-1.473.352-2.099.418-1.047.107-2.065.16-3.072.16Z"/><path class="cls-2" d="m544.747,88.108c-3.956-1.004-8.372-1.508-13.251-1.508-5.103,0-9.841.63-14.224,1.885-4.383,1.258-8.204,3.143-11.473,5.658s-5.801,5.708-7.596,9.588c-1.795,3.877-2.695,8.44-2.695,13.684,0,6.535,1.294,11.976,3.882,16.32,2.583,4.347,6.246,7.596,10.989,9.751,4.738,2.155,10.302,3.233,16.694,3.233,1.367,0,2.819-.07,4.366-.217,1.123-.104,2.356-.267,3.692-.486-.13,2.866-.876,5.151-2.24,6.845-1.508,1.865-3.607,3.193-6.302,3.987-2.689.788-5.835,1.184-9.425,1.184-2.228,0-4.67-.234-7.326-.701-2.662-.467-4.924-1.131-6.786-1.995h-1.508v14.975c2.009.934,4.648,1.618,7.917,2.048,3.269.43,6.336.647,9.211.647,7.039,0,13.217-1.078,18.529-3.233,5.317-2.155,9.464-5.461,12.446-9.911,2.977-4.453,4.468-10.165,4.468-17.13v-33.074c0-1.511.017-3.379.056-5.604.034-2.225.107-4.417.214-6.572.113-2.155.31-3.88.596-5.171l-.433-.864c-2.583-1.221-5.852-2.332-9.802-3.339Zm-14.764,44.819c-5.244,0-9.087-1.365-11.524-4.093-2.442-2.729-3.663-6.642-3.663-11.743,0-3.089.518-5.855,1.559-8.297,1.041-2.442,2.695-4.347,4.957-5.711,2.262-1.365,5.154-2.048,8.671-2.048,1.941,0,3.719.127,5.334.38.135.021.24.036.367.055-.082.461-.15.963-.204,1.507-.214,2.155-.321,4.524-.321,7.112v22.259c-.771.208-1.478.353-2.104.419-1.041.107-2.065.16-3.072.16Z"/><path class="cls-2" d="m613.263,90.8c-4.237-2.799-9.695-4.2-16.374-4.2-6.178,0-11.529,1.221-16.053,3.663-4.524,2.442-8.007,5.978-10.449,10.612-2.442,4.634-3.663,10.182-3.663,16.647,0,5.531.844,10.271,2.532,14.221,1.682,3.95,4.091,7.129,7.219,9.534,3.123,2.408,6.893,4.183,11.31,5.334,4.417,1.148,9.245,1.722,14.489,1.722,4.096,0,7.635-.253,10.612-.754,2.982-.501,5.553-1.184,7.703-2.045v-14.762h-1.075c-1.508.864-3.646,1.618-6.409,2.262-2.769.647-5.801.971-9.104.971-3.663,0-6.859-.447-9.588-1.348-2.735-.897-4.867-2.405-6.415-4.524-1.022-1.404-1.698-3.188-2.042-5.334h38.728l.107-3.877c.36-6.178-.411-11.709-2.312-16.593-1.907-4.884-4.974-8.727-9.217-11.529Zm-6.679,20.796h-20.706c.21-2.103.593-3.882,1.153-5.334.9-2.335,2.155-4.003,3.77-5.011,1.615-1.004,3.539-1.508,5.767-1.508,3.444,0,5.975.987,7.596,2.962,1.615,1.978,2.419,4.76,2.419,8.35v.54Z"/><path class="cls-2" d="m667.296,87.03c-1.834-.07-3.286-.107-4.366-.107-3.804,0-7.309.197-10.499.591-3.202.397-6.111.881-8.727,1.454-2.628.577-4.974,1.224-7.062,1.941l-.321.861c.287,1.294.518,3.036.698,5.224.18,2.192.287,4.42.326,6.682.034,2.262.051,4.113.051,5.548v37.924h18.962v-36.63c0-3.387-.226-6.052-.671-8.022.491-.117,1.003-.227,1.538-.328,2.082-.394,4.31-.594,6.679-.594,1.362,0,2.746.09,4.147.27s2.712.414,3.933.701h1.182v-14.869c-2.082-.36-4.04-.574-5.869-.647Z"/></g><g id="Calque_5"><circle class="cls-2" cx="112.005" cy="110.556" r="110.525"/><circle class="cls-5" cx="112.005" cy="110.556" r="98.833" transform="translate(-45.369 111.581) rotate(-45)"/><path class="cls-6" d="m19.003,91.949c-1.197,6.017-1.83,12.238-1.83,18.607,0,1.68.045,3.349.131,5.007,5.828.101,10.851-1.08,14.341-4.122,17.316-15.093,50.088-10.813,50.088-10.813,0,0-10.064-17.373-62.73-8.679Z"/><path class="cls-4" d="m28.273,66.007c49.053-15.087,61.609,10.14,64.234,18.282,0,0,3.003-46.052-34.778-51.5-12.251,8.566-22.383,19.952-29.456,33.219Z"/><path class="cls-1" d="m111.622,71.123s5.133-32.284,14.229-54.39c-4.52-.661-9.142-1.009-13.845-1.009-4.954,0-9.82.381-14.569,1.114,9.069,22.104,14.185,54.286,14.185,54.286Z"/><path class="cls-4" d="m166.158,32.703c-38.456,5.017-35.422,51.586-35.422,51.586,2.641-8.192,15.336-33.684,65.151-17.997-7.103-13.432-17.335-24.951-29.729-33.589Z"/><path class="cls-6" d="m205.033,92.078c-53.363-9.003-63.522,8.55-63.522,8.55,0,0,32.772-4.28,50.088,10.813,3.642,3.174,8.955,4.319,15.109,4.098.085-1.65.13-3.311.13-4.983,0-6.323-.625-12.5-1.805-18.478Z"/><path class="cls-3" d="m112.005,205.389c2.637,0,5.248-.113,7.83-.324-6.257-10.857-6.608-27.388-6.608-37.614,0,0,6.271,27.898,13.917,36.729,25.54-4.098,47.672-18.39,62.087-38.575-2.647-2.523-8.447-5.971-16.359,1.205,0,0,3.482-13.76,19.115-7.329-2.887-7.665-10.533-12.994-19.352-12.318-9.369.719-16.955,8.426-17.553,17.803-.31,4.868,1.224,9.357,3.945,12.884-4.917.931-9.159,3.747-11.963,7.669-.736-4.542-4.665-8.014-9.415-8.014-2.149,0-4.125.718-5.72,1.916-2.111-1.731-4.413-4.432-6.701-7.864-6.033-9.049-8.646-22.826-9.643-30.72-.253-1.998-1.95-3.49-3.964-3.49s-3.711,1.491-3.964,3.49c-.997,7.894-4.301,21.671-10.335,30.72-7.696,11.544-13.083,12.699-16.29,0l-.059.014c-2.697-9.552-11.457-16.56-21.873-16.56-9.718,0-17.975,6.109-21.227,14.685,3.308,4.141,6.955,7.999,10.901,11.531,11.847-10.237,21.868,3.669,21.868,3.669-8.521-3.91-14.353-2.85-18.186-.538,11.383,9.196,24.934,15.812,39.769,18.96,6.191-7.115,12.151-20.345,12.151-20.345,0,4.483-2.58,14.902-6.401,21.382,4.578.679,9.262,1.035,14.029,1.035Z"/><path class="cls-2" d="m114.662,81.8c-.814-.902-1.927-1.352-3.04-1.352-1.113,0-2.226.451-3.04,1.352-21.482,23.789-26.751,55.728-20.574,59.974,6.458,4.44,14.532-14.932,23.211-15.133h.808c8.678.202,16.752,19.574,23.211,15.133,6.177-4.247.908-36.186-20.575-59.974Zm-3.04,31.568c-3.518,0-6.37-2.852-6.37-6.37s2.852-6.37,6.37-6.37c3.518,0,6.37,2.852,6.37,6.37s-2.852,6.37-6.37,6.37Z"/></g></svg>