<svg xmlns="http://www.w3.org/2000/svg" id="Calque_5" viewBox="0 0 221.102 221.102"><defs><style>.cls-4{fill:#be1d43}.cls-5{fill:#131226}.cls-6{fill:#40b9bc}</style></defs><circle cx="110.551" cy="110.551" r="110.525" class="cls-5"/><circle cx="110.551" cy="110.551" r="94.833" class="cls-5" transform="rotate(-45 110.55 110.551)"/><path d="M17.548 91.944a95.288 95.288 0 0 0-1.699 23.614c5.828.101 10.851-1.08 14.341-4.122 17.316-15.093 50.088-10.813 50.088-10.813s-10.064-17.373-62.73-8.679z" class="cls-6"/><path d="M26.819 66.002c49.053-15.087 61.609 10.14 64.234 18.282 0 0 3.003-46.052-34.778-51.5a95.267 95.267 0 0 0-29.456 33.219z" class="cls-4"/><path fill="#ef7b1a" d="M110.167 71.118s5.133-32.284 14.229-54.39a95.629 95.629 0 0 0-28.414.105c9.069 22.104 14.185 54.286 14.185 54.286z"/><path d="M164.704 32.698c-38.456 5.017-35.422 51.586-35.422 51.586 2.641-8.192 15.336-33.684 65.151-17.997a95.28 95.28 0 0 0-29.729-33.589z" class="cls-4"/><path d="M203.579 92.074c-53.363-9.003-63.522 8.55-63.522 8.55s32.772-4.28 50.088 10.813c3.642 3.174 8.955 4.319 15.109 4.098a95.337 95.337 0 0 0-1.675-23.461z" class="cls-6"/><path fill="#fcc009" d="M110.551 205.384c2.637 0 5.248-.113 7.83-.324-6.257-10.857-6.608-27.388-6.608-37.614 0 0 6.271 27.898 13.917 36.729 25.54-4.098 47.672-18.39 62.087-38.575-2.647-2.523-8.447-5.971-16.359 1.205 0 0 3.482-13.76 19.115-7.329-2.887-7.665-10.533-12.994-19.352-12.318-9.369.719-16.955 8.426-17.553 17.803-.31 4.868 1.224 9.357 3.945 12.884-4.917.931-9.159 3.747-11.963 7.669-.736-4.542-4.665-8.014-9.415-8.014a9.489 9.489 0 0 0-5.72 1.916c-2.111-1.731-4.413-4.432-6.701-7.864-6.033-9.049-8.646-22.826-9.643-30.72-.253-1.998-1.95-3.49-3.964-3.49s-3.711 1.491-3.964 3.49c-.997 7.894-4.301 21.671-10.335 30.72-7.696 11.544-13.083 12.699-16.29 0l-.059.014c-2.697-9.552-11.457-16.56-21.873-16.56-9.718 0-17.975 6.109-21.227 14.685a95.327 95.327 0 0 0 10.901 11.531c11.847-10.237 21.868 3.669 21.868 3.669-8.521-3.91-14.353-2.85-18.186-.538 11.383 9.196 24.934 15.812 39.769 18.96 6.191-7.115 12.151-20.345 12.151-20.345 0 4.483-2.58 14.902-6.401 21.382a95.573 95.573 0 0 0 14.029 1.035z"/><path fill="#fff" d="M113.208 81.795a4.078 4.078 0 0 0-3.04-1.352 4.081 4.081 0 0 0-3.04 1.352c-21.482 23.789-26.751 55.728-20.575 59.974 6.459 4.44 14.532-14.932 23.211-15.133h.808c8.678.202 16.752 19.574 23.211 15.133 6.177-4.247.908-36.186-20.575-59.974zm-3.04 31.568a6.37 6.37 0 1 1 0-12.74 6.37 6.37 0 0 1 0 12.74z"/></svg>