<?xml version="1.0" encoding="UTF-8" standalone="no"?>
<!-- Created with Inkscape (http://www.inkscape.org/) -->

<svg
   width="196.42717mm"
   height="369.37146mm"
   viewBox="0 0 196.42717 369.37146"
   version="1.1"
   id="svg1"
   xmlns="http://www.w3.org/2000/svg"
   xmlns:svg="http://www.w3.org/2000/svg">
  <defs
     id="defs1" />
  <g
     id="layer1"
     transform="translate(-42.821241,18.22937)">
    <path
       d="m 85.292607,350.60934 -1.877986,-0.49837 -1.561598,-1.04283 -1.561597,-1.04283 -0.619257,-0.83764 c -0.76536,-1.03532 -2.083858,-4.18746 -2.302298,-5.5041 -0.0893,-0.53832 -0.208333,-1.12612 -0.264478,-1.30622 l -0.102129,-0.32745 -0.869447,0.51099 -0.869474,0.51099 -1.65563,0.26508 c -0.910617,0.14582 -1.744054,0.31952 -1.852084,0.38601 -0.108055,0.0665 -1.257988,0.0132 -2.555451,-0.11864 l -2.359025,-0.23948 -1.470263,-0.67312 c -2.119075,-0.97015 -3.662892,-2.83946 -4.629971,-5.6061 l -0.299455,-0.8567 -3.040089,-0.11858 -3.040115,-0.11856 -0.926042,-0.42834 c -3.165713,-1.46425 -5.716852,-3.92136 -6.719067,-6.47147 l -0.46273,-1.17739 -0.370522,-2.98678 c -0.203782,-1.64274 -0.43741,-4.61708 -0.519192,-6.60966 -0.08178,-1.99258 -0.203862,-3.98822 -0.271278,-4.43476 -0.06744,-0.44656 -0.236775,-2.12161 -0.376316,-3.72234 -0.139568,-1.60073 -0.493316,-5.29167 -0.78613,-8.20209 l -0.532369,-5.29166 -0.288686,-6.58202 -0.288687,-6.58204 0.281569,-3.60441 c 0.42889,-5.49037 1.143344,-10.84279 1.646555,-12.3357 0.147162,-0.43656 0.43442,-1.56766 0.638361,-2.51354 0.448071,-2.07825 2.555292,-7.56338 3.373067,-8.78023 0.32422,-0.48238 0.902043,-1.41284 1.284049,-2.06769 1.915504,-3.28337 4.626795,-5.52656 7.984675,-6.60616 l 1.021424,-0.3284 1.755113,0.18796 1.755114,0.18796 1.059921,0.42307 c 1.402609,0.55985 2.777119,1.48827 3.493664,2.35984 l 0.58166,0.70746 0.48387,-0.43788 c 0.266118,-0.24082 1.135459,-0.73356 1.931882,-1.09495 l 1.448011,-0.65709 2.120874,-0.28546 2.120873,-0.28546 1.397027,0.41489 c 0.768376,0.22818 1.897565,0.72213 2.509334,1.09765 l 1.112309,0.68278 0.88011,1.08929 c 0.484055,0.5991 1.023752,1.30519 1.19933,1.56906 l 0.319219,0.47977 1.049629,-0.80735 c 0.577294,-0.44402 1.210098,-0.94337 1.406234,-1.10966 0.413438,-0.35052 3.3968,-1.44513 4.920853,-1.80546 l 1.044125,-0.24686 2.792333,0.395 2.792333,0.39499 1.719792,0.84532 c 0.945885,0.46493 1.957919,1.08598 2.248959,1.38015 0.29104,0.29413 1.03042,0.85822 1.64306,1.25349 l 1.11387,0.71868 1.66426,1.95149 c 1.88775,2.21358 2.92769,3.91991 5.26073,8.63185 l 1.63433,3.30075 0.48493,1.6958 c 0.61228,2.14098 0.66657,2.18368 1.0023,0.78848 l 0.27633,-1.14829 -0.0864,2.08701 -0.0864,2.087 0.25866,1.01899 0.25863,1.01899 0.56385,-0.12599 c 1.12718,-0.25188 6.75666,-0.91811 11.27948,-1.33485 4.8102,-0.44323 5.91841,-0.49435 16.66875,-0.76906 3.56526,-0.0911 9.57791,-0.27213 13.36146,-0.40228 3.78354,-0.13015 8.93299,-0.21492 11.4432,-0.18843 4.48498,0.0474 4.8125,0.01 4.31705,-0.49419 -0.76267,-0.77589 -0.15119,-8.97298 0.95167,-12.75818 l 0.40627,-1.39436 -0.14896,-0.38817 -0.14896,-0.38817 0.78394,-1.65708 c 0.43116,-0.91139 0.78401,-1.87765 0.78411,-2.14723 1.4e-4,-0.26961 0.29512,-1.04352 0.65556,-1.71979 0.36044,-0.6763 1.02873,-2.1226 1.48506,-3.214 0.45635,-1.09141 1.03653,-2.2225 1.28934,-2.51355 0.25278,-0.29104 0.83963,-1.09358 1.30405,-1.78343 l 0.84444,-1.25427 1.88029,-1.50026 c 2.906,-2.31865 4.53448,-3.03764 8.0196,-3.54074 l 1.5875,-0.22917 1.45521,0.13638 c 0.80036,0.075 2.27618,0.38719 3.27959,0.69374 l 1.82438,0.55738 0.40709,0.70932 0.40711,0.70931 1.13787,-0.86855 c 0.62582,-0.47771 1.89444,-1.24102 2.81916,-1.69626 l 1.68132,-0.82771 2.48997,10e-4 2.48997,0.001 1.22986,0.37703 1.22986,0.37703 0.94499,0.72078 0.94498,0.72078 0.32571,0.90071 c 0.37552,1.03847 0.41055,1.04861 1.58702,0.45907 1.74038,-0.8721 1.91445,-0.94925 2.71531,-1.20334 0.44651,-0.14166 1.82388,-0.34833 3.06081,-0.45925 l 2.24896,-0.20169 1.64166,0.4694 1.64163,0.4694 1.42243,0.94414 1.4224,0.94414 1.16927,1.36172 c 2.90642,3.38479 5.17223,8.37108 6.17776,13.59525 0.22407,1.16417 0.53813,2.67766 0.69789,3.36333 l 0.29048,1.24667 -0.16599,0.26857 -0.166,0.26861 0.26405,0.99827 c 0.82524,3.11997 0.84074,17.37135 0.0265,24.39123 -0.14491,1.24941 -0.44456,4.05759 -0.66588,6.2404 -0.43479,4.28811 -0.71054,6.58699 -1.33286,11.1125 -0.83291,6.05679 -1.19095,9.16985 -1.70405,14.81667 -0.22474,2.47314 -0.47684,3.18831 -1.55795,4.4196 l -0.79592,0.90652 0.51189,0.77652 c 0.28152,0.42709 0.51266,0.98751 0.51361,1.24537 l 0.003,0.46884 -1.21836,0.77266 c -1.73252,1.09874 -7.71001,3.56796 -10.29102,4.25109 -5.15953,1.36559 -6.93243,1.77194 -12.08323,2.76947 -1.11601,0.21614 -3.91398,0.57592 -6.21771,0.79955 l -4.18864,0.40656 -7.54063,-0.0206 c -4.14734,-0.0114 -9.0289,-0.079 -10.84791,-0.1505 -1.81901,-0.0715 -7.83167,-0.13268 -13.36146,-0.13604 l -10.05417,-0.006 -3.57187,0.30628 c -6.56437,0.56285 -8.05575,0.73171 -10.31875,1.1683 -1.23693,0.2386 -3.27203,0.60478 -4.52245,0.81367 -1.25042,0.20891 -3.03636,0.61894 -3.96875,0.9112 -0.93239,0.29226 -1.9087,0.53289 -2.16961,0.53477 -0.547,0.004 -9.04189,2.79355 -15.40065,5.05735 -0.75613,0.26919 -3.54457,1.04185 -5.82083,1.61293 -1.8451,0.46289 -4.12221,0.74208 -8.02304,0.98372 l -3.78971,0.23474 -1.14861,0.75369 c -0.631746,0.41453 -1.824328,1.28207 -2.650146,1.92786 l -1.501537,1.17417 -2.423689,0.60508 -2.423689,0.6051 -1.455208,-0.0175 -1.455209,-0.0175 z m 8.358478,-2.97712 1.717993,-0.84201 1.269841,-1.32291 c 1.575911,-1.64177 2.500101,-3.19106 3.144758,-5.27177 l 0.498023,-1.6074 0.16476,-2.18689 0.16478,-2.18691 -2.222393,1.23097 c -2.976854,1.64881 -4.190445,2.16429 -6.850751,2.90992 l -2.247106,0.62978 -1.986227,-0.003 -1.986254,-0.003 -1.395756,-0.37155 c -0.767662,-0.20436 -1.822662,-0.62344 -2.344446,-0.93131 l -0.94869,-0.55972 0.140864,1.92661 c 0.07747,1.05963 0.273341,2.54447 0.435292,3.29965 l 0.294429,1.37303 0.953452,1.46902 0.953479,1.46902 1.220258,0.68648 1.220285,0.68649 2.513542,0.34396 c 2.901262,0.39703 3.002359,0.38293 5.289867,-0.73819 z m -19.0482,-9.66449 1.719791,-0.71233 -0.07387,-2.64094 c -0.04064,-1.45249 -0.206771,-4.56867 -0.369173,-6.92481 l -0.295248,-4.28387 -2.144395,0.1469 -2.144395,0.1469 -1.553342,-0.29173 -1.553369,-0.29171 -1.886215,-0.91083 -1.886241,-0.9108 -0.926041,-0.93593 c -0.509323,-0.51478 -0.985573,-0.93983 -1.058334,-0.94457 -0.421772,-0.0275 0.473049,9.21044 1.190969,12.29495 1.328209,5.70677 2.668482,6.94463 7.540281,6.96421 l 1.719792,0.007 z m 17.197916,-0.71334 c 3.083163,-0.97941 8.731249,-3.80034 8.731249,-4.36081 0,-0.12115 -0.13316,-1.15162 -0.29594,-2.28994 -0.16277,-1.13832 -0.319506,-2.24827 -0.348293,-2.46655 -0.02881,-0.21828 -0.128217,-0.69453 -0.220927,-1.05834 -0.09268,-0.3638 -0.476065,-1.97114 -0.851959,-3.57187 -0.375893,-1.60073 -0.87196,-3.64202 -1.102359,-4.53618 l -0.418942,-1.62573 -1.310137,1.75803 c -1.912726,2.56667 -4.189545,4.32562 -6.738355,5.20573 l -1.280795,0.44225 -2.116667,0.13509 -2.116667,0.1351 -1.455208,-0.51813 c -0.800364,-0.28499 -1.648142,-0.60275 -1.883966,-0.70618 l -0.428783,-0.18804 0.100092,1.93342 c 0.05503,1.06336 0.236008,4.03751 0.402166,6.60921 l 0.302049,4.67585 0.423492,0.15396 c 0.232939,0.0847 1.137867,0.39002 2.010992,0.6785 l 1.5875,0.52448 2.38125,-0.10771 2.38125,-0.10774 z M 59.7115,331.19567 c 0.03164,-0.0236 -0.05226,-0.45344 -0.186479,-0.95538 -0.204946,-0.76647 -1.06172,-5.91079 -1.06172,-6.37493 0,-0.0812 -0.982265,-0.21852 -2.182812,-0.30517 l -2.182813,-0.15758 -1.68902,-0.54348 c -0.928979,-0.2989 -2.089838,-0.79116 -2.579688,-1.09392 l -0.890667,-0.55044 v 0.79891 c 0,1.02274 0.665692,3.90017 1.195811,5.16892 l 0.409761,0.98068 1.170834,1.12186 1.170834,1.12189 2.061289,0.48358 c 1.133687,0.26598 2.180326,0.51789 2.325846,0.5598 0.235691,0.0679 2.29407,-0.14713 2.438824,-0.25474 z m 90.42993,-6.61723 c 3.63802,-0.0936 7.09083,-0.21254 7.67291,-0.26432 0.58209,-0.0518 2.71987,-0.17333 4.75062,-0.27016 2.03076,-0.0968 3.77423,-0.2267 3.87435,-0.28856 0.10014,-0.0619 2.24861,-0.29316 4.77438,-0.51392 2.52579,-0.2208 5.90201,-0.62635 7.50273,-0.90128 1.60073,-0.2749 3.98198,-0.6391 5.29167,-0.80933 4.24757,-0.55206 8.31951,-1.31001 11.1125,-2.06852 1.01865,-0.27665 2.86412,-0.76414 4.10104,-1.08331 1.23693,-0.31919 3.02623,-0.81404 3.97621,-1.09968 0.95002,-0.28565 2.02483,-0.51936 2.38853,-0.51936 0.3637,0 0.89612,-0.16084 1.18316,-0.35742 0.28705,-0.19659 1.23627,-0.57931 2.10939,-0.8505 l 1.5875,-0.49306 1.48326,-0.98483 1.48325,-0.9848 0.47109,-0.9928 0.47112,-0.99277 0.21683,-1.86825 c 0.55507,-4.78229 0.22394,-9.99445 -1.02635,-16.15577 l -0.48321,-2.38125 -0.57531,-0.259 c -0.75274,-0.33886 -0.88704,-0.74653 -0.55742,-1.69207 l 0.27027,-0.77533 -0.83243,-1.64904 -0.83246,-1.64907 -1.64319,-1.6841 c -0.90377,-0.92626 -1.77203,-1.6841 -1.92948,-1.6841 h -0.28628 l -0.15769,0.78848 -0.15769,0.78851 -1.26445,0.79397 c -0.69543,0.43669 -1.42464,0.79623 -1.62049,0.79901 -0.19582,0.003 -0.67207,0.16912 -1.05833,0.36968 -0.38624,0.20055 -0.99994,0.50009 -1.36374,0.66561 -1.08845,0.49527 -6.07537,1.90537 -8.20209,2.31923 -1.0914,0.21238 -2.40109,0.48673 -2.91041,0.60965 -1.59309,0.38455 -3.976,0.80804 -7.54063,1.3402 -1.89177,0.28239 -3.97068,0.64235 -4.61978,0.79991 -2.04153,0.49549 -18.20556,1.94779 -24.88126,2.23552 -8.36475,0.36055 -25.97893,0.14724 -32.01458,-0.38767 -1.67349,-0.14832 -3.26761,-0.27067 -3.54248,-0.27191 l -0.49975,-0.003 0.14616,1.52136 0.14615,1.52135 0.48589,0.92604 0.4859,0.92605 -0.01,3.96875 -0.01,3.96875 -0.90093,2.63136 -0.90093,2.63133 -1.20624,1.57475 -1.20621,1.57474 -1.14937,0.82016 -1.14938,0.82016 -2.05102,0.0931 -2.05103,0.0932 -1.07349,-0.54766 -1.0735,-0.54766 -0.76493,-0.92798 -0.76494,-0.928 -0.46064,-1.92397 c -0.62047,-2.59162 -0.66413,-2.92822 -0.68683,-5.29738 l -0.0196,-2.05015 -0.99219,-0.0138 -0.99218,-0.0138 1.01015,-0.4187 1.01015,-0.4187 -0.16187,-4.13171 c -0.16597,-4.23622 -0.33721,-6.44895 -0.55782,-7.20833 l -0.12515,-0.43074 -1.11691,-0.28393 c -0.61429,-0.15613 -1.771732,-0.41791 -2.572096,-0.58171 -0.800365,-0.16381 -1.851078,-0.41868 -2.334895,-0.5664 -0.483844,-0.14771 -0.924163,-0.22412 -0.978509,-0.16978 -0.142266,0.14227 0.733769,6.99185 1.330219,10.40082 0.203677,1.16417 0.431298,2.59292 0.505804,3.175 0.217541,1.69961 1.476005,8.59955 1.857878,10.18646 0.19259,0.80037 0.632275,2.67322 0.977027,4.1619 l 0.626852,2.70669 0.39687,0.17012 c 0.68906,0.29536 3.50986,0.93157 5.15938,1.16369 0.87312,0.12285 2.48047,0.41971 3.57187,0.65966 1.09141,0.23995 2.34157,0.49459 2.77813,0.56587 0.43656,0.0713 2.34156,0.37724 4.23333,0.67992 1.89177,0.30269 4.0349,0.65829 4.7625,0.79023 0.72761,0.13193 2.45859,0.34706 3.84662,0.47805 1.38803,0.13103 3.05491,0.34605 3.70417,0.47789 l 1.18046,0.23972 2.50389,-0.0557 c 1.37713,-0.0307 2.77272,0.0164 3.10128,0.10469 0.68075,0.18283 5.21319,0.15492 14.76775,-0.0909 z M 89.551843,322.9833 c 2.133944,-0.99764 3.09192,-1.72197 5.361516,-4.05377 l 1.921934,-1.97461 0.149542,-0.59581 0.149543,-0.59579 -0.306414,-1.02301 c -0.323533,-1.08011 -0.632328,-2.55569 -1.568874,-7.49689 -0.681857,-3.59744 -0.510407,-3.335 -1.62515,-2.48793 -1.345644,1.02256 -3.833945,2.09481 -5.986409,2.57969 l -1.904312,0.42899 -1.667563,-0.003 -1.667563,-0.003 -1.335114,-0.35557 c -0.734325,-0.19556 -1.597528,-0.49599 -1.918229,-0.66763 l -0.583116,-0.31199 v 0.77782 c 0,0.4278 0.180076,2.40197 0.400156,4.38703 0.220107,1.98506 0.395658,3.93118 0.390128,4.32472 -0.0056,0.39351 0.103585,1.78708 0.242491,3.09676 0.138906,1.30969 0.261011,2.70436 0.271357,3.09925 l 0.01879,0.71803 1.653646,0.53885 1.653646,0.53885 2.38125,-0.0892 2.38125,-0.0892 z m -14.971316,-0.52983 0.860663,-0.18905 -0.133191,-3.08292 c -0.07324,-1.69564 -0.200872,-3.26155 -0.283633,-3.47983 -0.08276,-0.21828 -0.279771,-2.12328 -0.437806,-4.23333 -0.158062,-2.11005 -0.351949,-4.5806 -0.430927,-5.49011 l -0.143563,-1.65364 h -0.200475 c -0.110278,0 -0.706702,0.17859 -1.325377,0.39687 l -1.12485,0.39688 h -2.055521 -2.055548 l -1.721829,-0.53181 -1.721829,-0.53182 -1.34874,-0.92778 -1.348766,-0.92779 0.0026,1.65804 c 0,0.91191 0.119194,2.08176 0.263075,2.59963 0.143854,0.5179 0.309033,1.94665 0.36703,3.175 0.05802,1.22838 0.195527,3.62556 0.305567,5.3271 l 0.200104,3.09366 0.952738,0.91805 0.952739,0.91806 1.811205,0.98737 1.811231,0.9874 1.750642,0.45545 1.750616,0.45548 1.222163,-0.066 c 0.672201,-0.0362 1.609461,-0.151 2.0828,-0.25495 z m -16.232557,-1.1294 c -0.07347,-0.69123 -0.201375,-2.50693 -0.284242,-4.0349 -0.419762,-7.74131 -0.224155,-7.04771 -1.833536,-6.50129 l -1.224942,0.41587 h -1.568476 -1.56845 l -1.398852,-0.55006 c -0.769382,-0.30256 -1.607953,-0.73838 -1.863514,-0.96854 -0.656695,-0.59139 -0.675534,-0.49223 -0.43934,2.31235 0.17645,2.09548 0.720936,7.92009 0.760174,8.13213 0.04326,0.23389 3.564334,1.80983 4.641718,2.07751 l 1.322916,0.32869 1.795066,0.0225 1.795039,0.0225 z m 172.53884,-0.68374 0.78428,-0.40558 0.29662,-1.00975 c 0.16314,-0.55539 0.371,-1.78369 0.46194,-2.72958 0.0909,-0.94588 0.32713,-2.96995 0.52485,-4.49792 0.19772,-1.52796 0.42106,-3.39383 0.4963,-4.14633 l 0.13679,-1.36824 -1.90328,0.68064 -1.9033,0.68064 -3.57188,0.0164 -3.57187,0.0164 -1.5875,-0.58701 c -0.87313,-0.32287 -1.91011,-0.82447 -2.30439,-1.11469 -0.39428,-0.29022 -0.78034,-0.52766 -0.85789,-0.52766 -0.0776,0 -0.0716,1.63711 0.0132,3.63802 l 0.15418,3.63802 0.50802,1.93125 c 0.57322,2.17898 1.76858,4.70988 2.56355,5.42777 l 0.53136,0.47982 2.73871,0.21622 c 1.50629,0.1189 3.40637,0.18269 4.2224,0.14174 l 1.48368,-0.0745 z m -119.21382,-7.67831 0.95451,-0.41095 1.35361,-1.48109 1.35364,-1.48108 0.78126,-1.63997 0.78123,-1.63997 0.42889,-2.89642 0.42889,-2.89642 -0.16811,-1.34554 -0.16812,-1.34553 -0.69064,0.009 -0.69064,0.009 -0.19225,-0.79375 c -0.10573,-0.43656 -0.33157,-1.50813 -0.50191,-2.38125 -0.17032,-0.87313 -0.41738,-1.861 -0.54901,-2.19528 -0.13166,-0.33446 -0.23937,-1.19065 -0.23937,-1.9028 v -1.29487 l -0.22241,-0.13745 -0.22244,-0.13748 -0.72064,2.07018 -0.72065,2.07018 -1.23973,2.20329 -1.23976,2.20332 -1.71979,1.74336 -1.71979,1.74337 -1.25677,0.65299 -1.25677,0.65299 v 1.59489 c 0,0.87719 0.1261,2.60381 0.28019,3.8369 l 0.28022,2.24203 0.57237,1.14834 0.57235,1.14835 0.70742,0.50371 c 0.38907,0.27705 1.16628,0.60278 1.72712,0.72388 l 1.0197,0.22013 0.66146,-0.1923 c 0.3638,-0.10575 1.09098,-0.37722 1.61594,-0.60322 z m -56.49494,-3.12058 c 0.861007,-0.16719 1.714288,-0.41989 1.896189,-0.56158 l 0.330729,-0.25757 v -1.75352 c 0,-0.96446 -0.111072,-2.76559 -0.245957,-4.00252 -0.134858,-1.23692 -0.390551,-4.03354 -0.568192,-6.21469 -0.177615,-2.18117 -0.394362,-4.22949 -0.481621,-4.55186 l -0.158671,-0.58611 -1.153372,0.51697 -1.153371,0.51694 H 52.62736 c -0.559038,0 -1.647348,-0.13051 -2.418503,-0.29006 l -1.40208,-0.29006 -1.426633,-0.79174 -1.426634,-0.79174 0.161846,1.01566 c 0.199999,1.25489 0.55245,4.63026 1.114452,10.67294 l 0.430635,4.63021 0.468525,0.66146 c 0.62476,0.88202 1.912328,1.6084 3.559783,2.00824 1.750774,0.42495 1.665711,0.42328 3.490039,0.069 z m 32.257126,-3.5365 1.852083,-0.39174 2.116667,-1.04399 c 1.164167,-0.5742 2.330423,-1.21661 2.591673,-1.42756 l 0.475007,-0.38354 -0.537025,-4.19542 c -0.295381,-2.30746 -0.657966,-5.00129 -0.805736,-5.98625 -0.147796,-0.98497 -0.268711,-2.37924 -0.268711,-3.09841 v -1.30757 l -0.415819,-0.34118 c -0.228732,-0.18764 -0.661352,-0.56544 -0.961443,-0.83955 l -0.545597,-0.49842 -2.604056,0.17936 c -1.432242,0.0986 -4.001399,0.35269 -5.709258,0.56454 -1.707833,0.21188 -3.666913,0.38521 -4.353507,0.38521 h -1.248357 l 0.12782,2.57969 c 0.139779,2.82125 0.512815,7.98565 0.871299,12.06251 l 0.228918,2.60363 0.275008,0.27501 c 0.151262,0.15126 0.908447,0.49377 1.682617,0.76116 l 1.407584,0.48614 1.984375,0.004 1.984375,0.004 z m 142.514424,0.12679 c 1.07143,-0.15849 2.33114,-0.40772 2.79929,-0.55385 l 0.85122,-0.2657 0.12102,-0.84222 c 0.51496,-3.58426 1.74905,-13.71007 1.87619,-15.39433 0.0439,-0.58208 0.27612,-3.19812 0.51593,-5.81343 0.23982,-2.6153 0.40146,-4.96284 0.3592,-5.21676 l -0.0769,-0.4617 -1.19062,0.81746 c -1.69445,1.16337 -4.09144,2.25237 -6.0628,2.75445 l -1.6972,0.43227 -1.30066,-0.2572 -1.30069,-0.25717 -0.0811,0.29688 c -0.0727,0.26625 -0.75269,3.05917 -1.11906,4.59635 l -0.14187,0.59531 h 0.4277 0.42773 v 0.39862 0.39862 l -0.65477,0.56933 -0.65476,0.56931 -0.25236,0.81798 c -0.1388,0.44992 -0.3266,1.19007 -0.41733,1.64481 l -0.16494,0.8268 1.73564,0.46982 1.73564,0.46982 2.5776,-0.16629 2.57757,-0.16629 1.71979,-0.53301 c 0.94589,-0.29313 1.77721,-0.5339 1.84735,-0.53501 0.45992,-0.007 -2.18138,1.47976 -3.40066,1.91455 l -1.4894,0.53112 -1.75651,0.13253 -1.75652,0.13251 -1.41848,-0.32779 c -0.78018,-0.18032 -1.6822,-0.493 -2.00448,-0.69491 -0.7697,-0.48217 -0.86921,-0.46505 -0.86921,0.1496 0,0.28421 -0.11356,0.79023 -0.25234,1.12448 -0.1388,0.33427 -0.86854,2.5723 -1.62168,4.9734 -0.75314,2.40109 -1.42105,4.50096 -1.48426,4.66637 l -0.11491,0.30076 0.8699,0.61941 0.86989,0.61942 1.7266,0.43045 1.72659,0.43048 2.28526,0.0454 2.28523,0.0455 z m -156.983931,-3.00612 0.876327,-0.45452 -0.132768,-2.5644 c -0.07303,-1.41041 -0.196797,-2.92158 -0.275061,-3.35814 -0.150495,-0.83937 -0.395499,-5.22587 -0.410104,-7.34219 l -0.0087,-1.25677 h -1.995514 -1.995541 l -2.039355,-0.42087 -2.039382,-0.42085 -1.401948,-0.66281 c -0.771075,-0.36451 -1.9413,-1.07447 -2.60051,-1.57763 l -1.198509,-0.91485 0.15486,1.40319 c 0.08517,0.77177 0.21336,2.65335 0.284851,4.18132 0.189653,4.054 0.6282,9.56932 0.813276,10.22794 l 0.160337,0.57063 0.967793,0.76322 c 0.80608,0.63566 2.397363,1.44007 4.539642,2.29481 0.218281,0.0871 1.527968,0.11967 2.910416,0.0724 l 2.513542,-0.0859 z m 145.298341,-2.47446 c 0.16198,-0.83674 0.70975,-3.20733 1.2173,-5.26799 0.50752,-2.06065 0.89474,-3.84659 0.86048,-3.96875 -0.0342,-0.12215 0.14565,-0.61256 0.39981,-1.08979 l 0.46207,-0.86765 -0.13716,-0.22196 c -0.0754,-0.12205 -0.7452,-0.30257 -1.48836,-0.40116 -0.74319,-0.0986 -1.99499,-0.4201 -2.78178,-0.7145 l -1.43058,-0.53523 -0.38994,-0.55671 -0.38992,-0.55671 -0.18417,0.47993 -0.18418,0.47995 1.09191,3.33605 c 1.27984,3.91039 2.05301,7.12992 2.31018,9.61994 0.2244,2.17268 0.27128,2.19191 0.64434,0.26458 z m -112.48858,-0.75303 1.5035,-1.21605 1.41692,-1.76051 1.4169,-1.76051 0.99991,-1.98438 c 0.54996,-1.0914 1.38044,-3.05594 1.84555,-4.36562 l 0.84563,-2.38125 -0.12697,-1.7198 c -0.0698,-0.94588 -0.32531,-2.55322 -0.56772,-3.57187 -0.24241,-1.01865 -0.50821,-2.29857 -0.59063,-2.84427 l -0.14988,-0.99219 h -0.22437 c -0.1234,0 -0.45929,0.44649 -0.74642,0.99219 -1.28174,2.43612 -4.66341,6.06872 -6.55317,7.0395 -1.35739,0.69729 -1.29553,0.51494 0.25966,-0.76538 2.82038,-2.32191 7.19598,-8.32464 6.06809,-8.32464 -0.20368,0 -1.11538,-1.38504 -1.11538,-1.69447 0,-0.0867 0.29766,-0.15762 0.66146,-0.15762 h 0.66146 v -0.36901 c 0,-0.66471 -1.01658,-3.67668 -2.23954,-6.63522 -0.66,-1.59673 -1.20005,-3.03739 -1.20005,-3.20143 0,-0.16404 -0.333,-0.76261 -0.73998,-1.33017 -0.40701,-0.56753 -0.89607,-1.41488 -1.08681,-1.88298 -0.19073,-0.46813 -0.51257,-0.98873 -0.71522,-1.1569 l -0.3684,-0.30575 v 1.16745 c 0,2.33675 -1.33337,6.00281 -2.82268,7.76089 l -0.67242,0.79375 0.13981,-0.52917 c 0.0769,-0.29104 0.49363,-1.49013 0.92607,-2.66464 l 0.78629,-2.13551 0.3017,-1.9445 0.30171,-1.9445 -0.28218,-1.35919 -0.28215,-1.35917 -1.79277,-1.77903 c -2.01816,-2.00268 -2.409082,-2.25261 -6.300653,-4.02791 -1.005469,-0.45868 -1.754822,-0.47371 -4.039393,-0.081 l -1.741461,0.29935 -0.702284,0.4944 c -0.386265,0.27191 -0.815552,0.49437 -0.953929,0.49437 -0.138403,0 -1.034044,0.71694 -1.990354,1.59322 l -1.73871,1.59324 -1.077674,1.57877 c -1.235525,1.81006 -1.29196,1.98265 -0.511625,1.56503 0.311336,-0.1666 0.922841,-0.40526 1.358953,-0.53033 l 0.792877,-0.22741 1.289659,0.55481 1.289685,0.5548 1.386284,1.50726 1.386284,1.50727 0.754883,1.41793 c 0.415184,0.77986 0.919903,1.96162 1.121622,2.62615 l 0.366739,1.20822 -0.01508,1.45521 -0.01508,1.45521 -0.216482,-0.52917 c -0.119062,-0.29104 -0.601662,-1.71979 -1.072462,-3.175 l -0.855954,-2.64583 -0.66921,-0.92604 c -1.031769,-1.42772 -2.761456,-3.17686 -3.55309,-3.5931 l -0.714454,-0.37565 h -0.977 -0.976974 l -1.256639,1.25677 -1.256638,1.25677 -0.951601,3.04271 c -0.722154,2.30909 -2.015781,7.82362 -2.015781,8.59297 0,0.0481 0.596609,-0.13925 1.325774,-0.41632 l 1.325748,-0.50374 h 1.680607 1.680607 l 2.127779,0.52959 c 1.170305,0.29125 2.942828,0.87794 3.938958,1.30374 l 1.811152,0.77417 0.171423,-1.31922 0.171424,-1.31921 0.464899,-0.51369 0.4649,-0.51371 h 0.589677 0.58965 l 0.899001,0.99507 c 0.494427,0.54729 1.426501,1.79745 2.071264,2.77812 l 1.17229,1.78306 h 0.284189 0.284189 l 1.632661,3.37344 c 0.89797,1.85539 1.744,3.84968 1.8801,4.43177 0.1361,0.58208 0.43482,1.75228 0.66379,2.60043 l 0.41635,1.54209 0.2694,3.10246 c 0.14816,1.70637 0.28204,4.43547 0.29749,6.06467 0.0153,1.62922 0.0849,2.96222 0.15441,2.96222 0.0695,0 0.80288,-0.54724 1.62981,-1.21605 z m -50.55346,-8.83277 0.859685,-0.32155 -0.13208,-3.37103 c -0.07266,-1.85407 -0.132107,-4.92083 -0.132107,-6.81498 v -3.44395 l -1.903307,-0.15957 -1.903306,-0.15957 -1.64592,-0.81028 -1.64592,-0.81029 -0.816398,-0.9298 -0.816399,-0.92982 v -0.42138 -0.42135 l 1.164326,1.07323 c 1.308973,1.20655 2.634297,1.93257 4.399782,2.41022 l 1.198457,0.32422 1.182793,-0.0842 1.182767,-0.0842 0.02302,-1.32292 c 0.109379,-6.29714 2.982648,-15.76472 5.847794,-19.26873 0.336338,-0.41135 0.611532,-0.86879 0.611532,-1.0165 0,-0.31012 0.767556,-1.35763 2.182812,-2.97895 1.205521,-1.38107 1.208458,-1.43467 0.132292,-2.43223 l -0.859896,-0.79709 -1.541463,-0.46529 -1.541462,-0.4653 -1.104371,0.17341 c -2.475442,0.38873 -3.894428,1.11395 -5.498544,2.81024 -1.160277,1.22696 -3.146452,3.83159 -3.146452,4.12623 0,0.11753 -0.221456,0.62868 -0.492125,1.13583 -0.270668,0.50718 -0.574701,1.18483 -0.67564,1.50593 l -0.183488,0.58381 1.533763,0.44587 1.533763,0.44588 3.397991,-0.17198 3.397964,-0.17198 -0.109299,0.33292 -0.109326,0.33293 -1.567101,0.33991 -1.567127,0.33991 -2.415884,-0.1184 -2.415884,-0.11838 -0.812112,-0.41997 c -0.446669,-0.23095 -0.929005,-0.41994 -1.07188,-0.41994 h -0.259768 l -1.043066,3.37343 c -0.57367,1.85539 -1.180703,4.20688 -1.348899,5.22552 -0.168222,1.01865 -0.413385,2.4474 -0.544804,3.175 -0.131418,0.72761 -0.354409,2.39448 -0.495511,3.70417 l -0.256567,2.38125 0.06345,6.20215 0.06342,6.20213 1.126067,0.9993 1.126066,0.99928 1.232271,0.39034 1.23227,0.39034 1.852083,-0.0861 1.852084,-0.0862 z m 100.07883,-1.4968 c 1.81901,-0.0962 4.02167,-0.2064 4.89479,-0.24501 0.87313,-0.0386 2.30188,-0.14618 3.175,-0.23902 0.87313,-0.0929 2.30188,-0.21333 3.175,-0.26773 1.74461,-0.10867 8.08133,-0.90943 8.31818,-1.05114 0.0817,-0.0489 1.16052,-0.16343 2.39745,-0.25455 2.53804,-0.18701 4.65513,-0.51703 7.08136,-1.10387 0.91157,-0.22051 1.76009,-0.33743 1.88558,-0.25988 0.12549,0.0776 0.80841,-0.0251 1.51759,-0.22796 0.70919,-0.20294 2.48005,-0.62471 3.93526,-0.93723 4.18354,-0.8985 5.68431,-1.28347 7.76441,-1.99168 1.06897,-0.36394 2.081,-0.66493 2.24896,-0.66884 0.16795,-0.004 0.7221,-0.35767 1.23142,-0.78611 l 0.92604,-0.77898 -0.79375,-0.66591 c -3.02961,-2.54166 -12.07058,-5.12233 -19.44687,-5.55095 -1.09141,-0.0634 -2.99641,-0.23842 -4.23334,-0.38889 -6.75976,-0.82232 -23.55106,-0.89035 -43.78854,-0.17738 -2.61937,0.0923 -5.77453,0.23199 -7.01146,0.31044 -1.23692,0.0784 -3.08239,0.1886 -4.10104,0.24477 -2.25861,0.12454 -9.03123,0.9998 -9.223,1.19197 -0.0761,0.0763 0.0772,1.44553 0.34083,3.04271 0.26361,1.59718 0.6344,4.59915 0.82397,6.67102 l 0.34465,3.76703 0.41719,0.11927 c 0.22947,0.0656 3.0961,0.19826 6.37032,0.29475 3.27422,0.0965 6.00432,0.22445 6.0669,0.28437 0.16272,0.15584 21.73152,-0.12229 25.6831,-0.3312 z m -16.00729,-4.32157 c -5.53022,-0.81722 -8.76951,-2.0428 -9.62012,-3.63977 l -0.31387,-0.58925 0.49307,-0.49308 0.49308,-0.49308 2.75413,-0.31332 2.75413,-0.31332 7.8052,-0.15332 7.80521,-0.15333 3.96875,0.54152 3.96875,0.54153 1.5603,0.48085 1.56028,0.48088 0.26776,0.42447 0.26775,0.4245 -0.16877,0.43981 -0.16878,0.43985 -1.13009,0.48075 c -1.43923,0.61224 -4.08406,1.22544 -7.61241,1.76493 l -2.77812,0.42478 -4.36563,0.0869 -4.36562,0.0869 z m 11.69233,-0.92213 c 2.45221,-0.22037 7.9792,-1.27378 9.47434,-1.80578 l 1.05833,-0.37656 -0.52917,-0.16327 c -0.29104,-0.0898 -1.60073,-0.35581 -2.91041,-0.59113 l -2.38125,-0.42789 -5.55625,-0.13618 -5.55625,-0.1362 -3.70417,0.42346 c -2.03729,0.23291 -4.16915,0.50165 -4.73747,0.59719 l -1.03333,0.17367 0.18642,-0.30165 c 0.10256,-0.16592 0.74615,-0.47387 1.43021,-0.68432 l 1.24375,-0.38266 -1.19062,-0.019 c -0.65485,-0.0103 -2.25042,0.17555 -3.54571,0.41328 l -2.35511,0.43225 0.60923,0.45955 c 0.80105,0.60423 3.34952,1.47982 5.82075,1.99985 l 1.98438,0.4176 3.30729,0.18031 c 3.7682,0.20545 5.45367,0.19087 8.38504,-0.0725 z m -49.61818,2.38977 c -0.11909,-1.00539 -1.668967,-5.04055 -2.429353,-6.32492 l -0.599731,-1.01298 -0.42463,0.13602 c -0.233521,0.0748 -1.19851,0.42812 -2.144395,0.78518 l -1.719792,0.64915 0.01482,0.82315 c 0.0082,0.4527 0.03786,1.39568 0.06615,2.09547 l 0.05146,1.27233 0.330729,0.44109 0.33073,0.44109 2.248958,0.64402 c 2.513118,0.71966 3.386224,0.90704 3.968754,0.85174 l 0.39687,-0.0377 z m -29.136977,0.37663 h 0.759513 l -0.0032,-3.2426 c -0.0032,-3.44519 0.417142,-9.17448 0.834866,-11.37711 0.138457,-0.73014 0.251751,-1.4207 0.251751,-1.53458 v -0.20709 l -1.542388,-0.007 c -3.164814,-0.0151 -9.183661,-0.6986 -10.674138,-1.21213 l -1.048279,-0.36116 -0.09472,0.30594 c -0.0521,0.16825 -0.184891,0.90122 -0.295116,1.62883 -0.110226,0.7276 -0.241115,1.56104 -0.290883,1.85208 -0.04977,0.29104 -0.159597,2.53765 -0.244079,4.99245 l -0.153564,4.46328 0.343747,0.64233 0.343773,0.64236 1.498494,1.00062 1.498468,1.00066 1.83941,0.59145 1.839409,0.59145 1.836288,0.2118 c 1.009968,0.11649 1.994853,0.16838 2.18866,0.1153 0.193807,-0.0531 0.694161,-0.0965 1.111885,-0.0965 z m 149.458387,-0.7276 c 0.4848,-1.82412 1.31784,-5.47306 1.61581,-7.0776 0.16216,-0.87313 0.45805,-2.30188 0.65754,-3.175 0.19947,-0.87313 0.48348,-2.36141 0.63106,-3.3073 0.14759,-0.94588 0.34552,-2.19604 0.43984,-2.77812 0.0943,-0.58208 0.21715,-1.86201 0.27292,-2.84427 l 0.10144,-1.78594 h -0.36213 -0.36211 l -0.83357,1.12448 c -0.45847,0.61846 -1.1213,1.5412 -1.47296,2.05052 -0.95843,1.38814 -3.975,7.36222 -3.80389,7.53332 0.21325,0.21326 3.95539,-0.6088 4.38163,-0.96258 l 0.35685,-0.29614 0.16838,0.16838 0.16838,0.16835 -0.50549,0.56817 c -0.27802,0.31247 -0.98176,0.78684 -1.56385,1.05415 l -1.05833,0.48599 -1.22436,0.006 -1.22438,0.006 -0.2499,0.33073 c -0.53803,0.71204 -3.15389,8.06013 -2.94405,8.26997 0.0549,0.0549 0.7516,0.4032 1.54832,0.77404 l 1.44854,0.67427 1.77533,0.003 1.7753,0.003 z m -141.037096,0.0888 c 0.27723,-0.17098 5.004911,-0.67374 7.841535,-0.83392 l 2.645834,-0.14938 0.08821,-0.24731 c 0.0485,-0.13602 0.317288,-0.2473 0.597297,-0.2473 h 0.509137 l -0.06816,-1.58422 -0.06816,-1.58422 -0.463021,0.14684 -0.463021,0.14685 v -1.34075 -1.34075 h 0.264584 0.264583 v -1.6618 -1.66177 l -0.859896,-0.33909 c -0.472943,-0.18647 -1.990989,-0.69778 -3.373437,-1.1362 l -2.513542,-0.79716 -2.530475,-0.14817 -2.530475,-0.14816 -1.0414,0.47916 c -0.57277,0.26355 -1.090612,0.51736 -1.150752,0.56406 -0.06017,0.0467 -0.25744,1.37922 -0.438388,2.96122 l -0.32901,2.87631 0.01455,3.23332 0.01455,3.23334 1.710398,-0.15846 c 0.9407,-0.0872 1.786255,-0.20527 1.879018,-0.26244 z m 134.213276,-6.505 c 0.4403,-1.23692 0.86662,-2.54661 0.9474,-2.91041 0.0808,-0.3638 0.29885,-0.84005 0.48461,-1.05834 0.18579,-0.21828 0.82952,-1.46494 1.43052,-2.77034 0.60103,-1.3054 1.47114,-2.96312 1.9336,-3.68379 l 0.84085,-1.31035 -0.0198,-1.36417 c -0.0109,-0.75028 -0.16889,-2.00962 -0.35119,-2.79847 l -0.33149,-1.43433 -1.14943,-1.98438 -1.14946,-1.98437 -1.53289,-1.48463 -1.53289,-1.48463 -1.62139,-0.9805 -1.62142,-0.98046 -1.6433,-0.51144 c -0.90382,-0.28131 -1.97599,-0.51147 -2.38257,-0.51147 h -0.73928 l -1.35382,2.42777 c -0.74461,1.33524 -1.35382,2.51608 -1.35382,2.62408 0,0.10798 -0.29765,0.78896 -0.66145,1.51328 -0.36381,0.7243 -0.66146,1.48418 -0.66146,1.6886 0,0.20445 -0.10819,0.4848 -0.2404,0.62304 -0.24874,0.26009 -1.51371,3.84644 -1.66071,4.70837 l -0.0833,0.48823 1.54006,0.4811 c 4.09075,1.27788 10.34619,4.88648 11.93448,6.88467 l 0.94009,1.18274 0.003,0.7276 0.003,0.7276 h -0.24474 c -0.13462,0 -0.52158,-0.50109 -0.8599,-1.11352 l -0.61516,-1.11353 -1.5875,-1.28333 -1.5875,-1.28336 -3.175,-1.5503 c -3.35179,-1.63656 -5.7918,-2.65179 -6.37344,-2.65179 h -0.34959 l -0.16113,0.99219 c -0.0886,0.5457 -0.27263,1.26569 -0.40886,1.59996 -0.13626,0.33425 -0.24776,0.98989 -0.24776,1.45696 0,0.46704 -0.10446,1.21343 -0.23214,1.65864 l -0.23215,0.80947 1.62121,0.62262 c 1.93574,0.7434 3.10763,1.39282 4.53162,2.51124 0.58209,0.45717 1.59412,1.10344 2.24896,1.43615 1.91553,0.97325 2.85472,1.80716 4.4218,3.92616 l 1.47436,1.99363 0.50472,-1.29363 c 0.27757,-0.71146 0.86495,-2.30563 1.30524,-3.54256 z m 14.8082,-0.22822 c 0.78677,-0.27107 2.65086,-1.10559 4.14245,-1.8545 l 2.71198,-1.36167 0.0251,-0.59291 c 0.0138,-0.3261 0.0491,-2.4979 0.0783,-4.82624 l 0.0532,-4.23333 -0.27678,-2.6021 -0.27676,-2.6021 -0.19844,0.19881 c -0.10914,0.10933 -0.19843,0.45019 -0.19843,0.75748 0,0.84973 -1.64285,4.08104 -2.84382,5.59345 l -1.06845,1.34556 -1.73161,0.89779 -1.7316,0.89778 -0.21267,-0.21264 -0.21267,-0.21268 0.52697,-0.27582 c 0.28983,-0.15169 1.42089,-1.18552 2.51349,-2.29735 l 1.98649,-2.02158 0.8626,-1.80581 c 0.47442,-0.99319 1.12119,-2.6848 1.43726,-3.75914 l 0.57468,-1.95332 -0.34049,-1.79501 c -1.65201,-8.70916 -4.79224,-14.32362 -9.20756,-16.46243 l -1.53376,-0.74296 -1.35609,-0.18651 -1.3561,-0.18651 -1.09511,0.32809 -1.09508,0.3281 1.42388,0.94903 c 2.76458,1.84262 4.57554,3.7921 5.98508,6.44292 l 0.81101,1.52514 0.41915,1.78216 0.41913,1.78215 0.009,2.24896 0.009,2.24896 -0.46088,1.80874 c -0.25347,0.99481 -0.74496,2.50788 -1.09218,3.36241 l -0.63132,1.55363 0.28866,0.73866 0.28864,0.73864 -0.171,2.64583 c -0.094,1.45521 -0.27025,3.06256 -0.39159,3.57188 -0.12133,0.50932 -0.36295,1.81901 -0.53692,2.91041 -0.17396,1.09141 -0.48588,2.64703 -0.69315,3.45694 -0.20725,0.80992 -0.37682,1.67312 -0.37682,1.91823 v 0.44567 h 1.54607 1.54609 z m -134.075614,-1.82994 1.548051,-0.46345 -1.018884,-1.34445 c -1.36271,-1.79811 -2.406809,-3.0131 -2.589318,-3.0131 -0.201428,0 -0.1914,4.34509 0.01111,4.87315 0.197115,0.51363 0.155575,0.51469 2.048907,-0.0521 z m 101.661434,-4.88715 c 0.0122,-0.47294 0.0603,-1.54762 0.10718,-2.38821 l 0.0852,-1.52831 -0.50406,-0.37433 c -0.27725,-0.2059 -1.21846,-0.64294 -2.09158,-0.97123 l -1.5875,-0.59688 -1.91823,-0.10906 c -1.05503,-0.06 -1.91839,-0.0663 -1.91857,-0.014 -2.2e-4,0.0523 -0.17865,1.10709 -0.39654,2.34402 -0.21788,1.23693 -0.39631,2.37379 -0.3965,2.52635 l -2.6e-4,0.27739 2.57968,0.46619 c 1.41883,0.25644 2.99641,0.53383 3.50573,0.61646 0.50933,0.0826 1.10464,0.2504 1.32292,0.37282 0.21828,0.12245 0.57547,0.22625 0.79375,0.23066 l 0.39687,0.008 z m -11.4328,-3.43958 c 1.10625,-5.49161 2.41075,-10.76738 3.22201,-13.03073 1.28659,-3.58944 1.82894,-4.89921 2.67222,-6.45353 l 0.91744,-1.69101 -0.21807,-0.21807 c -0.11994,-0.11993 -1.23669,-0.74657 -2.48169,-1.3925 l -2.26361,-1.17446 -1.86188,-0.55449 -1.86184,-0.55448 h -1.19079 -1.19078 l -0.93596,1.40967 c -1.21926,1.83632 -2.27571,3.93539 -2.71452,5.39345 l -0.35129,1.16721 0.79756,-0.17515 c 2.93897,-0.6455 7.49834,0.24844 9.14855,1.79377 l 0.59531,0.55745 v 0.48305 0.48305 h -0.38372 c -0.21106,0 -0.48591,-0.18259 -0.61082,-0.40577 l -0.22706,-0.40579 -1.94779,-0.67736 -1.94778,-0.67738 -2.00549,-0.0413 c -1.10299,-0.0228 -2.44864,0.0527 -2.99029,0.16772 l -0.98484,0.20904 -0.50469,1.64304 c -0.2776,0.90366 -0.58547,2.17882 -0.68418,2.83366 -0.0987,0.65485 -0.34261,2.0836 -0.54195,3.175 -0.19936,1.09141 -0.43704,2.43658 -0.52819,2.98926 l -0.16568,1.00492 1.10075,-0.56158 c 0.60542,-0.30885 1.85949,-0.7203 2.78683,-0.91432 l 1.68605,-0.35277 1.13017,0.14502 1.13014,0.14504 1.25677,0.62876 1.25677,0.62875 v 0.29099 0.29099 l -0.59531,-0.17026 c -0.32742,-0.0936 -1.25016,-0.29789 -2.05052,-0.45392 l -1.45521,-0.28363 -1.51868,0.17129 c -1.81533,0.20476 -2.98786,0.57748 -3.97142,1.26243 l -0.72761,0.50673 v 1.71916 1.71918 l -0.27389,0.51176 -0.27387,0.51179 1.00147,0.0145 c 2.78106,0.0401 8.42346,0.30805 8.52009,0.4046 0.0606,0.0606 0.4899,0.11012 0.9539,0.11012 h 0.84368 z m -111.488169,0.008 c 0,-0.70681 0.569542,-2.68377 1.916086,-6.65093 l 1.064948,-3.13757 -0.366024,-0.23264 c -0.201322,-0.12796 -1.318552,-0.60087 -2.482718,-1.05093 l -2.116667,-0.81828 -1.880817,-0.14636 -1.880843,-0.14634 -1.426448,0.34163 -1.426475,0.34165 -0.830659,0.54375 -0.830686,0.54374 -0.690669,1.50474 c -0.379888,0.82759 -0.690694,1.67143 -0.690694,1.87516 0,0.20375 -0.104405,0.48357 -0.23204,0.62182 -0.33491,0.36274 -1.021239,2.69401 -1.213326,4.12131 l -0.164756,1.22412 0.474345,0.18256 c 1.011026,0.3891 4.573217,0.90982 7.353485,1.07492 2.976748,0.17677 4.682358,0.36804 4.865555,0.54563 0.228256,0.22124 0.558403,-0.21506 0.558403,-0.73798 z m 124.050319,-4.10869 c 0.75896,-3.19788 1.70455,-6.05036 2.70957,-8.17377 0.4231,-0.89392 0.76928,-1.69611 0.76928,-1.78263 0,-0.34298 3.45871,-5.95775 4.62893,-7.51448 l 1.24455,-1.65561 -0.1407,-0.36667 c -0.0774,-0.20167 -0.67422,-0.73373 -1.32625,-1.18235 l -1.18558,-0.81569 -1.87737,-0.32193 -1.87738,-0.32194 -1.25447,0.32801 -1.25444,0.328 -0.72049,0.85073 c -0.39627,0.4679 -0.72369,0.98498 -0.7276,1.14906 -0.004,0.16408 -0.18791,0.44838 -0.40886,0.63176 -0.22098,0.18338 -0.60082,0.76351 -0.84408,1.28918 -0.24328,0.52565 -0.61918,1.23463 -0.83534,1.57552 -0.30731,0.48463 -2.15217,4.52109 -2.15217,4.70884 0,0.0233 0.40883,0.0424 0.9085,0.0424 0.49966,0 1.03544,0.0785 1.19062,0.17436 l 0.28213,0.17436 v -0.22182 -0.22186 l 2.34336,1.12567 c 1.28886,0.6191 2.49825,1.31226 2.68753,1.54035 l 0.3442,0.41471 -0.29869,0.29866 -0.29866,0.29866 -2.05814,-0.96009 c -1.99721,-0.93165 -3.85649,-1.49201 -4.99452,-1.50529 l -0.55512,-0.006 -0.41976,0.99218 c -0.75949,1.79526 -2.32561,7.53637 -2.3998,8.7974 l -0.0389,0.66146 0.74473,0.0269 c 0.4096,0.0148 1.5699,0.18265 2.57847,0.37293 l 1.83372,0.34603 1.25801,0.73818 c 0.69189,0.40603 1.31977,0.74422 1.39526,0.75155 0.0755,0.007 0.41277,-1.14752 0.74951,-2.56635 z m 24.58167,-0.83235 0.71313,-0.8985 0.85119,-0.35562 0.85119,-0.35566 0.36455,0.13989 0.36454,0.13988 0.30176,-0.66227 c 0.16594,-0.36426 0.51173,-1.64878 0.7684,-2.85449 l 0.46667,-2.19223 -0.005,-2.91042 -0.005,-2.91041 -0.72298,-1.98438 -0.72297,-1.98437 -0.87977,-1.32292 c -0.48384,-0.72761 -1.49529,-1.94066 -2.24763,-2.69568 l -1.3679,-1.37276 -1.41581,-0.81005 c -1.80509,-1.03276 -1.88905,-1.02631 -3.90096,0.29975 -2.85311,1.88054 -6.0978,5.1508 -8.23222,8.29714 -0.88609,1.30617 -0.89615,1.44098 -0.10758,1.44098 1.67071,0 5.12349,1.66467 7.84664,3.78309 l 1.45521,1.13204 1.32291,1.75763 1.32292,1.75763 0.61251,1.71944 0.61254,1.71945 0.15613,1.51286 0.15613,1.51284 0.3642,-0.50218 c 0.20031,-0.2762 0.68511,-0.90649 1.07733,-1.40068 z M 78.570761,258.08868 c 0.362823,-0.69123 1.166284,-2.00208 1.785488,-2.91299 0.619204,-0.91093 1.125802,-1.7527 1.125802,-1.8706 0,-0.40185 -1.858539,-2.38715 -2.751164,-2.93881 l -0.889979,-0.55004 -1.222137,-0.22831 -1.222137,-0.22833 -1.224756,0.22881 -1.22473,0.22881 -1.884097,1.11535 -1.884125,1.11535 -2.050521,2.57972 c -1.127786,1.41882 -2.05052,2.6975 -2.05052,2.84149 v 0.2618 l 0.992187,-0.43188 0.992188,-0.43187 2.513541,1.5e-4 2.513542,1.6e-4 1.5875,0.46382 1.5875,0.46379 1.058333,0.75348 c 0.582083,0.41444 1.177608,0.76327 1.323393,0.77517 l 0.265033,0.0217 z M 193.84758,246.43333 c 0.7036,-1.21879 1.6179,-2.50102 3.76351,-5.27799 l 1.07325,-1.38906 -0.59123,-0.004 c -0.3252,-0.002 -1.06752,-0.17555 -1.6496,-0.38526 l -1.05834,-0.38127 -2.08597,-0.0116 -2.08595,-0.0116 -1.08905,0.28553 c -2.8048,0.73538 -3.29279,0.90774 -4.56531,1.61248 l -1.35961,0.75297 -0.69091,0.90581 c -0.8846,1.15977 -0.90678,1.10889 0.56915,1.30468 2.48705,0.32992 6.82453,2.22128 8.02529,3.49943 l 0.58115,0.61865 0.22299,-0.13782 c 0.12264,-0.0758 0.54592,-0.69721 0.94063,-1.38092 z m 16.96399,-2.95547 2.46182,-2.35918 -0.39582,-0.76541 -0.39579,-0.76541 -1.56993,-0.70454 -1.56993,-0.70454 -1.02524,0.006 -1.02526,0.006 -1.82062,0.64244 -1.8206,0.64244 -1.46793,1.15831 c -0.80738,0.63707 -1.62002,1.38726 -1.80589,1.66708 l -0.33795,0.50878 h 2.1713 2.17128 l 1.35768,0.61439 1.35766,0.61439 0.48844,0.90696 c 0.62281,1.15648 0.36883,1.27193 3.22678,-1.46687 z m -52.54466,-16.99705 -0.87035,-0.22883 -0.28339,-0.71733 -0.2834,-0.71733 0.4081,-2.77812 0.40812,-2.77813 -0.18042,-0.16522 c -0.0992,-0.0909 -0.9543,-0.23883 -1.90019,-0.3288 l -1.71979,-0.16358 -0.0435,2.40222 -0.0435,2.40223 -0.3235,0.78096 -0.32348,0.78095 -0.47548,0.25448 c -0.26152,0.13996 -0.87027,0.25402 -1.35277,0.25348 l -0.8773,-0.001 -0.84302,-0.51402 c -0.46365,-0.28271 -0.99285,-0.78828 -1.17599,-1.12349 l -0.333,-0.6094 0.0375,-3.0672 0.0375,-3.06721 -1.97744,-0.86903 -1.97747,-0.86903 -1.00465,-1.14134 -1.00463,-1.14133 -0.31117,-1.03854 c -0.17114,-0.5712 -0.31115,-1.52848 -0.31115,-2.12729 v -1.08874 l -0.72761,-0.15988 c -0.40018,-0.0879 -1.17649,-0.32833 -1.72513,-0.53421 -0.54864,-0.20588 -1.32255,-0.3743 -1.7198,-0.37427 -0.39724,3e-5 -1.43663,-0.23843 -2.30975,-0.52991 -0.87313,-0.29148 -2.83766,-0.90158 -4.36563,-1.35579 -1.52797,-0.4542 -3.12867,-1.00466 -3.55711,-1.22325 -0.42847,-0.21859 -1.50003,-0.60548 -2.38125,-0.85976 -1.37639,-0.39715 -7.38389,-3.15858 -9.40747,-4.32426 -0.3638,-0.20956 -0.95912,-0.51075 -1.32292,-0.6693 -0.79626,-0.34703 -5.25886,-3.20331 -5.97421,-3.82379 -2.31312,-2.00636 -3.12304,-2.80837 -3.58661,-3.55169 l -0.5361,-0.85957 -0.61542,0.15446 -0.61545,0.15447 -0.51737,-0.2769 -0.51739,-0.27689 -0.28974,-1.53154 c -0.15934,-0.84235 -0.35695,-2.42451 -0.43911,-3.51592 -0.20513,-2.72459 -1.067406,-8.54461 -1.411232,-9.525 l -0.139171,-0.39687 0.507894,0.44428 0.507869,0.44428 0.006,-1.37032 c 0.007,-1.48775 0.48734,-7.53651 0.9184,-11.55678 0.26916,-2.51024 0.62669,-4.34352 1.62544,-8.33438 0.29133,-1.16416 0.69715,-2.9501 0.90181,-3.96875 0.5639,-2.80665 0.83582,-3.81942 1.12082,-4.17469 0.14262,-0.17777 0.58677,-1.27572 0.98701,-2.43989 0.40021,-1.16417 0.93858,-2.71198 1.19639,-3.43958 0.25778,-0.72761 1.33495,-3.04933 2.39371,-5.15938 l 1.925,-3.83646 1.9313,-2.95735 c 1.06223,-1.62654 2.04669,-3.02864 2.18766,-3.11577 0.14097,-0.0871 0.60269,-0.67164 1.02605,-1.29893 l 0.7697,-1.14051 -0.38838,-0.50622 c -0.98975,-1.29006 -3.19588,-7.16583 -3.77521,-10.0549 -0.17248,-0.8601 -0.42246,-2.0996 -0.55554,-2.75445 -0.39458,-1.9419 -0.75079,-4.98272 -0.9143,-7.8052 l -0.15327,-2.645837 -0.42426,-0.838078 -0.42423,-0.838076 0.33938,-1.146299 c 0.18666,-0.630462 0.69744,-1.979734 1.13506,-2.99838 0.43762,-1.018646 1.19862,-2.838439 1.69108,-4.043984 0.4925,-1.205545 1.29763,-2.812889 1.78917,-3.571875 l 0.89376,-1.379974 2.35659,-2.248958 c 1.29614,-1.236928 2.94881,-2.667921 3.67263,-3.179988 l 1.31604,-0.931031 -0.0388,-0.78876 c -0.0214,-0.433819 0.0768,-1.443607 0.21809,-2.243971 l 0.25697,-1.455209 0.76747,-1.373333 0.76745,-1.373333 -0.50588,-0.160559 -0.50588,-0.160558 -1.4822,-1.905693 c -1.62446,-2.088586 -3.31983,-4.752493 -4.07781,-6.407353 -0.26755,-0.584145 -0.6813,-1.223801 -0.91948,-1.421461 -0.23815,-0.197657 -0.43302,-0.507336 -0.43302,-0.688176 0,-0.180837 -0.22079,-0.612743 -0.49067,-0.959789 -0.2699,-0.347046 -0.64174,-1.107244 -0.82634,-1.689328 -0.1846,-0.582083 -0.53986,-1.296458 -0.78944,-1.5875 -0.62248,-0.725921 -1.44714,-2.195176 -1.85626,-3.307291 -0.18738,-0.509323 -0.67088,-1.699948 -1.07445,-2.645834 -2.07952,-4.873932 -5.81075,-14.879859 -5.81075,-15.582545 0,-0.170868 -0.52737,-1.646023 -1.17195,-3.278124 -0.64455,-1.632101 -1.48143,-3.919955 -1.8597,-5.084122 -0.37828,-1.164167 -0.85111,-2.414323 -1.05074,-2.778125 -0.19963,-0.363802 -0.50329,-1.19724 -0.67482,-1.852083 -0.17153,-0.654844 -0.61518,-1.81804 -0.98592,-2.584876 l -0.67405,-1.394254 0.17523,-1.548802 0.17524,-1.548799 -0.5638,-1.422572 -0.563804,-1.422572 0.02117,-1.58886 c 0.01164,-0.8738713 0.126384,-2.1521249 0.255004,-2.8405631 l 0.23386,-1.2517053 -0.692752,0.151135 c -0.381027,0.083124 -1.141651,0.3195815 -1.690291,0.5254604 l -0.997532,0.3743253 -1.51601,-0.00175 -1.516009,-0.00175 -0.681699,-0.4612775 C 92.993066,6.4790635 92.147379,5.8250043 91.488698,5.2793012 90.829992,4.733598 90.175466,4.2871137 90.034178,4.2871137 c -0.141314,0 -0.843042,-0.4167188 -1.559401,-0.9260417 -0.716386,-0.5093229 -1.393402,-0.9260416 -1.5045,-0.9260416 -0.111099,0 -0.794862,-0.4167188 -1.519502,-0.9260417 -0.724615,-0.5093229 -1.387793,-0.92604164 -1.473703,-0.92604164 -0.234262,0 -4.909053,-3.18247626 -5.670047,-3.86001336 -0.363802,-0.32391 -1.332204,-1.0464313 -2.152015,-1.6056028 -3.570896,-2.4355938 -8.032142,-6.4888049 -10.396617,-9.4456929 l -1.239335,-1.54985 0.08096,-0.696846 0.08096,-0.696845 0.482574,-0.09157 0.482573,-0.09157 1.68529,1.544519 c 0.926889,0.849486 2.019432,1.806427 2.427843,2.126536 1.563899,1.225759 3.428815,2.733322 4.41878,3.572077 0.566711,0.4801448 1.534451,1.2301777 2.150533,1.6667402 0.616056,0.4365625 1.723046,1.27 2.459937,1.8520833 1.382395,1.0919621 2.384769,1.7309031 5.339345,3.4034266 2.0184,1.1425645 2.100368,1.1924043 5.026792,3.05603645 1.237086,0.78780877 2.57683,1.70297105 2.977171,2.03369415 0.400341,0.3307228 1.412372,0.9468355 2.248958,1.3691393 l 1.521037,0.7678248 0.663178,-0.1817174 c 0.364755,-0.099945 1.02444,-0.368536 1.465977,-0.5968696 0.441563,-0.2283338 1.752653,-0.7226281 2.913534,-1.0984322 l 2.11074,-0.6832799 1.22346,-0.99220279 c 0.67291,-0.54571159 1.99951,-1.58751531 2.94796,-2.31511951 0.94845,-0.7276041 1.90392,-1.6223032 2.12328,-1.9882201 l 0.39881,-0.6653036 -0.57611,-0.95457 c -0.89921,-1.4899447 -7.08279,-6.9533837 -8.96321,-7.9193707 -0.331884,-0.170495 -0.96064,-0.63234 -1.397202,-1.026322 -0.436563,-0.393983 -1.448594,-1.117868 -2.248959,-1.608634 -0.800364,-0.490766 -1.791758,-1.166161 -2.203106,-1.500878 l -0.747897,-0.608576 h 4.350438 4.350436 l 1.41515,1.25677 c 2.40707,2.137697 6.57542,6.401217 7.25995,7.4257195 0.35825,0.536141 0.89869,1.2819313 1.20097,1.6573118 l 0.54962,0.6825099 0.25165,1.1199905 0.25164,1.1199905 -0.4912,1.1079163 c -0.27019,0.6093536 -0.68918,1.2713226 -0.93109,1.471042 -0.70073,0.5784458 -0.53581,0.739775 1.08146,1.0580346 l 1.52135,0.2993829 1.5875,0.7534889 1.5875,0.75348913 1.14744,1.24950937 1.14745,1.2495096 0.6385,1.4437529 0.63849,1.4437532 v 0.8539096 0.8539096 l 0.8599,0.3594484 c 0.47293,0.1976964 1.33615,0.5840637 1.91822,0.8585954 l 1.05833,0.4991496 1.05834,1.6526193 c 0.58208,0.908942 1.25039,2.146316 1.4851,2.749722 0.23472,0.603403 0.85598,1.803657 1.38057,2.667227 l 0.9538,1.570131 0.38589,1.434578 c 0.21225,0.789019 0.68302,2.177582 1.04619,3.085698 0.87135,2.178915 2.02449,5.757751 2.02449,6.283087 0,0.229769 0.30287,1.015442 0.67304,1.745943 l 0.67305,1.328182 0.27766,1.507291 c 0.15271,0.829011 0.49328,1.983544 0.75684,2.565628 0.26352,0.582083 0.65936,1.653646 0.8796,2.38125 1.49228,4.929693 1.83616,5.964695 2.01946,6.077982 0.11348,0.07014 0.4704,0.993468 0.79317,2.051851 0.32279,1.058384 0.85606,2.638708 1.18509,3.511833 0.87384,2.318933 2.26251,6.452368 2.57776,7.672917 0.15037,0.582083 0.43783,1.631997 0.63884,2.333143 l 0.36544,1.27481 -0.37206,0.890429 -0.37203,0.890429 -0.80144,0.414449 c -0.44082,0.227946 -1.03436,0.414448 -1.319,0.414448 h -0.51752 l 0.13128,0.502118 0.13132,0.502116 -0.2902,0.542235 c -0.1596,0.29823 -0.77954,1.107633 -1.37763,1.798674 l -1.08744,1.25644 0.49395,0.194154 c 0.27168,0.106783 0.80351,0.202523 1.18187,0.212749 l 0.68792,0.0186 1.07555,0.779134 1.07556,0.779132 0.18039,0.568418 0.18042,0.568417 0.96655,-0.198879 c 0.53158,-0.109381 1.62137,-0.222721 2.42173,-0.251862 0.80036,-0.02914 2.40771,-0.134946 3.57188,-0.235119 l 2.11667,-0.182137 1.5875,0.421362 1.5875,0.421362 1.85208,1.104371 c 1.9146,1.141638 3.96909,2.511817 5.21282,3.476509 0.39317,0.304974 1.26536,0.971219 1.9382,1.480542 l 1.22336,0.926042 1.10448,1.456351 c 0.60745,0.800992 1.46166,1.991206 1.89822,2.64492 0.43656,0.653714 1.18983,1.71608 1.67394,2.360814 0.4841,0.644734 1.46926,2.368354 2.18919,3.830264 l 1.309,2.658023 0.5361,1.859187 c 0.29485,1.022554 0.82776,2.551647 1.18425,3.397983 0.3565,0.846339 0.64814,1.739411 0.64814,1.984605 V 99.1407 l 3.37344,0.771702 3.37343,0.771698 1.85208,0.7758 c 3.64371,1.52627 4.99833,2.19074 6.19369,3.03815 0.66713,0.47294 1.35804,0.8599 1.53533,0.8599 0.17733,0 0.71348,0.34068 1.19147,0.75706 0.47803,0.41638 1.23159,0.94256 1.67461,1.16928 l 0.80549,0.41223 2.89867,2.88351 c 1.59428,1.58594 3.33214,3.41124 3.86194,4.05624 0.5298,0.645 1.25608,1.52991 1.61396,1.96647 0.87826,1.07135 2.84673,4.22469 2.84673,4.56026 0,0.14835 0.19693,0.43314 0.43759,0.63286 0.2407,0.19972 0.77634,1.11811 1.19036,2.04085 0.41402,0.92275 0.98425,1.97199 1.26715,2.33164 0.28289,0.35965 0.65406,1.09296 0.82484,1.62957 0.17072,0.53661 0.65378,1.70705 1.07337,2.60098 0.41961,0.89393 0.76293,1.76104 0.76293,1.9269 0,0.16587 0.46702,1.51807 1.03777,3.00489 0.57079,1.48681 1.18132,3.35814 1.35677,4.15851 0.17542,0.80036 0.46673,1.87192 0.64735,2.38125 0.18064,0.50932 0.41529,1.52135 0.52147,2.24896 0.10617,0.7276 0.31115,1.5436 0.45548,1.81332 0.28117,0.52544 0.61306,2.45741 1.0066,5.85959 0.13465,1.16417 0.37071,3.06917 0.52457,4.23334 0.15385,1.16416 0.46413,4.08119 0.6895,6.48229 l 0.40973,4.36562 0.0937,5.68854 0.0937,5.68855 -0.2491,2.91041 c -0.13703,1.60073 -0.37473,3.26761 -0.52824,3.70417 l -0.27911,0.79375 -0.10396,3.1304 -0.10395,3.1304 -1.23851,3.74877 c -1.25638,3.80284 -2.24574,6.48952 -4.05982,11.0248 l -1.00539,2.51354 -0.5749,0.0865 -0.5749,0.0865 -0.34748,-0.2884 -0.34751,-0.28839 -2.6145,0.94635 c -2.55453,0.92464 -4.85828,1.622 -6.18638,1.87264 -1.59518,0.30105 -6.4162,1.16186 -8.59896,1.53538 l -2.38125,0.40748 -5.29167,0.19573 c -2.91041,0.10765 -5.64885,0.18216 -6.08541,0.16557 -0.43657,-0.0166 -2.60488,-0.11182 -4.81852,-0.21161 l -4.02476,-0.18144 0.15536,1.31174 0.15537,1.31174 -0.45241,0.75848 c -0.90393,1.51549 -3.11317,2.46843 -5.73815,2.47513 l -1.22936,0.003 -0.32923,2.3151 -0.32919,2.31511 -0.39415,0.86904 -0.39415,0.86905 -0.55459,0.29681 c -0.30504,0.16325 -0.91459,0.37654 -1.35456,0.47399 l -0.8,0.17717 z m 2.77426,-2.38584 0.31645,-0.95179 0.0804,-1.94105 0.0805,-1.94106 -1.11572,-0.0809 -1.11572,-0.0809 -0.16672,0.74239 c -0.0917,0.40831 -0.27358,1.15911 -0.40415,1.66843 -0.1306,0.50932 -0.2381,1.54239 -0.23892,2.2957 l -0.003,1.36966 0.46302,0.1 c 0.25466,0.055 0.76067,0.026 1.12448,-0.0643 l 0.66145,-0.16429 z m -9.0415,-0.21364 c 0.1537,-0.24871 0.63357,-5.31797 0.51914,-5.4842 -0.0991,-0.14388 -3.11809,-0.86479 -3.21513,-0.76774 -0.0556,0.0556 -0.009,1.39472 0.10379,2.97592 l 0.20479,2.8749 0.66146,0.33393 c 0.80751,0.40765 1.49889,0.43457 1.72595,0.0672 z m 15.11464,-6.47633 0.83334,-0.14231 0.29112,-0.3508 0.29114,-0.35081 0.16939,-1.62064 0.16941,-1.62065 -0.36782,-0.1268 c -0.20228,-0.0697 -1.3203,-0.18746 -2.48446,-0.26158 -2.75368,-0.17534 -8.36946,-0.85866 -10.05417,-1.22338 -1.38301,-0.29941 -1.81131,-0.37369 -4.63021,-0.80301 -0.94589,-0.14406 -2.67229,-0.48536 -3.83646,-0.75846 -1.16416,-0.27309 -2.51391,-0.56555 -2.99947,-0.64991 l -0.88281,-0.15339 0.1865,1.12245 c 0.30546,1.83862 1.11385,3.06594 2.1163,3.21307 0.23714,0.0348 0.51096,0.18712 0.60846,0.33847 1.22552,1.9024 15.51755,4.25394 20.58974,3.38775 z m 23.64066,-7.24284 c 4.27773,-0.34621 7.16298,-0.7024 8.59895,-1.06156 1.18034,-0.29521 2.32593,-0.55349 5.82801,-1.31394 l 2.38839,-0.51862 1.49924,-0.66304 1.49923,-0.66303 0.64463,-2.20399 c 0.35454,-1.2122 0.849,-3.21602 1.09876,-4.45295 0.24977,-1.23693 0.5582,-2.51469 0.68538,-2.83947 0.12721,-0.32478 0.30337,-1.39634 0.39148,-2.38125 0.18574,-2.07608 0.87685,-5.84269 1.17816,-6.42095 l 0.2068,-0.39687 0.15179,-8.73125 0.15182,-8.73125 -0.26665,-4.36563 c -0.49855,-8.16236 -0.90702,-11.14351 -2.25004,-16.42152 -0.20608,-0.80991 -0.3747,-1.80404 -0.3747,-2.20918 0,-0.81005 -0.91996,-4.4003 -1.97102,-7.69213 -0.37115,-1.1624 -0.67482,-2.27934 -0.67482,-2.48209 0,-0.37925 -1.57334,-4.18884 -2.93505,-7.1067 -0.42301,-0.90644 -0.76911,-1.81131 -0.76911,-2.01082 0,-0.19951 -0.3524,-0.84921 -0.78309,-1.44378 -0.43072,-0.59457 -0.95168,-1.47564 -1.15771,-1.95793 -0.20601,-0.48229 -0.98161,-1.71033 -1.7235,-2.72897 -0.74189,-1.01865 -1.61991,-2.24582 -1.95114,-2.72705 -2.05785,-2.9897 -6.62091,-7.37567 -9.13508,-8.78058 -0.61847,-0.3456 -1.12448,-0.72844 -1.12448,-0.85077 0,-0.12232 -0.32743,-0.34566 -0.72761,-0.49631 -0.69786,-0.26271 -2.13317,-0.91932 -4.94673,-2.263 -0.7198,-0.34375 -1.46711,-0.625 -1.66071,-0.625 -0.19362,0 -1.29913,-0.31971 -2.45671,-0.71045 -2.51542,-0.84909 -2.47361,-0.87617 -2.11481,1.36993 l 0.28519,1.78511 -0.16126,1.57589 c -0.20905,2.04312 -0.72178,3.46165 -1.69574,4.69138 l -0.78502,0.99115 -1.53339,0.80952 c -0.84339,0.44523 -2.51889,1.13336 -3.72335,1.52917 l -2.18993,0.71966 -1.24965,0.004 -1.24966,0.004 -0.69866,-0.28214 -0.69863,-0.28213 -0.34176,-1.33341 -0.34174,-1.33342 -0.5471,0.12787 -0.54711,0.12786 -0.28202,-0.20107 c -0.1551,-0.11058 -0.74057,-0.89823 -1.30101,-1.75031 -2.45282,-3.72918 -6.25842,-6.5015 -8.94694,-6.51769 -0.26167,-0.002 -0.96866,-0.24099 -1.57104,-0.53203 -1.57533,-0.76111 -2.9265,-0.43919 -6.94899,1.65558 -2.30232,1.19898 -2.69608,1.39082 -4.93633,2.40495 l -2.02594,0.91712 -1.54805,1.41378 c -0.85143,0.7776 -2.54265,2.18771 -3.75825,3.13359 -2.47097,1.92271 -5.51283,4.8334 -6.91372,6.61562 -0.50932,0.64796 -1.68079,2.01413 -2.60329,3.03593 -0.92249,1.02181 -1.96749,2.39361 -2.32225,3.04845 -0.35472,0.65484 -1.0287,1.68141 -1.49772,2.28125 -0.46903,0.59984 -1.38856,2.02247 -2.04341,3.1614 -1.78723,3.10843 -1.98969,3.45216 -2.42937,4.12469 -0.22262,0.34052 -0.49427,0.91678 -0.60365,1.28058 -0.10941,0.3638 -0.55732,1.37583 -0.99536,2.24896 -1.0718,2.13632 -2.5862,5.91638 -2.5862,6.45543 0,0.23969 -0.37454,1.38559 -0.83233,2.54643 -0.45778,1.16085 -0.92617,2.64642 -1.04092,3.30126 -0.11472,0.65484 -0.34491,1.78594 -0.51152,2.51354 -0.48935,2.13687 -1.29119,7.10226 -1.85862,11.50938 l -0.528,4.10104 -0.01,7.60883 -0.01,7.60883 0.17291,0.27976 0.17288,0.27976 0.43677,-0.38329 c 0.73827,-0.64788 2.5753,-1.47674 3.91975,-1.76856 0.70374,-0.15275 1.41515,-0.32535 1.58096,-0.38356 l 0.30144,-0.10583 -0.62373,-1.30329 -0.62372,-1.3033 -0.23927,-2.61884 -0.23923,-2.61884 0.0983,-2.64584 c 0.27453,-7.3932 1.60071,-12.76706 5.57295,-22.58262 1.0982,-2.71372 2.52611,-6.24373 3.17309,-7.84446 3.73751,-9.24683 6.08209,-14.43568 6.69354,-14.81358 l 0.26958,-0.16661 v 0.2852 c 0,0.15686 -0.35488,0.95027 -0.78867,1.76315 -0.74689,1.39963 -2.69319,6.07775 -3.72893,8.96285 -0.26125,0.72773 -1.26669,3.34722 -2.23433,5.82107 -3.60214,9.20938 -4.12202,10.57743 -5.01451,13.19574 -0.50229,1.4736 -1.26188,4.11076 -1.68796,5.86036 l -0.7747,3.1811 -0.16812,2.50744 c -0.0925,1.3791 -0.2254,3.5704 -0.29538,4.86958 l -0.12724,2.36212 0.27416,2.26808 0.27419,2.26808 0.57481,1.10175 0.57478,1.10174 7.55314,-0.0434 c 6.80886,-0.0391 14.61246,0.19634 16.01427,0.48324 0.29409,0.0602 1.66579,0.17373 3.04824,0.25233 2.58017,0.14668 9.08042,0.8559 9.78959,1.0681 0.21828,0.0653 1.05029,0.19094 1.84888,0.27916 1.41621,0.15644 1.79308,0.27544 1.56866,0.49532 -0.0606,0.0594 -1.47947,0.004 -3.15296,-0.12281 -1.67349,-0.12694 -5.1263,-0.35936 -7.67292,-0.51647 -2.54661,-0.15711 -4.98739,-0.35096 -5.42396,-0.43076 -0.43656,-0.0798 -5.51809,-0.19582 -11.29233,-0.25782 l -10.49859,-0.11273 -0.15002,0.24276 -0.15004,0.24275 0.92673,0.81368 0.92672,0.81368 6.19332,3.08742 c 3.40632,1.69808 6.53103,3.36002 6.94378,3.6932 l 0.75043,0.60578 -0.92604,-0.21046 c -1.29497,-0.29431 -6.16561,-2.41521 -9.78574,-4.26119 l -3.04655,-1.55348 -1.77887,-1.46766 -1.77888,-1.46766 -0.60237,0.003 c -0.97663,0.006 -3.79958,0.97879 -4.95544,1.70846 l -1.0709,0.67602 v 0.32703 0.32704 l 1.90334,1.78631 c 1.04682,0.98247 2.04972,1.78631 2.22866,1.78631 0.17891,0 0.66233,0.26789 1.07421,0.59532 0.82381,0.65485 1.16435,0.85584 3.27948,1.93546 0.78992,0.40318 1.61478,0.87529 1.83306,1.04913 0.21828,0.17384 2.00422,0.93842 3.96875,1.69907 1.96453,0.76065 4.40531,1.74043 5.42396,2.17728 1.01865,0.43686 2.50693,0.95648 3.30729,1.15472 0.80037,0.19824 2.70537,0.76613 4.23334,1.26198 1.52796,0.49585 3.23662,0.98524 3.79698,1.08753 0.56033,0.1023 1.39377,0.34434 1.85208,0.53789 0.45829,0.19354 1.60713,0.49065 2.55302,0.66023 0.94588,0.16958 2.07698,0.41409 2.51354,0.54335 1.21396,0.35943 5.52958,1.248 8.33438,1.71603 4.34498,0.72503 6.99732,1.1305 7.40833,1.13253 0.21828,0.001 1.23031,0.12676 2.24896,0.2793 3.10144,0.46443 6.7569,0.89158 8.58472,1.00316 0.95372,0.0582 2.67137,0.15891 3.81701,0.22375 1.14562,0.0648 2.11799,0.1529 2.16083,0.19569 0.0428,0.0428 2.61781,0.0601 5.72222,0.0385 l 5.64438,-0.0393 z m -10.26459,-4.55936 0.12088,-0.36465 1.56613,-0.17329 c 0.86137,-0.0953 3.22455,-0.18797 5.25153,-0.20592 l 3.6854,-0.0326 1.9939,-0.41185 c 2.2102,-0.45653 3.5623,-0.88121 5.41557,-1.70101 l 1.23952,-0.5483 -0.14946,-0.24182 c -1.00512,-1.62633 -18.14676,-7.65686 -25.13076,-8.84114 -0.58208,-0.0987 -1.50841,-0.29682 -2.05848,-0.44024 l -1.00018,-0.26078 0.13234,-0.21416 0.13237,-0.21416 1.39698,0.1084 c 1.67603,0.13005 6.4829,1.02762 8.14385,1.52066 0.65484,0.19439 1.905,0.56043 2.77812,0.81342 4.63899,1.34417 9.90312,3.41911 14.45956,5.69943 l 2.55328,1.27783 1.44457,-1.51449 c 1.57663,-1.65292 2.17186,-2.64019 2.71889,-4.50959 l 0.35782,-1.22286 0.13163,-2.38125 c 0.0724,-1.30968 0.20447,-5.23875 0.2935,-8.73125 0.089,-3.4925 0.21728,-6.61789 0.28501,-6.94531 l 0.12311,-0.59531 h 0.36354 0.36351 l 0.16764,0.43682 0.16762,0.43683 -0.15066,3.0689 c -0.0829,1.6879 -0.19902,3.68973 -0.25815,4.44852 -0.0591,0.75879 -0.12893,2.84238 -0.1551,4.63021 -0.0262,1.78783 -0.15526,4.13016 -0.28681,5.20518 l -0.23924,1.95458 -0.88093,1.88188 -0.88095,1.88187 -1.26992,1.25102 -1.26992,1.25102 0.76541,0.60107 c 2.50224,1.96493 2.47134,2.21923 -0.11163,0.91849 l -1.68113,-0.8466 -2.03478,0.9891 -2.03475,0.9891 -2.10495,0.5626 -2.10492,0.56261 -6.1849,0.13586 -6.18492,0.13586 z m -13.6802,-2.55297 c -1.65534,-0.0747 -12.34893,-1.48422 -14.4198,-1.90063 -0.65484,-0.13168 -2.38125,-0.44239 -3.83645,-0.69045 -3.35966,-0.57272 -6.12781,-1.27639 -8.41368,-2.1388 l -1.79911,-0.67875 -0.78057,-0.65681 -0.7806,-0.65682 v -0.63114 -0.63114 l 0.75136,-0.38855 c 0.41325,-0.2137 1.57411,-0.54372 2.57969,-0.73338 l 1.82832,-0.34483 7.14375,0.004 7.14375,0.004 2.24896,0.3471 c 7.1148,1.09806 12.18314,2.67401 15.47812,4.81278 0.58209,0.37782 1.50321,0.89219 2.04695,1.14304 l 0.98862,0.45608 0.2672,0.49928 0.26723,0.49928 -0.16248,0.42339 c -0.0893,0.23287 -0.38904,0.54466 -0.66598,0.69286 l -0.5035,0.26947 -0.25366,-0.15676 -0.25363,-0.15676 -0.60079,0.33069 -0.60079,0.33068 -3.04271,0.0123 c -1.67349,0.007 -3.75708,-0.02 -4.6302,-0.0594 z m 24.87083,-12.9726 c -0.43656,-0.27831 -1.03145,-0.77324 -1.32202,-1.09985 l -0.52827,-0.59384 0.044,-1.13581 0.0439,-1.13581 0.41122,-0.79522 c 0.22619,-0.43738 0.88762,-1.20301 1.46989,-1.7014 l 1.05868,-0.90618 0.93239,-0.28616 0.93239,-0.28616 0.12134,0.19634 0.12134,0.19634 -1.57763,1.02096 -1.57763,1.02096 -0.52782,1.09035 c -0.60471,1.24915 -0.64519,1.69913 -0.23408,2.60145 l 0.29377,0.64473 0.64471,0.29376 c 0.35462,0.16157 1.08776,0.29376 1.6292,0.29376 h 0.98449 l 0.98456,-0.66905 0.9846,-0.66905 0.39976,-0.77302 c 0.21984,-0.42516 0.39973,-1.06984 0.39973,-1.43262 v -0.65962 l -0.59531,-0.41837 c -0.32742,-0.2301 -1.0464,-0.49093 -1.59772,-0.57962 l -1.00242,-0.16125 0.0969,-0.29528 0.0969,-0.29527 1.04638,-0.0786 1.04637,-0.0786 0.91745,0.61635 0.91741,0.61635 0.0686,1.0497 0.0686,1.0497 -0.6,1.04732 -0.59999,1.04733 -1.10363,0.77566 -1.10363,0.77566 -1.2754,0.10997 -1.27537,0.10997 z m -30.82396,-4.56718 -2.24896,-0.20758 -1.22809,-0.39577 c -0.67545,-0.21767 -2.11254,-0.87267 -3.19355,-1.45554 l -1.96545,-1.05978 -3.28875,-0.68671 c -1.80879,-0.37769 -3.64593,-0.81447 -4.08249,-0.97061 -0.43656,-0.15615 -1.38906,-0.43904 -2.11667,-0.62864 -1.90786,-0.49715 -4.43354,-1.44872 -4.89479,-1.84414 -0.21828,-0.18713 -1.25383,-0.75788 -2.30127,-1.26834 -2.30113,-1.12144 -3.01262,-1.63861 -5.5496,-4.03395 l -1.9616,-1.85208 -1.21346,-1.80695 -1.21346,-1.80694 -0.50985,-1.63264 -0.50985,-1.63264 -0.003,-1.60785 c -0.003,-1.85467 0.1147,-2.46848 0.95036,-5.00673 0.33536,-1.01865 0.81164,-2.50048 1.05839,-3.29295 l 0.44865,-1.44086 0.0577,-3.8508 0.0577,-3.85081 0.60347,-1.85208 c 0.33192,-1.01865 0.71337,-2.03068 0.8477,-2.24896 0.1343,-0.21828 0.32054,-0.57547 0.41386,-0.79375 1.63467,-3.82367 3.09792,-5.89356 6.83842,-9.67343 l 2.38125,-2.40633 2.38125,-1.59151 2.38125,-1.59152 1.71979,-0.68413 c 1.7731,-0.70536 3.42865,-1.13273 7.54062,-1.94655 l 2.38125,-0.47129 3.03319,0.0442 c 5.30032,0.0772 13.16463,1.62483 14.94925,2.94195 0.1506,0.11114 0.80959,0.36588 1.46444,0.56609 0.65484,0.20021 1.6052,0.63837 2.11193,0.9737 0.50673,0.33533 1.061,0.60969 1.23174,0.60969 1.50484,0 8.34816,7.22988 9.87859,10.4366 l 0.79235,1.66022 0.4115,1.95524 c 0.22633,1.07538 0.47377,2.72914 0.54983,3.67502 0.23562,2.92983 0.59762,4.50329 1.67061,7.26124 0.56933,1.46335 1.23354,3.31548 1.476,4.11585 l 0.44085,1.45521 0.26623,2.91041 0.26622,2.91042 -0.11197,2.05925 -0.11197,2.05926 -1.34948,2.70324 -1.34948,2.70325 -1.27461,1.32292 -1.2746,1.32291 -1.18949,0.57881 c -1.64775,0.80181 -3.07896,1.40478 -3.34613,1.40972 -0.12354,0.002 -0.81989,0.54591 -1.5475,1.20806 -0.7276,0.66215 -2.03729,1.7535 -2.91041,2.42521 l -1.5875,1.22131 -2.16771,1.01586 -2.1677,1.01587 -2.46251,0.49708 -2.4625,0.49709 -2.38125,0.1219 -2.38125,0.12189 z m 10.18646,-2.59617 c 3.50956,-0.83398 5.87946,-2.11517 8.582,-4.63944 1.73042,-1.61631 2.42202,-2.07144 3.85341,-2.53596 1.44265,-0.46817 3.56857,-1.85555 4.45188,-2.9053 0.98611,-1.17194 0.80669,-1.21443 -1.17316,-0.27781 l -1.69122,0.80008 -0.94159,2e-4 -0.94163,2.1e-4 -0.41701,0.33073 c -0.22937,0.1819 -0.48083,0.50933 -0.55885,0.72761 l -0.14185,0.39687 -0.0209,-0.69929 -0.0209,-0.6993 0.41852,-0.1606 c 0.23019,-0.0883 0.71027,-0.1606 1.06688,-0.1606 0.35658,0 1.62599,-0.37702 2.82091,-0.83783 l 2.17257,-0.83783 0.67794,-0.68352 0.67794,-0.68353 0.6376,-1.98437 0.63761,-1.98438 -0.008,-2.91041 -0.008,-2.91042 -0.42217,-2.24896 c -0.38296,-2.04009 -1.52405,-5.53404 -2.02864,-6.21159 -0.58737,-0.78868 -1.27008,-3.46297 -1.49108,-5.84068 -0.0439,-0.47238 -0.16317,-1.5555 -0.26509,-2.40694 l -0.18524,-1.54808 -0.92151,-2.24896 -0.92152,-2.24896 -0.87564,-1.19062 c -2.02089,-2.74786 -7.17431,-7.02312 -9.42141,-7.81594 -0.53227,-0.1878 -1.36446,-0.54659 -1.84931,-0.79732 -1.38663,-0.71706 -6.68451,-1.96944 -12.91992,-3.05416 l -1.96736,-0.34225 -3.98577,-0.0144 -3.98581,-0.0144 -1.71979,0.73333 c -2.50288,1.06725 -5.69735,2.96548 -7.71679,4.58553 l -1.76368,1.41486 -2.07278,2.36281 c -3.27638,3.73484 -5.90756,8.38092 -6.68573,11.80555 l -0.30059,1.32292 0.0196,1.85208 c 0.0109,1.01865 0.0135,2.74207 0.006,3.82983 l -0.0135,1.97775 -1.21081,3.51587 -1.21079,3.51588 v 1.8395 1.8395 l 1.1243,2.11008 1.12429,2.11008 0.94956,0.91598 c 3.03784,2.93037 7.01474,5.8221 8.49019,6.17346 0.3638,0.0866 0.95912,0.31733 1.32292,0.51266 0.62963,0.33804 3.38997,1.36121 4.23333,1.56917 0.21828,0.0538 1.94469,0.47271 3.83646,0.93088 l 3.43958,0.83302 2.77813,1.31368 c 1.52797,0.72253 3.01625,1.42073 3.30729,1.55157 0.29104,0.13084 1.24354,0.35472 2.11667,0.4975 l 1.5875,0.25962 3.70416,-0.11595 3.70417,-0.11595 z m 5.68854,-5.39394 c 0.3638,-0.16391 1.60711,-0.74809 2.76291,-1.29818 2.02846,-0.96541 2.65705,-1.14009 1.92934,-0.53613 -0.46593,0.38668 -4.65796,2.17288 -5.04642,2.15024 -0.16902,-0.01 -0.01,-0.15202 0.35417,-0.31593 z m -24.47396,-0.97054 c -1.2473,-0.21192 -1.93722,-0.55847 -2.62511,-1.31857 l -0.50253,-0.55529 0.17074,-0.17076 0.17076,-0.17076 0.70591,0.70591 0.70593,0.70592 1.34861,0.37585 c 0.74173,0.20673 1.58673,0.42907 1.87778,0.49411 l 0.52916,0.11825 -0.66146,-0.002 c -0.3638,-10e-4 -1.1377,-0.0833 -1.71979,-0.18223 z m 14.8299,-0.5031 c 0.13824,-0.12099 0.78713,-0.36711 1.44198,-0.54693 1.56776,-0.4305 5.80368,-2.16627 5.97905,-2.45005 0.0757,-0.12244 0.37574,-0.22262 0.66678,-0.22262 h 0.52916 l -0.15041,0.24336 c -0.51724,0.83689 -6.40511,3.19622 -7.97642,3.19622 h -0.7415 z m -33.28228,-6.24086 -1.45717,-1.187 -0.82698,-1.24852 -0.82701,-1.24853 0.0307,-0.54995 0.0307,-0.54995 0.131,0.51481 c 0.32739,1.28694 2.10333,3.36504 4.025,4.70984 0.35502,0.24844 0.57923,0.518 0.49821,0.599 -0.081,0.081 -0.80301,-0.38686 -1.60443,-1.0397 z m 48.33281,0.6683 c 0.0996,-0.16108 0.33031,-0.29288 0.51276,-0.29288 1.1235,0 5.09347,-2.5783 6.12704,-3.97921 l 0.65373,-0.88609 -0.009,-0.94079 -0.009,-0.94078 -0.37814,-0.66146 c -0.20797,-0.3638 -0.38235,-0.82874 -0.38749,-1.0332 l -0.009,-0.37173 0.56568,0.50403 c 0.31113,0.27721 0.73128,0.89533 0.93364,1.3736 l 0.36795,0.86957 -0.27453,1.01955 -0.27453,1.01956 -1.25442,1.23069 -1.25441,1.23068 -1.85208,0.89924 c -1.01865,0.49458 -2.25394,0.97863 -2.74508,1.07567 l -0.893,0.17643 z m -42.62427,-3.27048 c -0.29207,-0.32685 -0.80978,-1.01099 -1.15049,-1.52031 -0.34067,-0.50933 -0.83642,-1.13904 -1.10162,-1.39937 -0.51474,-0.50531 -0.64955,-1.24647 -0.22672,-1.24647 0.29226,0 3.2993,4.47095 3.12457,4.64568 -0.0631,0.0631 -0.35369,-0.15268 -0.64574,-0.47953 z m 22.26884,-2.3335 c -0.43656,-0.12996 -1.15094,-0.52705 -1.5875,-0.88243 l -0.79375,-0.64614 0.31716,-0.32366 0.31713,-0.32366 0.63637,0.41696 c 0.34999,0.22933 1.06625,0.49761 1.59166,0.59617 l 0.9553,0.17922 0.2911,0.35074 0.29109,0.35075 -0.52887,0.28303 c -0.29086,0.15568 -0.56645,0.2723 -0.61238,0.25918 -0.046,-0.0131 -0.44075,-0.1302 -0.87731,-0.26016 z m -29.21627,-2.16728 -0.64127,-0.32682 -0.63847,-1.19063 -0.63846,-1.19062 0.11708,-1.74614 0.1171,-1.74614 0.76571,-1.40685 0.7657,-1.40685 1.28064,-0.56518 1.28063,-0.56518 -0.4626,-0.38287 c -0.25442,-0.21059 -0.67923,-0.85913 -0.94403,-1.44121 l -0.48141,-1.05833 -0.006,-1.74682 -0.006,-1.7468 0.60002,-0.89903 0.60005,-0.89902 0.85516,-0.37848 0.85519,-0.37848 0.006,-0.67985 c 0.003,-0.37392 0.23132,-1.17659 0.50699,-1.78371 l 0.50118,-1.10385 0.68159,-0.4466 0.68159,-0.44659 0.46506,0.19318 0.46506,0.19318 -0.85177,0.36253 -0.8518,0.36252 -0.45353,0.86245 -0.45352,0.86245 0.0138,1.71979 0.0138,1.71979 0.27813,0.99219 0.2781,0.99219 h -0.23394 c -0.34912,0 -0.69734,-0.78766 -0.90654,-2.05052 -0.20553,-1.24076 -0.2118,-1.24615 -0.97341,-0.83855 l -0.53427,0.28593 -0.50086,1.10313 -0.50085,1.10313 -0.006,1.13298 -0.006,1.13298 0.40505,0.96944 c 0.22278,0.5332 0.70508,1.36281 1.0718,1.84359 l 0.66675,0.87414 h -0.55576 c -1.39068,0 -2.86295,1.42929 -3.58743,3.48272 l -0.38166,1.08172 v 1.14014 c 0,0.62707 0.11808,1.45071 0.26241,1.83031 l 0.26241,0.69018 0.99436,0.91328 c 1.02127,0.93799 0.95475,1.15752 -0.17608,0.58118 z m 37.61497,-4.65156 c -0.61947,-0.25358 -1.66312,-0.90979 -2.31926,-1.45824 l -1.19293,-0.99718 -0.78713,-1.37242 -0.78711,-1.37242 -0.003,-0.61752 -0.003,-0.61751 -1.63886,1.48307 -1.63883,1.48307 -1.40906,0.68938 -1.40904,0.68939 -1.91305,0.0326 -1.91304,0.0326 -1.50167,-0.76091 -1.50164,-0.7609 -1.11408,-1.35576 c -0.61296,-0.74567 -1.36152,-1.89155 -1.6637,-2.54639 l -0.54938,-1.19063 -0.01,-2.64583 -0.01,-2.64583 0.57568,-1.21213 0.57568,-1.21213 0.92302,-0.81043 0.92306,-0.81043 2.09891,-0.80943 2.09894,-0.80943 1.61004,-0.25929 1.61004,-0.25929 1.54832,0.21885 1.54831,0.21886 1.1815,0.5654 1.1815,0.5654 0.83582,1.1164 0.83582,1.1164 0.46064,1.41727 0.46063,1.41726 1.61396,-1.7269 1.61396,-1.72691 1.20944,-0.17632 1.20943,-0.17633 1.13885,0.30665 c 0.62635,0.16867 1.78911,0.61456 2.58392,0.99088 l 1.4451,0.68422 1.02942,1.36346 1.02944,1.36346 0.42812,1.17433 0.42812,1.17434 0.0257,2.11667 0.0257,2.11667 -0.45246,1.03557 c -0.24884,0.56956 -0.89686,1.61848 -1.44002,2.33092 l -0.98756,1.29534 -1.70222,0.83818 -1.70225,0.83818 -1.73734,0.0584 -1.73736,0.0584 z m 6.13256,-1.85465 c 1.58761,-0.85323 2.57424,-1.80848 3.17461,-3.07367 l 0.45362,-0.95595 0.1423,-1.69025 0.14229,-1.69024 -0.70451,-1.53885 c -0.86256,-1.88407 -1.45333,-2.5326 -3.23627,-3.5527 l -1.38348,-0.79154 -1.66288,-0.2678 -1.66291,-0.2678 -0.40211,0.47909 c -0.22117,0.2635 -0.9566,0.92561 -1.63434,1.47135 l -1.23221,0.99225 -0.5764,0.93266 c -0.70911,1.14736 -1.31336,3.34136 -1.30979,4.75575 l 0.003,1.05834 0.48598,1.05833 c 0.26728,0.58208 0.75674,1.29646 1.08768,1.5875 l 0.60169,0.52917 -0.17209,-0.55374 -0.17208,-0.55374 0.553,-0.70303 0.55301,-0.70304 h 0.89172 0.8917 l 0.948,0.55934 c 1.05633,0.62324 1.46349,1.21934 1.46349,2.14252 v 0.61998 l -0.43235,0.6173 -0.43238,0.61728 1.15998,-0.18936 1.15996,-0.18936 z m -21.10483,-2.10968 -0.43789,-0.48385 v -0.80043 -0.80042 l 0.63273,-0.68272 0.63272,-0.68271 0.9592,-0.17995 0.95919,-0.17994 0.79944,0.33114 0.79946,0.33115 0.25445,0.47548 c 0.13997,0.26152 0.25448,0.74353 0.25448,1.07114 v 0.59565 l -0.59531,0.64523 -0.59531,0.64523 0.66145,-0.18806 c 0.9823,-0.27927 3.3055,-1.91407 4.32718,-3.04494 l 0.89647,-0.99229 0.69548,-2.08831 0.69546,-2.08831 v -0.81154 -0.81156 l -0.72761,-1.43453 -0.7276,-1.43452 -1.05833,-0.7144 -1.05834,-0.71439 -1.28958,-0.31403 -1.28958,-0.31404 -1.62083,0.1672 c -0.89146,0.0919 -2.47452,0.41955 -3.51793,0.72798 l -1.89709,0.5608 -0.95268,0.78529 c -0.52401,0.43192 -1.15483,1.16154 -1.40185,1.62138 l -0.44915,0.83609 -0.008,2.51354 -0.008,2.51354 0.89382,1.64811 0.89381,1.6481 0.94171,0.73315 c 1.23775,0.96361 1.94979,1.37374 2.4049,1.38522 l 0.37174,0.009 z m -12.70638,-16.81073 -0.43151,-0.90934 v -0.9607 -0.9607 l 0.35589,-0.8514 c 0.19574,-0.46827 0.55706,-1.01823 0.80294,-1.22214 l 0.44704,-0.37075 -0.7152,1.42396 -0.71522,1.42395 0.41648,1.59263 c 0.48628,1.85951 0.44008,2.09991 -0.16042,0.83449 z m 37.38227,-0.63416 -1.47685,-1.51813 -1.50014,-0.89244 -1.50011,-0.89244 -1.1902,-0.13416 -1.19023,-0.13415 v 0.82816 0.82816 h -0.37904 -0.37904 l -0.16608,-0.52327 -0.16608,-0.52326 -0.97623,-0.26203 c -1.50437,-0.40379 -2.41999,-0.38139 -4.2254,0.10335 -0.91389,0.24539 -1.92593,0.40859 -2.24896,0.36266 l -0.58729,-0.0835 v -0.39688 -0.39687 l 0.92604,-0.3158 0.92604,-0.3158 1.38906,-0.0149 1.38907,-0.0149 v -0.56407 -0.56407 l -0.99219,-0.93757 c -1.35136,-1.27697 -3.14923,-2.38671 -4.4277,-2.73301 l -1.0624,-0.28778 -1.76943,0.0151 -1.76946,0.0151 -1.08825,0.29304 -1.08829,0.29304 0.15362,0.48402 0.15362,0.48401 -0.3397,0.13036 c -0.18685,0.0717 -1.47032,-0.0418 -2.85216,-0.25233 l -2.51245,-0.38269 -1.29638,0.28815 c -1.47564,0.32799 -1.811,0.21928 -0.90909,-0.29469 l 0.61797,-0.35217 2.90861,0.0518 2.90862,0.0518 0.53097,-0.47537 0.53096,-0.47537 1.26749,-0.34144 1.26746,-0.34143 1.97752,0.14956 1.9775,0.14955 1.62036,0.61543 1.62033,0.61543 1.4128,1.3273 1.41277,1.32729 0.17565,0.87826 0.17566,0.87825 0.29311,0.0734 c 0.16121,0.0404 0.87841,0.21359 1.59379,0.38486 l 1.30067,0.31142 0.18378,-0.29735 0.18378,-0.29736 h 1.19279 1.19282 l 1.3362,0.6771 c 2.39263,1.21243 5.29323,3.90322 5.03426,4.6701 l -0.0833,0.24669 z m -43.89078,-0.47414 c -0.005,-0.15341 0.34422,-0.83496 0.7752,-1.51456 l 0.78362,-1.23563 1.2669,-0.80047 1.26691,-0.80047 2.09658,-0.67177 2.09656,-0.67176 2.53365,-0.0236 2.53363,-0.0236 1.61541,0.3253 c 3.39238,0.68314 2.99651,1.24639 -0.45331,0.64499 l -2.48502,-0.4332 -1.98438,0.14951 -1.98437,0.14951 -1.73101,0.53547 -1.73101,0.53547 -1.24849,0.82697 c -1.21285,0.80335 -2.1418,1.67201 -2.94897,2.75757 l -0.39349,0.52917 z m 62.70816,41.63633 -0.53949,-0.57906 v -1.2269 -1.22691 l 0.61238,-0.57529 0.61235,-0.57528 h 0.84286 0.84283 l 0.52916,0.52916 c 0.76806,0.76805 0.44297,2.48382 -0.71255,3.76063 l -0.4278,0.47271 h -0.61013 -0.61016 z m 2.10925,-0.81001 0.52428,-0.85989 v -0.67469 -0.67469 l -0.3175,-0.3175 c -0.17463,-0.17462 -0.52716,-0.3175 -0.78344,-0.3175 h -0.46593 l -0.53948,0.57906 -0.53962,0.57906 v 0.68499 0.68498 l 0.41188,0.58804 0.41187,0.58804 h 0.38577 0.38576 z m 1.18544,-12.86271 -1.06058,-0.48182 -0.8432,-0.96035 -0.8432,-0.96034 -0.28681,-0.99942 c -0.28771,-1.00246 -0.53329,-2.83963 -1.07093,-8.01088 -0.15885,-1.52797 -0.40732,-3.90922 -0.55216,-5.29166 -0.66508,-6.34826 -2.252,-9.94351 -6.7152,-15.21354 -1.10919,-1.30969 -2.47298,-2.92367 -3.03064,-3.58663 -2.21073,-2.62813 -3.49732,-5.03706 -3.50362,-6.55994 l -0.004,-0.88615 0.88635,-0.93209 0.88636,-0.9321 1.05833,-0.49105 1.05833,-0.49105 1.46939,-0.006 1.46942,-0.006 1.36046,0.67795 1.36049,0.67795 1.87431,1.73532 c 1.80115,1.66759 2.57061,2.63501 2.30616,2.89946 -0.0685,0.0685 -1.26426,-0.88825 -2.65721,-2.12609 l -2.5327,-2.25062 -1.38099,-0.41011 c -0.75954,-0.22556 -1.68683,-0.40895 -2.06058,-0.40753 l -0.67958,0.003 -1.35424,0.63056 -1.35422,0.63057 -0.43172,0.61635 -0.43169,0.61634 v 0.82615 0.82615 l 1.03457,1.56238 c 1.02079,1.54154 1.9005,2.66441 6.42832,8.20505 l 2.30349,2.8188 1.09714,2.10883 1.09712,2.10884 0.74883,3.02791 0.7488,3.0279 0.29649,3.0971 c 0.42166,4.40471 1.05574,9.50564 1.35813,10.92594 l 0.25855,1.21425 1.11167,1.06803 1.11168,1.06802 0.72877,0.17046 0.72876,0.17045 0.65331,-0.42806 0.65331,-0.42806 0.63813,-1.36321 c 0.35096,-0.74977 0.77083,-1.99415 0.93302,-2.7653 l 0.29491,-1.40212 v -2.4714 -2.47139 l -0.52287,-2.54124 c -1.70844,-8.30308 -3.37812,-12.72044 -7.66215,-20.27118 l -1.87645,-3.30729 -1.85156,-1.71979 c -1.01835,-0.94588 -1.85015,-1.80909 -1.84843,-1.91823 0.0119,-0.75088 1.93786,0.55579 3.47157,2.35523 l 1.16176,1.36305 1.89664,3.39945 c 3.81849,6.84413 5.26926,10.38291 6.81712,16.62863 0.92671,3.73939 1.20383,5.71632 1.20613,8.60427 l 0.003,2.51886 -0.51319,1.85183 c -0.56316,2.03234 -0.92025,2.8184 -1.76924,3.89476 l -0.56261,0.7133 -0.71139,0.27047 c -0.94781,0.36036 -1.15789,0.34083 -2.39897,-0.22298 z m -65.64921,-44.95852 c 0.0708,-0.11452 1.07889,-0.89238 2.24028,-1.72859 l 2.11164,-1.52038 2.60395,-1.29359 2.60395,-1.29361 3.30729,-1.06258 c 1.81901,-0.58443 3.9959,-1.20881 4.83749,-1.38752 l 1.53019,-0.32493 0.29884,0.29883 0.29882,0.29883 -0.72175,0.27442 c -0.39698,0.15093 -0.89908,0.27442 -1.11575,0.27442 -0.57036,0 -4.76467,1.20371 -7.02522,2.01615 -2.57143,0.92418 -6.5338,2.92427 -8.78713,4.4355 -1.00152,0.6717 -1.9313,1.22126 -2.06613,1.22126 h -0.24516 z m -12.88478,-2.48888 c 2.01255,-1.97668 4.09995,-3.97172 4.63867,-4.43342 l 0.97946,-0.83946 -0.22775,-0.59902 c -0.12525,-0.32945 -0.54237,-2.187 -0.92691,-4.12788 l -0.69917,-3.52887 -0.15861,-3.509058 -0.15862,-3.509055 0.34639,-1.276512 c 0.19053,-0.702079 0.62929,-1.846146 0.97502,-2.542367 l 0.62862,-1.265862 1.04376,-1.012929 1.04375,-1.012928 1.92855,-0.9404 1.92855,-0.940404 2.16548,-0.538951 c 1.19099,-0.296423 3.03429,-0.616603 4.09622,-0.711512 l 1.93078,-0.172564 1.5875,0.29364 c 3.44958,0.638064 6.59696,2.429833 9.54225,5.432288 l 1.60475,1.635892 1.39033,2.101879 c 1.31964,1.995016 4.50411,8.225463 4.92842,9.642503 0.10895,0.3638 0.4064,1.13771 0.66103,1.71979 0.25464,0.58208 0.84061,2.07036 1.30215,3.30729 0.46154,1.23693 0.95205,2.45571 1.09001,2.70839 0.13798,0.25269 0.25085,0.6356 0.25085,0.85092 0,0.21532 0.20558,0.8226 0.45685,1.3495 l 0.45683,0.95801 1.45675,-0.182 c 0.80121,-0.10011 2.07229,-0.41232 2.82466,-0.69382 l 1.36792,-0.5118 1.24431,-0.95011 1.24431,-0.9501 0.49546,-1.09105 0.49546,-1.09106 0.006,-1.59357 0.006,-1.59357 -0.66646,-2.63976 c -0.36658,-1.45188 -0.9494,-3.23508 -1.29521,-3.96269 l -0.62873,-1.322913 -0.1836,-1.306002 -0.18362,-1.306005 -0.79968,-1.736703 c -0.43979,-0.955189 -1.01832,-2.212957 -1.28561,-2.79504 -0.26728,-0.582084 -0.60097,-1.366621 -0.74152,-1.743417 -0.27754,-0.743979 -3.07075,-4.832209 -4.32239,-6.326375 -2.93701,-3.506128 -6.97989,-6.96808 -10.30211,-8.821737 l -1.75577,-0.979652 -2.34527,-0.29056 -2.34526,-0.29056 -3.04271,0.314267 c -4.67334,0.48269 -6.83422,0.932923 -11.77396,2.45319 l -2.64583,0.81429 -1.98438,1.049033 c -5.48259,2.898357 -8.86322,5.364964 -11.10181,8.100213 -1.39853,1.70879 -1.58409,2.073283 -3.51885,6.911933 l -1.42825,3.571875 0.21016,3.968753 0.21016,3.96875 0.38301,1.71979 c 0.21066,0.94588 0.52057,2.43416 0.68871,3.30729 0.38632,2.00607 2.46814,8.50508 3.37502,10.53611 l 0.68776,1.54028 0.59568,-0.76112 c 0.32761,-0.41861 2.24229,-2.37839 4.25485,-4.35507 z m 9.21544,-7.69217 c 1.84348,-0.9876 4.01886,-2.44452 5.02708,-3.36684 0.29104,-0.26624 1.42213,-0.86458 2.51354,-1.32965 1.09141,-0.46508 2.72603,-1.1901 3.63246,-1.61117 0.90644,-0.42107 1.75451,-0.76558 1.88458,-0.76558 0.13007,0 1.47923,-0.40709 2.99813,-0.90464 1.51889,-0.49756 3.23066,-0.97919 3.80396,-1.07029 0.57328,-0.0911 1.74133,-0.307078 2.59567,-0.479941 l 1.55332,-0.314299 0.11414,-0.297452 0.11414,-0.29745 -0.98155,-1.691399 c -2.09468,-3.609504 -4.29861,-6.018446 -6.9836,-7.633229 l -1.71979,-1.034304 -1.62568,-0.414539 -1.62571,-0.414538 h -2.35937 -2.35936 l -2.10035,0.54665 c -2.56585,0.667803 -4.57872,1.647023 -6.06832,2.952123 l -1.12451,0.985231 -0.44622,0.940298 c -0.2454,0.517162 -0.57737,1.681152 -0.73771,2.586643 l -0.29152,1.646346 0.059,1.984375 c 0.12266,4.122675 1.49503,11.344575 2.10138,11.058145 0.0958,-0.0453 1.00761,-0.52878 2.02626,-1.07449 z m -6.01401,-32.031487 c 2.36498,-1.477518 8.50789,-3.973486 10.87271,-4.417774 3.67826,-0.69105 3.8381,-0.752848 3.59378,-1.389507 l -0.15893,-0.414187 -1.10406,-0.450361 -1.10408,-0.45036 -3.30729,0.0082 -3.30729,0.0082 -1.79041,0.565925 -1.79041,0.565923 -0.9036,0.793364 -0.90358,0.793363 -0.52475,1.112854 -0.52475,1.11285 -0.17952,1.389063 -0.17949,1.389062 h 0.16237 c 0.0893,0 0.60648,-0.277463 1.1493,-0.616582 z m 4.02963,-8.009877 c 0.80037,-0.203964 2.01345,-0.436245 2.69573,-0.516178 l 1.24053,-0.14533 0.0824,-0.71383 0.0824,-0.713828 0.66228,0.06592 0.66228,0.06592 1.25595,-1.169667 1.25595,-1.169665 v -0.412253 c 0,-0.400441 -0.49797,-1.847918 -1.19232,-3.465668 -0.6722,-1.566146 -2.82249,-6.654961 -3.68943,-8.73125 -1.69352,-4.056018 -4.5136,-12.597016 -5.85316,-17.727083 -0.38,-1.455208 -0.85839,-3.047034 -1.06312,-3.537389 -0.20474,-0.490355 -0.59921,-1.800043 -0.87657,-2.910417 -0.27739,-1.110374 -0.81597,-3.030892 -1.19687,-4.267819 -0.38092,-1.236927 -0.98991,-3.380052 -1.35334,-4.7625 -0.36341,-1.382448 -0.88789,-3.108854 -1.16552,-3.836458 -0.2776,-0.727604 -0.69945,-1.996202 -0.93744,-2.819107 l -0.43273,-1.496189 0.15724,-1.0173522 0.15722,-1.017352 -0.44747,1.0583333 c -0.9812,2.3207319 -3.18926,4.7488659 -5.87449,6.4600269 l -1.41073,0.89898 0.15804,0.842463 c 0.13684,0.729416 1.72294,6.123196 2.48989,8.46728 0.14282,0.436562 0.70305,2.2225 1.24494,3.96875 2.15392,6.940973 6.16577,18.501976 7.25339,20.902083 0.13187,0.291042 0.76862,1.898385 1.41497,3.571875 0.64635,1.673489 1.62912,4.209042 2.18395,5.634561 l 1.00875,2.591856 1.07437,-1.074957 1.07439,-1.074955 -0.0391,-1.252315 -0.0391,-1.252315 -1.36309,-3.042708 c -0.74967,-1.67349 -1.53019,-3.399896 -1.73442,-3.836459 -0.97234,-2.078212 -3.52822,-9.499488 -5.42179,-15.742708 -0.46344,-1.527969 -1.0047,-3.254375 -1.20282,-3.836458 -0.59854,-1.758458 -2.46195,-7.865142 -2.74503,-8.995833 -0.14573,-0.582084 -0.45156,-1.713177 -0.67963,-2.513542 -0.22804,-0.800365 -0.38179,-1.7268 -0.34166,-2.058747 l 0.073,-0.603538 0.26458,-0.01169 0.26459,-0.01169 0.49612,1.805866 c 0.27286,0.993227 0.8491,2.936959 1.28053,4.319407 0.4314,1.382448 1.65872,5.371042 2.72732,8.863542 3.59087,11.735884 5.12964,16.083539 7.5383,21.298958 0.70569,1.527969 1.52932,3.407611 1.83028,4.176982 l 0.54724,1.398842 v 0.793263 0.793266 l -0.45966,0.718293 c -0.25281,0.395063 -0.77312,1.060601 -1.15621,1.478973 l -0.69651,0.760677 h -0.69509 -0.69506 l -0.44048,-0.363802 c -0.63484,-0.524351 -2.22861,-4.320918 -4.59552,-10.947135 -0.41584,-1.164167 -1.18673,-3.307292 -1.71312,-4.7625 -2.51233,-6.945405 -5.28431,-15.240558 -6.36593,-19.05 -0.20661,-0.727604 -0.61492,-2.156354 -0.90739,-3.175 -0.99208,-3.455471 -1.53961,-5.55203 -1.84838,-7.077604 -0.30617,-1.512789 -0.46471,-1.729647 -0.94509,-1.292743 -0.40113,0.364844 -2.62472,0.829722 -3.9687,0.829722 h -1.23404 l 0.14097,0.33073 c 0.72927,1.710928 1.82017,4.75702 2.43996,6.81302 0.19741,0.654844 0.59582,1.845469 0.88538,2.645834 0.28956,0.800364 0.76152,2.169583 1.04878,3.042708 0.53131,1.61481 1.04418,3.036721 2.29039,6.35 0.38314,1.018646 0.92091,2.506927 1.19499,3.307291 1.43507,4.190323 3.17042,8.667949 4.07339,10.510428 0.37262,0.760264 0.80095,1.93331 0.95187,2.606765 l 0.27442,1.224465 0.65427,0.857792 c 0.35986,0.471784 0.65426,0.952574 0.65426,1.068419 0,0.115846 0.22852,0.699921 0.50781,1.297943 0.2793,0.598022 0.58209,1.265907 0.67286,1.484188 0.16518,0.397174 0.80024,1.47388 3.64797,6.185009 l 1.52136,2.516827 v 0.574734 0.57473 l 0.59531,-0.189913 c 0.32742,-0.104454 1.25016,-0.356795 2.05052,-0.560763 z m -19.46936,-52.484548 1.51553,-0.521425 1.81539,-1.206865 c 0.99848,-0.663776 2.34076,-1.739768 2.98288,-2.391093 l 1.1675,-1.184224 0.74359,-1.3662109 0.74358,-1.3662104 -0.0172,-1.1445833 -0.0172,-1.1445824 -0.55166,-1.1396022 C 118.98354,3.711778 117.956,2.5811772 116.48516,1.5652939 L 115.48122,0.87190142 113.90428,0.46284104 112.32733,0.0537804 h -1.49386 -1.49386 l -1.16253,0.86786428 c -1.29844,0.96933572 -1.73421,1.27340332 -4.21733,2.94273232 -2.13529,1.4355003 -2.22136,1.543232 -2.6321,3.2946485 l -0.33226,1.4167027 0.12168,1.8957868 0.12166,1.895788 0.37745,0.788551 0.37746,0.78855 0.94961,0.03892 0.94959,0.03892 0.8124,0.420106 0.81241,0.420105 0.55001,0.77244 c 0.30253,0.424842 0.55002,0.902888 0.55002,1.062326 v 0.289886 h 1.54609 1.54607 z m -3.98513,-5.015336 -0.83262,-0.507701 -0.31805,-0.963766 -0.31809,-0.9637633 0.17545,-0.9749408 c 0.0965,-0.5362184 0.40812,-1.4292718 0.69249,-1.9845634 l 0.51708,-1.0096214 -0.14454,-0.2338745 -0.14455,-0.2338744 0.5192,-0.2778586 c 1.53442,-0.821196 5.73629,0.680552 6.64265,2.3740732 l 0.27496,0.5137552 -0.64209,1.2614267 c -0.7383,1.4504431 -1.45204,2.1675433 -2.93953,2.9533533 l -1.05439,0.557032 -0.79769,-0.0011 -0.79766,-0.0011 z m 2.65787,-0.80304 c 0.36801,-0.139909 1.14967,-0.7495773 1.73702,-1.3548196 l 1.06793,-1.1004367 V 7.6914566 7.1908575 l -1.44113,-0.6373444 c -1.31918,-0.5834089 -2.16495,-0.7857437 -2.96021,-0.7081864 -0.4962,0.048392 -1.0981,1.1896359 -1.28508,2.4366267 l -0.17587,1.1727365 0.56909,0.7235031 0.56912,0.723503 h 0.62503 c 0.34377,0 0.92612,-0.114472 1.2941,-0.254384 z M 96.186534,-0.53366841 C 92.740866,-1.7855974 87.875575,-5.5323839 80.320001,-12.752609 c -2.603685,-2.4881 -4.973373,-4.732178 -5.266002,-4.98684 l -0.532077,-0.46302 0.768085,0.01009 0.768086,0.01009 4.088738,3.993953 c 6.295893,6.1499613 10.509806,9.5345499 14.871965,11.9450839 2.178261,1.203701 2.150692,1.2042466 3.925755,-0.077703 0.800364,-0.5780193 1.900789,-1.3219639 2.445359,-1.6532098 l 0.99015,-0.6022652 0.003,-0.2999417 c 0.006,-0.8420097 -3.661282,-3.4138668 -10.978255,-7.6997382 -4.976786,-2.915121 -5.69079,-3.337278 -7.805208,-4.614822 l -1.455208,-0.879248 1.37787,-0.07958 1.377342,-0.07961 0.738796,0.452686 c 0.406347,0.248977 1.155514,0.712028 1.664837,1.029002 0.509323,0.316974 2.295261,1.392462 3.96875,2.389974 3.97891,2.371697 7.912973,4.936338 10.054166,6.5543738 l 1.71979,1.2995974 0.36785,0.7422327 0.36785,0.7422324 -0.14599,0.3805261 c -0.0803,0.2092894 -0.96248,0.9183942 -1.96033,1.5757888 -0.99787,0.6573946 -1.981992,1.3973148 -2.186939,1.6442671 -0.876882,1.05656616 -2.000382,1.35773369 -3.301497,0.88499763 z"
       style="fill:#000000;stroke-width:0.264583"
       id="path1" />
  </g>
</svg>
