<?xml version="1.0" encoding="UTF-8"?>
<!DOCTYPE svg PUBLIC "-//W3C//DTD SVG 1.1//EN" "http://www.w3.org/Graphics/SVG/1.1/DTD/svg11.dtd">
<svg version="1.1" xmlns="http://www.w3.org/2000/svg" xmlns:xlink="http://www.w3.org/1999/xlink" x="0" y="0" width="915.725" height="733.788" viewBox="0, 0, 915.725, 733.788">
  <g id="Layer_1" transform="translate(-910.008, -662.053)">
    <path d="M1644.86,931.93 Q1646.42,929.22 1647.65,928.4 Q1661.4,919.24 1664.63,917.86 Q1671.99,914.69 1678.56,911.86 Q1680.52,911.01 1686.62,909.42 C1692.8,907.81 1700.69,905.26 1706.1,904.87 Q1719.81,903.86 1721.96,903.64 C1722.782,903.554 1723.615,903.594 1724.43,903.76 Q1728.72,904.63 1733.52,904.63 C1734.61,904.637 1735.693,904.764 1736.75,905.01 C1741.23,906.06 1744.76,906.39 1748.4,907.86 Q1752.62,909.56 1757.59,910.81 C1757.823,910.87 1758.051,910.954 1758.27,911.06 L1768.09,915.87 C1768.862,916.249 1769.604,916.691 1770.31,917.19 Q1772.35,918.64 1775.78,920.7 C1778.86,922.54 1781.28,924.92 1784.46,927.36 C1784.799,927.626 1785.111,927.921 1785.39,928.24 Q1787.36,930.52 1791.22,933.6 Q1795.26,936.84 1798.51,941.36 C1798.75,941.693 1799.017,942.001 1799.31,942.28 Q1805.3,948 1806.24,949.25 Q1813.69,959.15 1818.15,969.14 C1819.22,971.53 1819.68,974.54 1820.81,977.01 Q1821.53,978.6 1821.99,980.09 Q1825.59,991.85 1825.73,1003.56 Q1825.78,1007.35 1824.68,1011.11 Q1823.04,1016.73 1821.98,1018.26 Q1818.98,1022.59 1818.02,1023.93 C1814.28,1029.2 1809.81,1032.64 1804.28,1035.3 C1803.736,1035.566 1803.161,1035.757 1802.57,1035.87 Q1793.1,1037.68 1784.33,1036.06 C1783.86,1035.974 1783.407,1035.808 1782.99,1035.57 Q1778.25,1032.81 1774.95,1029 Q1772.49,1026.17 1770.02,1020.34 C1766.78,1012.69 1764.56,1007.8 1763.72,1000.25 C1763.587,999.056 1763.295,997.888 1762.85,996.78 C1760.88,991.86 1760.15,988.06 1757.57,983.28 Q1754.33,977.29 1753.78,976.34 Q1752.78,974.63 1747.93,969.73 C1743.77,965.53 1737.16,962.05 1733.13,959.69 Q1732.02,959.04 1730.3,959.15 C1729.936,959.176 1729.575,959.085 1729.27,958.89 C1723.37,955.22 1717.18,955.59 1708.96,955.42 C1708.641,955.413 1708.326,955.444 1708.02,955.51 Q1701.37,957.01 1694.91,960 C1694.568,960.158 1694.375,960.524 1694.44,960.89 Q1694.94,963.84 1694.42,967.01 C1694.279,967.861 1693.583,968.513 1692.72,968.6 L1692.69,968.6 C1691.908,968.592 1691.262,967.989 1691.2,967.21 L1690.9,963.3 C1690.888,963.107 1690.773,962.937 1690.598,962.852 C1690.422,962.767 1690.214,962.782 1690.05,962.89 L1675.32,972.64 C1675.11,972.782 1675.023,973.047 1675.11,973.28 L1678.29,981.52 C1678.317,981.6 1678.337,981.684 1678.35,981.77 C1679.52,989.26 1681.78,997.84 1681.51,1006.33 Q1681.34,1011.7 1681.47,1018.46 C1681.53,1021.82 1680.47,1024.55 1681.05,1027.99 Q1681.38,1029.92 1680.51,1031.19 C1680.424,1031.317 1680.401,1031.477 1680.447,1031.624 C1680.494,1031.77 1680.606,1031.887 1680.75,1031.94 C1681.96,1032.36 1684.24,1032.42 1685.76,1033.04 C1692.65,1035.85 1698.15,1037.5 1704.08,1040.48 Q1710.15,1043.53 1712.63,1044.59 Q1716.33,1046.16 1718.19,1047.24 Q1722.09,1049.49 1722.8,1049.73 C1723.394,1049.935 1723.941,1050.251 1724.41,1050.66 Q1726.79,1052.73 1731.92,1056.02 C1735.97,1058.61 1738.02,1060.95 1741.5,1063.8 Q1742.74,1064.81 1744.72,1067.21 Q1750.27,1073.97 1754.6,1081.06 C1756.75,1084.59 1758.05,1088.39 1759.61,1092 C1760.93,1095.06 1763.11,1097.5 1763.96,1100.36 Q1764.35,1101.7 1766.26,1105.59 C1768.74,1110.67 1769.6,1116.99 1771.85,1121.27 C1772.261,1122.039 1772.554,1122.868 1772.72,1123.73 Q1773.83,1129.34 1775.67,1135.2 Q1777.41,1140.7 1777.84,1145.27 C1778.19,1149.03 1779.31,1154.75 1779.48,1158.95 Q1780.06,1173.73 1779.21,1179.75 Q1778.48,1184.97 1778.55,1186.41 Q1778.72,1189.63 1777.99,1193.04 Q1777.12,1197.14 1776.42,1202.91 C1776.32,1203.747 1776.126,1204.573 1775.84,1205.37 C1774.77,1208.39 1774.12,1212.25 1772.75,1215.43 Q1768.7,1224.85 1758.83,1229.84 Q1757.7,1230.41 1752.47,1232.37 Q1748.62,1233.81 1745.89,1234.11 Q1735.53,1235.22 1726.25,1232.57 C1725.407,1232.331 1724.603,1231.978 1723.86,1231.52 Q1721.89,1230.32 1717.9,1227.91 C1715.77,1226.63 1715.31,1222.75 1714.72,1219.64 C1714.6,1219.022 1714.543,1218.392 1714.55,1217.76 C1714.58,1211.75 1714.21,1207.74 1714.69,1202.42 Q1715.88,1189.38 1716.71,1182.85 C1716.98,1180.7 1716.43,1178.74 1716.84,1176.72 Q1717.09,1175.49 1717.07,1174.29 Q1716.85,1159.9 1716.53,1157.23 Q1715.44,1148.25 1715.16,1144.41 C1714.74,1138.82 1713.47,1134.87 1712.03,1128.03 Q1711.14,1123.83 1709.96,1120.66 C1708.18,1115.87 1707.11,1111.91 1704.75,1107.33 Q1702.82,1103.59 1702.15,1101.22 C1701.98,1100.618 1701.648,1100.072 1701.19,1099.64 C1700.29,1098.78 1699.07,1097.64 1698.33,1096.15 Q1696.81,1093.1 1693.35,1089.69 Q1684.07,1080.55 1675.41,1075.5 C1675.136,1075.344 1674.804,1075.337 1674.53,1075.48 Q1674.23,1075.64 1674.22,1075.94 C1674.22,1076.453 1673.834,1076.847 1673.312,1076.864 C1672.791,1076.882 1672.292,1076.518 1672.14,1076.01 Q1671.7,1074.63 1671.06,1072.78 C1670.971,1072.532 1670.781,1072.338 1670.54,1072.25 L1658.31,1067.8 C1657.93,1067.663 1657.509,1067.727 1657.19,1067.97 Q1652.83,1071.35 1651.1,1072.35 C1646.31,1075.13 1642.11,1079.43 1637.36,1082.16 Q1629.3,1086.79 1617.08,1093.32 Q1612.35,1095.85 1609.76,1096.78 C1606.78,1097.86 1603.56,1099.75 1599.87,1101.14 Q1591.18,1104.39 1584.73,1108.06 C1584.086,1108.419 1583.401,1108.701 1582.69,1108.9 Q1578.29,1110.1 1570.21,1113.11 C1565.11,1115.01 1560.11,1115.57 1554.87,1117.58 Q1543.7,1121.85 1531.39,1123.38 Q1526.76,1123.95 1519.29,1126.34 C1516.31,1127.29 1514.22,1127.6 1511.44,1127.81 C1511.282,1127.824 1511.138,1127.905 1511.045,1128.032 C1510.953,1128.159 1510.922,1128.319 1510.96,1128.47 C1512.09,1133.2 1515.09,1138.9 1516.66,1143.29 Q1520.68,1154.5 1521.7,1159.05 Q1522.61,1163.1 1523.64,1165.55 C1525.68,1170.4 1527.67,1177.04 1528.23,1179.76 C1528.97,1183.33 1530.65,1186.56 1531.08,1190.45 C1531.093,1190.537 1531.113,1190.624 1531.14,1190.71 L1534.22,1200.39 C1534.406,1200.961 1534.672,1201.503 1535.01,1202 Q1535.85,1203.22 1538.41,1206.03 Q1539.13,1206.81 1539.16,1207.63 C1539.166,1207.863 1539.034,1208.078 1538.824,1208.177 C1538.614,1208.275 1538.368,1208.237 1538.2,1208.08 L1535.86,1205.93 C1535.719,1205.807 1535.514,1205.787 1535.353,1205.881 C1535.193,1205.975 1535.115,1206.161 1535.16,1206.34 L1537.82,1217.65 C1537.893,1217.976 1537.933,1218.308 1537.94,1218.64 C1537.96,1223.14 1539.63,1226.9 1539.96,1231.01 Q1540.26,1234.79 1541.44,1241.25 Q1542.96,1249.53 1543.38,1258.55 C1543.55,1262.21 1544.51,1267.03 1544.46,1270.26 Q1544.33,1278.45 1544.42,1282.28 C1544.422,1282.421 1544.483,1282.554 1544.587,1282.649 C1544.691,1282.744 1544.83,1282.791 1544.97,1282.78 Q1553.43,1282.22 1561.07,1282.91 C1573.61,1284.05 1582.72,1284.98 1594.01,1287 Q1602.15,1288.45 1609.42,1289.71 C1614.95,1290.66 1620.13,1292.59 1624.8,1293.03 C1634.3,1293.93 1643.06,1296.57 1655.25,1299.23 Q1673.66,1303.24 1691.5,1309 Q1696.13,1310.5 1704.61,1314.18 Q1710.3,1316.65 1717.5,1319.91 Q1722.23,1322.06 1725.87,1324.4 C1729.42,1326.68 1734.69,1329.32 1738.63,1332.59 C1745.84,1338.57 1751.18,1344.37 1753.62,1353.36 Q1754.8,1357.69 1753.72,1363.33 C1753.634,1363.781 1753.482,1364.216 1753.27,1364.62 C1751.37,1368.31 1749.65,1372.77 1746.39,1375.13 C1733.87,1384.18 1720.17,1387.26 1704.71,1390.5 Q1696.44,1392.23 1686.19,1393.29 Q1671.16,1394.85 1648.47,1395.49 C1647.29,1395.52 1644.94,1395.91 1643.5,1395.83 C1636.52,1395.48 1630.92,1395.83 1623.84,1395.38 Q1612.9,1394.69 1607.61,1394.71 Q1601.89,1394.73 1597.29,1393.99 Q1594.86,1393.6 1586.94,1393.34 Q1577.38,1393.03 1573.09,1392.36 C1566.72,1391.37 1560.63,1391.42 1554.64,1390.54 Q1548.75,1389.69 1532.38,1387.87 C1528.79,1387.48 1525.11,1386.43 1521.21,1386.36 Q1520.82,1386.35 1516.71,1385.83 Q1503.41,1384.16 1475.57,1380.77 Q1469.74,1380.06 1464.37,1379.64 Q1458.2,1379.15 1456.9,1378.91 C1451.12,1377.85 1446.55,1378.19 1439.64,1377.57 C1431.15,1376.81 1420.2,1376.89 1413.25,1376.76 Q1403.02,1376.57 1397.18,1376.94 Q1390.14,1377.39 1385.96,1376.98 C1385.276,1376.914 1384.588,1376.93 1383.91,1377.03 C1381.94,1377.32 1380.06,1377.72 1377.72,1377.78 C1360.36,1378.22 1342.98,1379.77 1320.75,1381.7 Q1306.77,1382.9 1276.73,1385.18 C1263.94,1386.15 1252,1386.1 1240.47,1381.2 C1231.86,1377.55 1229.21,1368.94 1231.96,1360.59 C1234.04,1354.24 1237.37,1348.7 1242.73,1344.38 C1245.96,1341.78 1247.94,1339.3 1251.16,1337.31 Q1264.37,1329.12 1271.91,1325.68 Q1275.96,1323.84 1291.65,1317.61 C1298.07,1315.06 1305.65,1313.2 1312.1,1310.84 Q1317.26,1308.95 1339,1303.14 C1351.9,1299.68 1365.05,1296.8 1378.49,1294.45 C1379.129,1294.337 1379.755,1294.166 1380.36,1293.94 Q1382.82,1293.03 1383.53,1292.97 C1390.59,1292.44 1395.97,1290.95 1403.18,1290.11 C1407.53,1289.61 1411.98,1288.16 1416.47,1288.12 Q1421,1288.08 1424.25,1287.38 Q1429.01,1286.36 1431.97,1286.29 Q1433.16,1286.26 1444.83,1284.92 C1452.84,1283.99 1462.18,1284.19 1470.08,1282.86 C1470.375,1282.813 1470.604,1282.577 1470.64,1282.28 Q1471.68,1273.55 1471.27,1265.82 C1470.93,1259.29 1472.02,1253.01 1470.95,1246.4 Q1470.41,1243.05 1470.58,1240.09 C1470.8,1236.31 1469.96,1232.6 1470.33,1228.6 C1470.416,1227.691 1470.379,1226.773 1470.22,1225.87 C1469.77,1223.26 1469.6,1220.01 1468.97,1217.28 Q1467.87,1212.5 1468.02,1208.64 C1468.053,1207.859 1467.958,1207.078 1467.74,1206.33 Q1466.67,1202.71 1465.58,1195.77 Q1464.76,1190.61 1462.96,1185.35 Q1457.51,1169.46 1452.58,1157.42 Q1452.14,1156.33 1450.14,1152.79 C1449.728,1152.073 1449.406,1151.311 1449.18,1150.52 Q1448.21,1147.14 1446.17,1143.31 C1444.51,1140.19 1443.64,1136.92 1442.26,1134.3 C1442.106,1133.999 1441.798,1133.807 1441.46,1133.8 Q1433.13,1133.59 1426.03,1133.8 Q1423.31,1133.88 1418.35,1133.21 C1417.972,1133.157 1417.588,1133.154 1417.21,1133.2 Q1413.11,1133.75 1407.68,1133.09 C1400.54,1132.23 1392.67,1132.82 1386.21,1131.49 Q1379.48,1130.1 1378.78,1130.13 C1378.47,1130.156 1378.157,1130.119 1377.86,1130.02 L1375.2,1129.09 C1374.786,1128.946 1374.347,1128.904 1373.92,1128.97 C1368.67,1129.78 1365.1,1127.52 1359.84,1127.15 Q1353.94,1126.72 1349.87,1124.48 C1349.302,1124.167 1348.653,1124.021 1348,1124.06 Q1343.9,1124.29 1333.75,1121.49 Q1317.4,1116.96 1302.63,1110.11 Q1299.4,1108.62 1297,1105.9 C1296.908,1105.794 1296.795,1105.709 1296.67,1105.65 L1291.18,1102.86 C1290.961,1102.754 1290.762,1102.616 1290.59,1102.45 L1279.45,1092.25 C1279.265,1092.077 1279,1092.02 1278.76,1092.1 Q1271.95,1094.41 1264.59,1097.57 Q1254.5,1101.9 1246.07,1109.59 C1242.7,1112.67 1240.79,1116.08 1237.59,1119.92 C1234.64,1123.47 1232.12,1128.09 1229.54,1132.23 C1229.154,1132.848 1228.836,1133.505 1228.59,1134.19 Q1227.68,1136.71 1225.72,1141.71 C1223.14,1148.29 1224.06,1155.68 1224.52,1164.97 C1224.547,1165.462 1224.634,1165.945 1224.78,1166.41 C1226.59,1172.15 1227.92,1178.18 1230.35,1184.17 Q1237.52,1201.85 1238.74,1204.53 Q1242.61,1212.99 1253.64,1237.1 C1255.37,1240.87 1256.23,1244.44 1257.94,1247.96 C1258.239,1248.585 1258.474,1249.239 1258.64,1249.91 C1259.61,1253.97 1260.55,1256.62 1260.58,1260.12 Q1260.62,1265.98 1256.91,1271.52 C1256.824,1271.653 1256.72,1271.777 1256.6,1271.89 L1250.39,1277.82 C1249.873,1278.317 1249.279,1278.729 1248.63,1279.04 C1237.51,1284.46 1226.76,1286.49 1214.51,1286.65 Q1205.4,1286.77 1197.75,1283.27 C1191.76,1280.53 1186.25,1270.08 1184.14,1264.23 Q1181.86,1257.91 1180.46,1254.68 Q1177.49,1247.82 1176.76,1243.5 C1176.12,1239.73 1174.26,1235.91 1173.32,1231.68 C1172.31,1227.14 1170.87,1221.71 1170.33,1216.71 Q1169.76,1211.35 1168.64,1207.19 C1167.74,1203.84 1167.76,1201.4 1167.17,1198.08 Q1166.9,1196.55 1166.82,1194.39 Q1166.58,1187.68 1166,1176.01 Q1165.72,1170.44 1166.64,1162.34 Q1167.27,1156.75 1167.42,1154.4 Q1167.83,1147.87 1168.23,1146.49 Q1171.57,1134.96 1172.6,1130.46 Q1173.34,1127.2 1174.61,1124.94 C1175.82,1122.77 1175.77,1119.97 1176.97,1117.42 Q1178.64,1113.91 1179.01,1112.99 C1180.61,1109.03 1183.59,1104.86 1185.15,1101.61 Q1186.87,1098.03 1189.44,1094.83 C1191.87,1091.83 1193.92,1086.56 1197.67,1082.84 Q1198.55,1081.95 1200.16,1079.98 Q1207.52,1070.92 1210.19,1068.66 C1213.88,1065.54 1217.68,1061.52 1221.18,1059.29 C1226.44,1055.92 1229.47,1053.19 1234.86,1050.68 Q1236.95,1049.71 1241.91,1046.8 C1242.601,1046.388 1243.336,1046.056 1244.1,1045.81 L1255.96,1041.92 C1256.251,1041.827 1256.435,1041.538 1256.4,1041.23 L1254.5,1026.34 C1254.423,1025.732 1254.109,1025.184 1253.63,1024.82 Q1249.1,1021.37 1244.23,1018.84 C1239.85,1016.57 1236.2,1013.82 1232.24,1011.22 Q1224.89,1006.38 1216.5,1007.01 Q1210.43,1007.47 1201.68,1009.15 C1194.47,1010.54 1188.45,1012.36 1184.7,1018.73 C1183.91,1020.07 1182.44,1023.99 1181.89,1026.36 Q1178.01,1043.22 1176.36,1060.26 Q1176.2,1061.9 1173.69,1069.44 C1173.539,1069.888 1173.286,1070.298 1172.95,1070.64 Q1168,1075.69 1166.77,1076.25 Q1163.77,1077.63 1159.1,1080.12 C1158.482,1080.452 1157.831,1080.714 1157.16,1080.9 C1150.06,1082.92 1145.91,1084.41 1138.89,1082.4 C1135.59,1081.46 1134.06,1079.6 1131.67,1076.81 Q1127.43,1071.85 1125.09,1066.17 C1125.083,1066.156 1125.079,1066.145 1125.08,1066.14 L1123.19,1054.91 C1123.123,1054.504 1123.087,1054.093 1123.08,1053.68 L1122.89,1046.58 C1122.883,1046.487 1122.89,1046.396 1122.91,1046.31 Q1123.71,1043.02 1124.66,1034.1 C1125.05,1030.45 1126.63,1027.38 1127.19,1023.89 Q1127.55,1021.65 1128.21,1019.83 Q1134.09,1003.71 1144.38,988.4 C1147.52,983.72 1151.03,980.97 1154.31,976.93 C1157.03,973.6 1161.32,971.44 1163.86,968.51 C1166.93,964.98 1171.22,964.34 1175.09,962.16 Q1183.14,957.62 1189.43,956.47 Q1199.59,954.6 1206.49,953 C1206.817,952.927 1207.157,953.034 1207.38,953.28 L1208.2,954.18 C1208.453,954.463 1208.85,954.559 1209.19,954.42 Q1213.31,952.78 1218.75,953.83 Q1223.15,954.68 1227.61,955.17 C1228.195,955.237 1228.778,955.36 1229.35,955.54 Q1232.47,956.54 1238.73,958.29 C1246.31,960.41 1253.33,965.29 1261.05,970.15 C1261.139,970.209 1261.257,970.201 1261.338,970.131 C1261.419,970.062 1261.444,969.947 1261.4,969.85 L1259.36,965.39 C1259.314,965.284 1259.28,965.17 1259.26,965.05 Q1258.06,955.12 1254.77,940.49 Q1254.47,939.17 1253.49,930.43 C1253.417,929.784 1253.3,929.149 1253.14,928.53 C1250.89,919.9 1251.62,911.12 1250.4,903.77 C1250.22,902.69 1250.78,900.51 1250.49,899.07 C1249.84,895.87 1250.81,893.11 1250.44,889.67 Q1249.4,880.01 1250.03,874.24 Q1250.04,874.17 1250.38,871.72 Q1250.87,868.11 1251.82,853.13 Q1252.19,847.28 1253.58,842.22 Q1254.98,837.12 1255.94,830.2 Q1256.84,823.69 1258.65,818.43 Q1259.16,816.95 1263.58,802.85 C1264.45,800.09 1266.18,797.44 1267.12,794.87 Q1270.03,787 1272.57,780.1 C1274.16,775.77 1277.15,772.61 1278.9,768.69 Q1279.84,766.59 1282.23,762.79 Q1284.98,758.42 1289.51,750.25 Q1291.45,746.75 1298.41,737.38 C1301.56,733.13 1305.31,731.08 1308.84,726.85 Q1314.79,719.7 1317.33,716.4 Q1319.56,713.51 1321.78,711.67 Q1326.42,707.82 1326.81,707.56 C1331.08,704.71 1335.58,700.41 1340.02,697.49 Q1349.32,691.39 1355.38,687.64 C1359.08,685.35 1363.8,683.8 1368.2,681.34 Q1372.61,678.89 1380.13,675.66 Q1386.15,673.08 1392.69,671.56 Q1398.81,670.12 1415.54,665.39 C1418.05,664.69 1420.21,665.1 1422.55,664.74 C1427.74,663.95 1435.72,662.53 1442.43,662.53 Q1449.37,662.53 1452.33,662.15 C1453.588,661.984 1454.866,662.032 1456.11,662.29 Q1459.66,663.04 1465.69,663.44 C1472.7,663.91 1480.34,665.67 1486.13,668.15 C1486.527,668.315 1486.947,668.407 1487.37,668.42 Q1491.84,668.61 1492.81,669.23 Q1496.23,671.43 1499.57,672.13 Q1503.38,672.93 1504.79,673.83 C1507.7,675.7 1510.37,676.36 1513.09,678.47 C1516.82,681.37 1521.77,683.24 1526.07,686.16 Q1538.06,694.3 1540.85,696.9 Q1544.67,700.46 1549.13,704.97 Q1550.42,706.28 1551.44,706.88 C1555.5,709.28 1557.35,714.22 1561.08,717.19 Q1565.37,720.59 1568.43,725.83 C1568.821,726.492 1569.321,727.087 1569.91,727.59 C1573.36,730.55 1576.2,735.41 1579.25,740.41 C1579.496,740.816 1579.777,741.197 1580.09,741.55 Q1584.7,746.77 1588.16,752.83 Q1594.84,764.56 1597.76,770.24 Q1599.5,773.64 1601.89,776.8 C1602.016,776.959 1602.12,777.134 1602.2,777.32 L1608.49,791.18 C1608.543,791.3 1608.583,791.424 1608.61,791.55 L1609.35,795.34 C1609.475,795.979 1609.742,796.577 1610.13,797.09 Q1612.72,800.49 1614.05,805.68 C1614.176,806.172 1614.361,806.648 1614.6,807.1 C1615.84,809.45 1618.16,814.81 1619.47,818.66 Q1621.42,824.4 1625.86,836.09 C1627.56,840.59 1628.2,844.69 1629.63,848.09 C1631.23,851.89 1632.07,855.9 1633.51,860.54 Q1634.03,862.18 1634.78,865.6 Q1638.25,881.31 1639.2,885.76 C1640.37,891.27 1640.3,895.75 1640.44,900.27 Q1640.52,903.1 1641.38,905.1 C1645.56,914.87 1644.02,923.18 1644.55,931.86 C1644.56,931.93 1644.612,931.986 1644.681,932.002 C1644.75,932.018 1644.821,931.989 1644.86,931.93 z" fill="#000000"/>
    <path d="M1437.56,959.39 Q1402,962.63 1365.62,970.86 Q1356.65,972.89 1353.68,973.47 Q1347.24,974.73 1341.77,976.21 C1327.8,980.01 1319.37,982.1 1309.53,985.94 C1309.231,986.063 1308.885,986.001 1308.64,985.78 Q1300.71,978.58 1297.4,968.66 C1294.74,960.7 1291.58,953.54 1289.6,945.46 Q1286.58,933.1 1284.84,926.96 C1283.2,921.17 1282.84,912.61 1282.93,905.94 Q1283.01,900.55 1283.08,897.82 Q1283.16,894.21 1283.12,889.7 Q1282.9,868.3 1286.03,847.91 Q1288,835.02 1292.78,819.89 Q1298.1,803.05 1302.17,792.6 Q1306.86,780.56 1313.38,767.37 Q1316.27,761.53 1321.15,754.06 C1321.19,753.99 1321.175,753.901 1321.115,753.848 C1321.054,753.795 1320.964,753.792 1320.9,753.84 Q1320.83,753.9 1320.65,754.14 C1307.02,772.96 1297.55,795.13 1290.57,817.31 Q1287.36,827.54 1283.75,843.4 Q1281.51,853.26 1280.61,872.34 Q1279.54,894.86 1280.41,919.26 Q1280.52,922.64 1282.43,930.11 Q1285.86,943.51 1287.51,950.5 C1288.83,956.08 1292.91,965.17 1295.59,972.63 Q1298.55,980.85 1305.68,986.65 C1305.792,986.74 1305.848,986.881 1305.83,987.025 C1305.812,987.169 1305.721,987.295 1305.59,987.36 Q1300.43,989.8 1294.28,993.03 Q1293.86,993.25 1290.52,996.09 C1288.16,998.1 1285.76,999.94 1284.72,1002.73 C1284.683,1002.823 1284.599,1002.889 1284.5,1002.904 C1284.401,1002.918 1284.302,1002.879 1284.24,1002.8 Q1282.99,1001.13 1282.04,996.22 C1281.31,992.46 1279.21,988.33 1278.14,983.9 Q1276.84,978.54 1273.55,967.02 C1273.317,966.208 1273.16,965.378 1273.08,964.54 C1272.58,959.36 1270.38,954.52 1269.75,950.25 Q1268.51,941.84 1267.11,933.51 Q1266.29,928.64 1266.24,924.47 Q1266.18,919.2 1265.39,915.39 C1264.3,910.05 1264.7,905.09 1264.08,899.69 C1263.86,897.77 1264.18,895.27 1263.5,892.74 C1263.348,892.172 1263.304,891.578 1263.37,890.99 C1264,885.65 1264.78,878.69 1264.54,872.66 C1264.38,868.47 1264.95,864.85 1265.73,859.5 C1266.59,853.58 1268.22,848.39 1268.36,842.58 Q1268.4,840.96 1270.72,833.25 C1273.03,825.53 1274.47,819.36 1276.5,812.64 C1276.66,812.108 1276.864,811.596 1277.11,811.11 Q1279.29,806.85 1279.87,802.82 C1279.976,802.057 1280.185,801.314 1280.49,800.61 Q1284.02,792.45 1288.46,784.22 Q1289.08,783.06 1289.83,780.49 C1290.242,779.096 1290.833,777.761 1291.59,776.52 C1294.92,771.11 1297.65,765.12 1301.92,759.26 Q1307.04,752.21 1311.11,746.96 C1313.71,743.62 1315.45,739.5 1317.36,736.89 C1317.486,736.717 1317.63,736.556 1317.79,736.41 L1341.26,715.2 C1341.36,715.107 1341.467,715.02 1341.58,714.94 Q1346.58,711.57 1347.73,710.58 Q1351.21,707.55 1353.57,706.32 C1356.44,704.82 1358.46,703 1361.84,701.33 Q1365.35,699.6 1368.84,697.35 C1373.3,694.47 1377.57,693.34 1382.03,691.54 Q1399.66,684.43 1406,682.77 C1410.63,681.55 1417.08,680.78 1422.88,679.44 Q1427.52,678.37 1431.77,678.06 Q1439.97,677.46 1445.25,677.07 C1448.19,676.85 1452.45,677.98 1456.26,677.75 Q1461.33,677.44 1465.27,678.44 C1469.01,679.39 1472.59,679.15 1476.32,680.21 C1478.49,680.82 1479.68,680.75 1481.69,680.96 C1482.428,681.039 1483.131,681.323 1483.72,681.78 C1486.71,684.14 1490.9,683.84 1494.46,685.71 Q1498.87,688.02 1507.88,691.75 C1508.95,692.195 1509.969,692.755 1510.92,693.42 Q1522.74,701.64 1526.23,704.67 Q1531.16,708.94 1538.24,714.47 C1540.21,716.01 1541.71,719.1 1544.03,720.87 Q1547.33,723.37 1548.32,724.5 C1548.666,724.893 1548.977,725.314 1549.25,725.76 C1552.06,730.32 1555.97,733.81 1558.77,737.87 Q1560.6,740.5 1566.54,747.45 C1566.999,747.988 1567.398,748.575 1567.73,749.2 Q1571.27,755.96 1577.02,764.58 C1579.67,768.54 1581.48,772.33 1584.25,776.76 C1586.02,779.57 1587.1,784.15 1589.06,787.44 Q1591.68,791.84 1593.67,796.73 C1593.756,796.942 1593.874,797.144 1594.02,797.33 L1596.58,800.69 C1596.897,801.1 1597.135,801.564 1597.28,802.06 C1598.06,804.63 1598.35,806.35 1599.64,808.73 Q1601.74,812.58 1603.4,817.91 C1604.75,822.24 1606.44,824.96 1607.71,828.92 Q1611,839.13 1613.1,845.41 C1615.93,853.87 1617.56,862.59 1620.04,870.64 C1621.82,876.41 1623.21,883.08 1624.34,888.92 C1625.41,894.45 1627.28,898.91 1628.76,904.19 C1628.918,904.758 1628.959,905.353 1628.88,905.94 Q1627.7,914.67 1630.48,926.76 C1631.57,931.47 1631.08,936.83 1631.38,941.93 C1631.99,952.75 1632.46,958.73 1631.77,967.05 C1631.694,967.968 1631.238,968.815 1630.51,969.39 C1624.78,973.94 1620.87,976.9 1614.84,979.62 Q1608.9,982.29 1600.45,987.41 Q1598.01,988.89 1586.82,993.3 Q1586.09,993.59 1583.71,994.89 C1583.02,995.268 1582.287,995.554 1581.53,995.74 Q1576.8,996.89 1563.19,1002.16 Q1553.34,1005.98 1537,1009.22 Q1535.79,1009.46 1529.53,1011.99 C1529.024,1012.194 1528.479,1012.273 1527.94,1012.22 Q1525.01,1011.92 1522.65,1012.77 C1518.2,1014.36 1515.67,1013.76 1511.47,1014.99 Q1502.03,1017.75 1490.54,1018.54 C1490.201,1018.567 1489.863,1018.627 1489.53,1018.72 L1483.75,1020.34 C1483.684,1020.36 1483.613,1020.367 1483.54,1020.36 Q1476.41,1020.26 1471.98,1021.3 C1467.53,1022.34 1462.73,1022.22 1458.9,1023.41 C1458.59,1023.503 1458.267,1023.533 1457.95,1023.5 L1455.1,1023.21 C1454.597,1023.157 1454.087,1023.188 1453.59,1023.3 C1449.6,1024.22 1445.14,1023.89 1441.12,1024.6 Q1435.2,1025.64 1428.79,1025.54 Q1426.99,1025.52 1424.12,1025.98 Q1422.71,1026.21 1419.41,1025.95 Q1415.92,1025.67 1407.18,1026.93 C1406.697,1026.996 1406.206,1026.976 1405.73,1026.87 Q1402.34,1026.07 1397.94,1026.42 C1392.58,1026.85 1387.98,1026.1 1383,1026.19 C1378.6,1026.26 1373.47,1025.45 1368.22,1025.99 C1367.556,1026.057 1366.884,1026.04 1366.22,1025.94 C1360.56,1025.09 1357.73,1024.48 1352.65,1024.16 Q1342.62,1023.53 1328.43,1021.58 Q1327.89,1021.51 1325.62,1020.65 C1324.901,1020.377 1324.159,1020.17 1323.4,1020.03 Q1312.25,1017.93 1310,1017.09 Q1306.11,1015.65 1303.27,1014.93 C1302.751,1014.797 1302.246,1014.623 1301.76,1014.41 C1295.82,1011.8 1291.36,1010.06 1287.52,1006.41 C1287.139,1006.051 1287.068,1005.471 1287.35,1005.03 Q1289.19,1002.21 1292.36,999.62 Q1299.88,993.49 1308.79,990.44 C1309.122,990.33 1309.487,990.419 1309.73,990.67 Q1312.29,993.31 1316.32,995.59 Q1328.59,1002.53 1348.5,1009.03 C1359.16,1012.5 1368.92,1012.71 1379.76,1012.75 Q1381.13,1012.76 1381.91,1012.38 C1382.032,1012.322 1382.101,1012.19 1382.078,1012.057 C1382.054,1011.924 1381.945,1011.823 1381.81,1011.81 C1370.93,1010.71 1359.32,1009.46 1348.28,1006 Q1336.93,1002.44 1328.01,998.21 C1321.48,995.12 1317.23,993.28 1312.4,989.54 C1312.31,989.468 1312.266,989.353 1312.285,989.239 C1312.303,989.125 1312.382,989.03 1312.49,988.99 Q1327.77,983.75 1344.31,979.77 Q1344.52,979.72 1355.52,976.91 Q1363.71,974.81 1369.22,973.65 Q1401.54,966.84 1414.99,964.19 C1419.28,963.35 1424.44,961.76 1427.62,961.66 Q1433.53,961.48 1437.72,960.25 C1437.935,960.185 1438.067,959.969 1438.026,959.748 C1437.984,959.528 1437.784,959.373 1437.56,959.39 z" fill="#FFFFFF"/>
    <path d="M1375.34,711.22 L1375.33,711.2 C1375.247,710.943 1375.355,710.661 1375.59,710.52 Q1382.61,706.22 1390.54,703.58 C1400.32,700.32 1407.05,698.2 1416.51,697.24 Q1429.81,695.88 1433.76,695.92 Q1447.06,696.06 1454.5,697.65 C1459.86,698.8 1474.19,702.16 1476.2,707.33 C1476.266,707.489 1476.224,707.672 1476.095,707.785 C1475.966,707.898 1475.779,707.916 1475.63,707.83 C1468.21,703.75 1462.16,701.79 1452.68,699.88 Q1447,698.74 1441.39,698.48 Q1416.53,697.32 1392.15,705.19 Q1386.27,707.09 1375.99,711.52 C1375.865,711.575 1375.722,711.573 1375.598,711.516 C1375.474,711.458 1375.38,711.351 1375.34,711.22 z" fill="#000000"/>
    <path d="M1521.9,722.91 L1521.47,723.07 C1520.923,723.274 1520.319,723.237 1519.81,722.97 Q1511.93,718.97 1509.14,717.41 Q1503.15,714.04 1498.19,713.62 Q1488.59,712.79 1482.48,719.58 C1479.59,722.79 1478.22,726.21 1480.42,730.06 C1483.16,734.83 1487.54,737.41 1493.53,741.93 C1509.51,754.01 1525.58,761.78 1535.65,779.13 C1540.82,788.02 1544.58,796.36 1548.63,807.69 Q1552.6,818.78 1557.92,830.68 Q1559.93,835.16 1561.34,836.81 C1564.48,840.46 1574.15,845.48 1577.5,839.08 C1582.74,829.08 1579.11,813.71 1575.09,803.64 Q1572.41,796.93 1563.32,780.8 Q1551.95,760.61 1533.63,742.76 Q1528.74,737.99 1523.61,732.64 C1519.76,728.63 1513.05,725.59 1507.38,723.39 C1507.079,723.274 1506.846,723.031 1506.742,722.726 C1506.637,722.421 1506.673,722.086 1506.84,721.81 L1506.86,721.78 C1507.184,721.25 1507.826,721.007 1508.42,721.19 C1518.73,724.42 1524.13,729.89 1532.16,737.91 Q1536.72,742.45 1540.58,746.42 Q1554.5,760.74 1565.82,780.06 C1572.83,792.03 1578.74,803.61 1581.17,815.35 Q1583.33,825.79 1580.86,836.42 Q1580.21,839.24 1578.66,841.38 C1575.6,845.6 1571.19,845.1 1566.49,843.85 Q1560.79,842.32 1557.38,837.34 Q1553.64,831.88 1550.72,823.78 Q1547.25,814.19 1543.06,803.37 Q1537.69,789.48 1534.41,783.37 Q1526.21,768.06 1511.82,758.19 Q1492.26,744.78 1488.22,741.52 Q1482.28,736.74 1478.84,732.48 Q1474.77,727.44 1477.74,721.52 C1481.32,714.37 1490.7,709.41 1498.56,710.9 Q1500.74,711.32 1506.49,713.51 Q1511.8,715.54 1521.98,722.27 C1522.094,722.346 1522.155,722.479 1522.138,722.615 C1522.121,722.751 1522.029,722.865 1521.9,722.91 z" fill="#000000"/>
    <path d="M1430.38,713.27 Q1422.54,712.15 1416.52,715.38 Q1411.78,717.91 1410.78,721.24 C1409.59,725.19 1412.44,728.55 1416.18,729.76 Q1423.62,732.17 1430.24,727.3 C1436.02,723.04 1428.76,719.47 1425.7,717.55 C1425.443,717.391 1425.298,717.102 1425.323,716.799 C1425.348,716.497 1425.54,716.231 1425.82,716.11 Q1426.63,715.76 1427.94,716.09 Q1433.55,717.49 1435.52,722.17 C1437.71,727.36 1428.15,731.63 1424.54,732.47 Q1416.05,734.45 1410.18,728.86 C1407.33,726.14 1407.3,721.65 1409.68,718.26 C1414.39,711.56 1423.28,710.43 1430.68,712.55 C1430.826,712.589 1430.917,712.736 1430.89,712.89 L1430.88,712.91 C1430.834,713.147 1430.613,713.306 1430.38,713.27 z" fill="#000000"/>
    <path d="M1457.45,726.38 C1457.172,726.07 1457.118,725.619 1457.315,725.252 C1457.512,724.885 1457.918,724.68 1458.33,724.74 C1464.58,725.67 1464.29,732.8 1458.16,733.89 Q1451.83,735.02 1449.28,729.68 Q1448.53,728.12 1449.88,726.13 Q1452.53,722.27 1457.27,721.94 C1457.783,721.902 1458.244,722.259 1458.34,722.77 L1458.42,723.21 C1458.496,723.639 1458.229,724.051 1457.81,724.15 C1454.64,724.88 1451.24,726.04 1451.88,729.76 C1451.943,730.134 1452.166,730.463 1452.49,730.66 Q1456.11,732.86 1459.56,731.06 C1459.903,730.88 1460.143,730.552 1460.211,730.169 C1460.28,729.786 1460.168,729.392 1459.91,729.1 L1457.45,726.38 z" fill="#000000"/>
    <path d="M1543.35,859.23 C1543.382,859.343 1543.337,859.462 1543.24,859.52 Q1542.55,859.9 1543.11,863.2 C1543.17,863.546 1543.183,863.899 1543.15,864.25 Q1542.36,871.9 1540.21,879.96 C1539.35,883.2 1537.59,885.81 1535.92,889.44 C1535.577,890.172 1535.129,890.856 1534.59,891.47 Q1530.38,896.31 1529.61,896.84 Q1524.92,900.03 1520.65,903.64 C1520.067,904.137 1519.57,904.721 1519.18,905.37 Q1512.9,915.76 1506.8,922.7 Q1503.95,925.93 1496.38,931.91 C1491.64,935.67 1484.7,938.09 1480.17,940.74 C1479.578,941.09 1478.94,941.346 1478.28,941.5 Q1474.85,942.32 1471.15,943.72 C1466.75,945.42 1463.95,945.52 1459.37,946.78 Q1456.31,947.63 1452.72,947.73 C1450.56,947.81 1444.91,948.07 1441.63,947.29 C1437.73,946.36 1433.96,945.87 1429.56,944.49 C1429.288,944.4 1429,944.362 1428.71,944.38 L1405.91,945.69 C1405.865,945.695 1405.814,945.695 1405.76,945.69 L1383.45,944.73 C1382.987,944.704 1382.532,944.606 1382.1,944.44 Q1376.46,942.23 1370.18,941.85 C1370.098,941.848 1370.017,941.831 1369.94,941.8 L1353.99,936.23 C1353.868,936.187 1353.753,936.126 1353.65,936.05 Q1353.06,935.59 1342.46,928.84 C1333.45,923.1 1325.65,913.32 1324.05,902.57 Q1322.91,895 1323.9,888.96 Q1324.17,887.31 1324.11,878.77 C1324.1,876.97 1324.91,873.58 1324.32,872.07 Q1322.8,868.18 1322.24,864.47 C1322.175,864.052 1322.065,863.643 1321.91,863.25 L1319.44,857.13 C1319.374,856.967 1319.33,856.796 1319.31,856.62 L1318.32,847.31 C1318.279,846.943 1318.283,846.571 1318.33,846.2 Q1318.57,844.56 1318.67,839.54 Q1318.72,837.15 1319.43,833.34 Q1321.03,824.69 1322.94,817.59 Q1323.84,814.22 1325.07,811.84 C1326.98,808.2 1327.72,805.35 1329.23,802.25 Q1338.51,783.36 1354.24,769.5 Q1356.51,767.52 1365.53,762.13 Q1368.23,760.52 1373.5,758.33 Q1375.42,757.55 1381.35,754.31 Q1386.74,751.36 1395.4,750.12 C1398.3,749.7 1400.35,749.05 1402.32,748.37 C1403.083,748.096 1403.873,747.918 1404.67,747.84 Q1410.3,747.3 1415.37,746.39 C1420.27,745.53 1423.91,745.76 1430.54,745.5 Q1433.58,745.37 1441.46,746.51 C1446.46,747.24 1451.03,746.98 1456.16,748.5 Q1459.21,749.4 1461.5,749.47 C1463.82,749.55 1466.03,751.88 1468.36,752.33 Q1470.22,752.69 1473.38,754.86 Q1474.89,755.9 1478.69,757.61 Q1489.88,762.69 1498.39,771.49 Q1503.82,777.1 1508.56,787.08 Q1512.32,795.02 1515.51,804.52 C1516.09,806.27 1518.12,809.31 1519.52,811.11 Q1522.92,815.46 1527.27,821.09 Q1528.06,822.1 1528.95,823.62 Q1530.37,826.03 1530.51,826.25 Q1531.25,827.31 1534.26,832.62 C1536.64,836.81 1536.99,841.59 1539.42,845.93 C1539.502,846.078 1539.566,846.232 1539.61,846.39 L1543.35,859.23 z" fill="#000000"/>
    <path d="M1474.47,921.83 Q1479.26,921.56 1483.27,919.75 C1493.99,914.9 1504.8,907.1 1513.29,899.35 Q1516.88,896.06 1515.82,891.5 C1515.748,891.196 1515.866,890.878 1516.12,890.69 Q1516.72,890.24 1519.42,889.41 C1524.94,887.7 1529.5,883.22 1533.8,879.1 C1533.891,879.012 1534.031,878.999 1534.136,879.069 C1534.242,879.138 1534.285,879.272 1534.24,879.39 C1533.59,881.13 1533.21,882.82 1532.3,884.36 C1528.94,890.06 1525.39,894.09 1519.86,897.53 C1517.04,899.28 1514.78,901.82 1513.06,904.75 Q1508.87,911.86 1506.31,915.06 Q1502.52,919.81 1496.4,924.88 C1493.48,927.31 1490.01,928.81 1485.96,931.21 Q1482.67,933.17 1477.84,934.67 C1475.65,935.35 1474.29,936.13 1472,937.15 C1471.887,937.203 1471.77,937.244 1471.65,937.27 L1461.35,939.8 C1460.811,939.927 1460.263,940.027 1459.71,940.1 L1451.16,941.15 C1449.638,941.336 1448.095,941.353 1446.56,941.2 C1444.55,940.92 1441.7,940.74 1439.17,940.11 Q1430.66,938.02 1424.68,937.66 Q1420.82,937.43 1400.77,938.22 Q1396.24,938.4 1384.49,936.55 C1383.705,936.424 1382.909,936.363 1382.11,936.37 Q1378.36,936.38 1377.26,935.95 Q1372.62,934.15 1366.54,932.43 C1365.423,932.118 1364.344,931.692 1363.32,931.16 Q1358.7,928.79 1355.34,927.47 C1347.57,924.42 1339.74,917.25 1335.71,911.07 Q1334.2,908.76 1332.55,902.68 Q1331.61,899.23 1332.11,893.77 Q1332.96,884.45 1333.45,879.99 Q1333.7,877.67 1332.9,874.29 C1332.3,871.73 1332.38,869.52 1332.3,867.95 C1332.3,866.752 1331.982,865.578 1331.38,864.55 L1328.87,860.24 C1328.711,859.969 1328.599,859.671 1328.54,859.36 L1327.06,852.05 C1326.9,851.278 1326.807,850.492 1326.78,849.7 L1326.53,841.9 C1326.523,841.628 1326.554,841.356 1326.62,841.09 Q1327.66,836.99 1327.57,834.07 C1327.563,833.791 1327.594,833.516 1327.66,833.25 L1329.53,825.5 C1329.577,825.287 1329.633,825.076 1329.7,824.87 L1334.05,810.67 C1334.096,810.504 1334.164,810.343 1334.25,810.19 C1336.6,805.97 1337.89,801.97 1340.34,798.11 Q1347.52,786.79 1349.89,784.12 C1359.39,773.43 1368.31,764.43 1380.82,760.8 Q1384.75,759.66 1393.55,758.55 C1394.122,758.477 1394.685,758.343 1395.23,758.15 Q1398.35,757.03 1401.98,756.9 Q1404.47,756.81 1408.49,756.31 Q1420.06,754.88 1426.51,754.86 Q1438.05,754.82 1442.76,754.67 C1442.82,754.67 1442.877,754.673 1442.93,754.68 L1454.87,756.52 C1455.596,756.627 1456.311,756.787 1457.01,757 L1464.47,759.22 C1464.477,759.22 1464.484,759.224 1464.49,759.23 Q1466.68,760.6 1470.74,761.93 C1471.305,762.11 1471.851,762.344 1472.37,762.63 Q1480.21,766.89 1483.18,768.59 C1493.27,774.37 1502.13,786.06 1506.07,797.35 C1507.89,802.57 1509.14,804.79 1511.12,809.66 C1511.273,810.032 1511.474,810.385 1511.72,810.71 L1524.4,827.32 C1524.819,827.872 1525.181,828.465 1525.48,829.09 L1532.99,844.81 C1533.023,844.876 1533.043,844.947 1533.05,845.02 C1533.71,849.47 1536.09,855.44 1536.36,860.44 C1536.66,865.91 1536.8,872.97 1534.39,877.66 C1534.241,877.953 1534.003,878.191 1533.71,878.34 Q1532.1,879.15 1531.76,879.49 Q1524.41,886.79 1515.38,889.91 C1515.09,890.009 1514.854,890.222 1514.726,890.5 C1514.597,890.777 1514.588,891.095 1514.7,891.38 Q1516.27,895.34 1513.04,898.3 Q1504.85,905.79 1493.86,913.03 Q1483.83,919.62 1474.45,921.71 C1474.417,921.716 1474.394,921.747 1474.4,921.78 C1474.406,921.813 1474.437,921.836 1474.47,921.83 z" fill="#FFFFFF"/>
    <path d="M1369.1,780.21 Q1373.39,775.73 1379.73,774.2 Q1383.14,773.37 1392,772.1 C1392.126,772.084 1392.238,772.011 1392.303,771.901 C1392.368,771.792 1392.378,771.658 1392.33,771.54 Q1391.59,769.56 1393.57,768.18 Q1405.24,759.99 1420.19,761.66 C1425.98,762.31 1436.83,765.97 1438.33,772.72 C1438.403,773.06 1438.69,773.315 1439.04,773.35 Q1439.56,773.4 1442.54,772.83 Q1444.06,772.53 1448.64,773.32 C1448.995,773.382 1449.339,773.171 1449.44,772.83 Q1450.12,770.51 1451.73,769.96 C1459.31,767.36 1470.34,771.25 1476.94,775.19 C1479.79,776.9 1481.41,777.68 1482.64,780.27 C1482.695,780.391 1482.666,780.534 1482.568,780.624 C1482.471,780.715 1482.327,780.733 1482.21,780.67 C1478.27,778.32 1475.55,776.19 1471.45,774.46 C1466.53,772.38 1457.66,769.44 1452.6,771.44 C1452.055,771.655 1451.65,772.124 1451.516,772.696 C1451.383,773.268 1451.537,773.871 1451.93,774.31 Q1452.93,775.41 1452.82,776.43 C1452.764,777.027 1452.319,777.496 1451.714,777.598 C1451.108,777.7 1450.476,777.411 1450.14,776.88 Q1449.4,775.72 1448.39,775.05 C1447.998,774.789 1447.543,774.647 1447.08,774.64 Q1440.83,774.55 1438.12,775.33 C1436.03,775.92 1433.75,778.24 1431.46,779.39 C1429.18,780.53 1424.7,782.96 1422.99,781.62 C1422.716,781.403 1422.561,781.068 1422.566,780.705 C1422.572,780.342 1422.738,779.989 1423.02,779.74 C1426.89,776.34 1430.83,775.12 1436.47,773.48 C1436.909,773.348 1437.168,772.9 1437.06,772.46 C1436.39,769.64 1432.43,767.92 1430.86,767.13 C1418.4,760.89 1406.43,762.16 1395.35,769.54 C1395.171,769.659 1395.049,769.847 1395.013,770.059 C1394.977,770.271 1395.03,770.489 1395.16,770.66 L1395.98,771.74 C1396.242,772.086 1396.311,772.541 1396.164,772.948 C1396.016,773.356 1395.672,773.662 1395.25,773.76 L1391.04,774.7 C1390.714,774.773 1390.382,774.81 1390.05,774.81 C1384.2,774.76 1377.39,775.72 1372.48,778.84 Q1369.46,780.76 1369.37,780.77 C1369.232,780.776 1369.102,780.699 1369.043,780.576 C1368.984,780.453 1369.006,780.308 1369.1,780.21 z" fill="#000000"/>
    <path d="M1432.861,776.847 C1432.967,777.102 1431.319,778.026 1429.181,778.912 C1427.043,779.798 1425.225,780.309 1425.119,780.053 C1425.013,779.798 1426.661,778.874 1428.799,777.988 C1430.937,777.103 1432.755,776.591 1432.861,776.847 z" fill="#FFFFFF"/>
    <path d="M1338.01,814.91 Q1338.35,807.05 1342.34,801.93 C1352.49,788.87 1370.02,783.14 1386.47,783.48 C1387.06,783.493 1387.624,783.737 1388.04,784.16 L1388.21,784.32 C1388.343,784.449 1388.386,784.646 1388.318,784.818 C1388.25,784.991 1388.085,785.106 1387.9,785.11 C1379.36,785.43 1369.31,786.42 1361.45,790.15 C1351.58,794.85 1339.78,803.19 1338.65,815.05 C1338.639,815.19 1338.52,815.296 1338.38,815.29 L1338.36,815.29 C1338.265,815.288 1338.174,815.246 1338.108,815.175 C1338.043,815.104 1338.007,815.008 1338.01,814.91 z" fill="#000000"/>
    <path d="M1356.12,804.87 Q1354.9,799.14 1358.32,793.79 C1358.386,793.692 1358.513,793.656 1358.621,793.706 C1358.728,793.756 1358.783,793.876 1358.75,793.99 C1357.53,797.83 1356.42,801.26 1357.15,804.65 C1357.87,808.05 1360.28,810.72 1362.96,813.73 C1363.038,813.82 1363.039,813.954 1362.961,814.044 C1362.883,814.135 1362.751,814.154 1362.65,814.09 Q1357.34,810.6 1356.12,804.87 z" fill="#000000"/>
    <path d="M1466.53,801.59 C1466.324,801.611 1466.172,801.794 1466.19,802 L1466.19,802.01 C1466.195,802.073 1466.225,802.131 1466.275,802.171 C1466.324,802.211 1466.387,802.229 1466.45,802.22 C1471.2,801.7 1476.12,802.84 1480.16,805.51 Q1482.99,807.38 1484.13,807.99 C1484.542,808.216 1484.921,808.491 1485.26,808.81 C1497.17,820.17 1503.1,837.89 1486.36,848.76 Q1482.9,851.01 1480.75,851.72 Q1477.73,852.72 1475.24,853.56 C1466.1,856.67 1456.24,854.78 1448.18,849.71 C1447.788,849.464 1447.432,849.176 1447.12,848.85 Q1442.85,844.41 1440.52,840.5 C1438.31,836.79 1438.5,832.98 1438.19,827.93 C1437.7,819.78 1440.97,811.23 1446.65,805.85 Q1449.59,803.06 1455.29,800.31 C1456.018,799.959 1456.806,799.733 1457.62,799.64 C1460.88,799.27 1464.22,797.76 1468.03,799.33 C1468.376,799.472 1468.567,799.846 1468.48,800.21 Q1468.17,801.44 1466.53,801.59 z" fill="#000000"/>
    <path d="M1451.61,807.77 L1465.03,806.6 C1465.149,806.587 1465.271,806.59 1465.39,806.61 Q1472.68,807.69 1478.81,810.41 Q1480.74,811.26 1485.37,815.95 C1491.87,822.51 1496.33,833.84 1488.37,841.14 Q1476.6,851.93 1460.25,849.74 Q1453.85,848.88 1447.62,842.84 C1447.19,842.423 1446.835,841.94 1446.57,841.41 Q1443.87,836.01 1442.79,830.8 C1442.611,829.919 1442.571,829.018 1442.67,828.13 Q1443.65,819.49 1445.55,815.26 Q1446.67,812.76 1450.79,808.18 C1450.996,807.949 1451.288,807.802 1451.61,807.77 z" fill="#FFFFFF"/>
    <path d="M1389.79,810.37 L1402.86,808.18 C1403.455,808.081 1404.062,808.091 1404.65,808.21 C1412.33,809.72 1416.96,810.52 1421.49,817.07 Q1426.7,824.59 1427.5,833.01 Q1428.28,841.24 1423.24,848.48 Q1417.74,856.4 1407.65,861.15 Q1405.68,862.08 1403.61,862.51 Q1401.56,862.94 1400.39,863.2 Q1391.71,865.07 1384.9,862.74 Q1371.75,858.23 1369.61,844.36 C1368.91,839.82 1370.03,836.19 1370.37,831.58 C1370.8,825.78 1374.83,819.21 1378.68,814.71 Q1382.8,809.89 1388.98,808.53 C1389.37,808.439 1389.773,808.613 1389.976,808.96 C1390.179,809.306 1390.136,809.747 1389.87,810.05 Q1389.73,810.22 1389.71,810.27 C1389.703,810.297 1389.708,810.326 1389.725,810.347 C1389.741,810.367 1389.766,810.376 1389.79,810.37 z" fill="#000000"/>
    <path d="M1379.92,819.73 L1379.62,820.55 C1379.494,820.913 1379.633,821.315 1379.957,821.522 C1380.28,821.729 1380.703,821.687 1380.98,821.42 C1385.37,817.02 1391.07,816.24 1398.71,814.52 C1398.869,814.48 1399.031,814.46 1399.19,814.46 L1407.1,814.37 C1407.299,814.37 1407.497,814.394 1407.69,814.44 Q1413.5,815.92 1416.7,819.3 C1419.42,822.17 1422.08,826.83 1422.8,830.74 C1425.41,844.91 1415.24,853.18 1403.01,857.5 Q1400.08,858.53 1397.68,858.66 Q1393.53,858.89 1392.65,859.09 C1392.247,859.176 1391.827,859.19 1391.41,859.13 Q1385.8,858.3 1382.32,856.41 C1376.95,853.49 1375.06,846.58 1374.41,840.35 Q1373.97,836.06 1374.94,832.21 C1376.03,827.93 1377.6,822.66 1379.74,819.64 C1379.765,819.59 1379.825,819.57 1379.875,819.595 C1379.925,819.62 1379.945,819.68 1379.92,819.73 z" fill="#FFFFFF"/>
    <path d="M1369.54,923.33 C1369.595,923.344 1369.629,923.4 1369.615,923.455 C1369.601,923.51 1369.545,923.544 1369.49,923.53 C1363.1,922.73 1351.35,917.89 1347.46,911.64 Q1343.35,905.03 1347.65,899.17 C1347.828,898.922 1347.779,898.579 1347.54,898.39 Q1341.98,893.94 1340.89,889.1 C1339.06,880.83 1339.7,869.92 1348.73,866.61 C1348.908,866.537 1349.027,866.368 1349.038,866.176 C1349.049,865.984 1348.948,865.803 1348.78,865.71 L1346.15,864.35 C1345.839,864.19 1345.553,863.984 1345.3,863.74 Q1337.3,855.69 1338.37,845.22 Q1338.96,839.35 1344.06,837.49 C1344.496,837.335 1344.724,836.856 1344.57,836.42 Q1342.44,830.34 1345.12,824.93 Q1346.41,822.36 1348.95,820.77 C1349.263,820.578 1349.653,820.562 1349.98,820.73 L1350.53,821.01 C1350.696,821.096 1350.801,821.267 1350.803,821.452 C1350.805,821.638 1350.704,821.807 1350.54,821.89 C1340.86,826.97 1347.22,841.38 1351.75,847.69 C1351.832,847.798 1351.831,847.946 1351.749,848.056 C1351.667,848.165 1351.522,848.212 1351.39,848.17 C1347.83,847.05 1346.33,842.04 1345.26,838.79 C1345.207,838.63 1345.08,838.506 1344.92,838.456 C1344.759,838.406 1344.584,838.438 1344.45,838.54 C1337.77,843.52 1339.41,854.05 1343.95,859.65 Q1347.03,863.47 1350.99,865.87 C1351.181,865.99 1351.282,866.213 1351.245,866.434 C1351.207,866.655 1351.039,866.828 1350.82,866.87 C1345.51,867.86 1343.61,871.7 1342.26,876.58 C1339.79,885.41 1342.89,897.65 1353.72,898.41 C1353.954,898.413 1354.149,898.591 1354.172,898.825 C1354.196,899.058 1354.039,899.272 1353.81,899.32 Q1351.91,899.81 1349.43,899.34 C1349.046,899.268 1348.66,899.42 1348.44,899.73 C1339.4,912.7 1360.9,920.39 1369.54,923.33 z" fill="#000000"/>
    <path d="M1467.33,827.23 C1467.33,829.837 1465.217,831.95 1462.61,831.95 C1460.003,831.95 1457.89,829.837 1457.89,827.23 C1457.89,824.623 1460.003,822.51 1462.61,822.51 C1465.217,822.51 1467.33,824.623 1467.33,827.23 z" fill="#000000"/>
    <path d="M1401.117,835.92 C1399.335,834.187 1399.423,831.207 1401.314,829.263 C1403.204,827.319 1406.181,827.147 1407.963,828.88 C1409.745,830.613 1409.657,833.593 1407.766,835.537 C1405.876,837.481 1402.899,837.653 1401.117,835.92 z" fill="#000000"/>
    <path d="M1613.3,968.71 L1592.42,964.25 C1591.978,964.156 1591.518,964.296 1591.2,964.62 Q1588.05,967.83 1583.81,970.05 Q1582.03,970.98 1581.87,970.07 C1581.857,969.986 1581.879,969.9 1581.93,969.83 L1586.46,963.59 C1586.521,963.504 1586.536,963.394 1586.499,963.297 C1586.463,963.2 1586.38,963.129 1586.28,963.11 Q1560.69,958.23 1534,957.87 Q1521.16,957.69 1497.99,959.27 C1497.619,959.292 1497.285,959.049 1497.19,958.69 L1497.18,958.67 C1497.104,958.359 1497.29,958.043 1497.6,957.96 Q1508.7,955.15 1523.5,954.81 Q1556.69,954.05 1589.19,960.19 C1589.401,960.233 1589.619,960.156 1589.76,959.99 Q1595.9,952.8 1599.73,945.03 C1601.76,940.91 1602.63,935.83 1604.03,930.97 C1604.25,930.211 1604.404,929.439 1604.49,928.66 Q1605.55,918.79 1605.58,918.44 Q1607.67,897.86 1604.2,876.28 Q1603.67,873.04 1600.32,854.49 C1599.98,852.58 1599.01,847.7 1599.97,846.04 C1600.111,845.801 1600.388,845.675 1600.661,845.727 C1600.934,845.778 1601.146,845.996 1601.19,846.27 Q1602.34,853.63 1605,864.72 C1608.42,879.02 1610.19,892.75 1610.43,906.5 Q1610.63,918.16 1609.43,925 Q1609.37,925.34 1608.13,931.99 C1606.63,940.02 1603.86,947.53 1599.8,954.57 Q1597.74,958.15 1594.7,960.74 C1594.603,960.823 1594.554,960.95 1594.57,961.077 C1594.586,961.204 1594.665,961.314 1594.78,961.37 C1597.93,962.94 1601.99,963.12 1605.19,964.56 Q1610.98,967.16 1613.41,968.41 C1613.488,968.444 1613.526,968.532 1613.497,968.612 C1613.468,968.692 1613.381,968.735 1613.3,968.71 z" fill="#000000"/>
    <path d="M1509.86,882.25 C1518.17,878.5 1529.02,867.76 1530.69,858.5 C1531.28,855.19 1527.45,851.06 1524.7,848.43 Q1524.38,848.12 1524.34,847.87 C1524.324,847.716 1524.388,847.565 1524.51,847.469 C1524.632,847.374 1524.794,847.348 1524.94,847.4 C1531.89,849.82 1535.29,856.81 1531.66,863.64 Q1527.35,871.73 1519.79,877.5 Q1513.78,882.09 1509.99,882.68 C1509.882,882.688 1509.783,882.621 1509.752,882.517 C1509.721,882.414 1509.766,882.303 1509.86,882.25 z" fill="#000000"/>
    <path d="M1510.774,852.713 L1511.003,852.786 C1511.14,852.83 1511.215,852.976 1511.171,853.113 L1508.273,862.139 C1508.229,862.276 1508.083,862.351 1507.946,862.307 L1507.717,862.234 C1507.581,862.19 1507.505,862.044 1507.549,861.907 L1510.447,852.881 C1510.491,852.744 1510.638,852.669 1510.774,852.713 z" fill="#000000"/>
    <path d="M1416.63,873.02 L1416.68,872.85 C1416.76,872.594 1416.991,872.415 1417.259,872.401 C1417.527,872.388 1417.775,872.543 1417.88,872.79 Q1423.45,885.4 1433.09,888.46 Q1436.95,889.68 1440.23,888.93 Q1444.21,888.01 1446.95,885.96 Q1453.64,880.93 1455.06,879.3 C1457.7,876.27 1461.78,870.59 1464.6,871.25 C1465.194,871.389 1465.704,871.767 1466.003,872.291 C1466.302,872.815 1466.363,873.436 1466.17,874 Q1464.99,877.44 1463.05,880.04 C1457.77,887.14 1450.42,892.43 1441.71,894.38 C1439.68,894.84 1436.3,894.09 1433.69,893.8 C1426.06,892.95 1419.33,882.12 1416.73,875.71 C1416.381,874.851 1416.346,873.898 1416.63,873.02 z" fill="#000000"/>
    <path d="M1362.84,878.7 C1362.842,878.692 1362.848,878.685 1362.855,878.681 C1362.863,878.677 1362.872,878.677 1362.88,878.68 L1363.6,878.89 C1363.735,878.932 1363.811,879.079 1363.77,879.22 L1360.43,890.35 C1360.411,890.421 1360.365,890.481 1360.302,890.516 C1360.24,890.552 1360.167,890.561 1360.1,890.54 L1359.38,890.32 C1359.367,890.316 1359.359,890.303 1359.36,890.29 L1362.84,878.7 z" fill="#000000"/>
    <path d="M1483.22,905.11 C1479.29,908.03 1473.92,911.75 1469.14,912.68 C1469.003,912.707 1468.866,912.632 1468.815,912.502 C1468.764,912.372 1468.812,912.224 1468.93,912.15 Q1476.75,907.16 1481.9,903.34 Q1487.06,899.51 1494.09,893.47 C1494.194,893.378 1494.35,893.373 1494.46,893.458 C1494.57,893.544 1494.604,893.696 1494.54,893.82 C1492.26,898.13 1487.15,902.19 1483.22,905.11 z" fill="#000000"/>
    <path d="M1380.88,909.97 Q1375.35,907.74 1374.25,906.83 Q1370.83,903.99 1368.68,901.93 C1367.24,900.56 1364.08,899.78 1363.58,897.75 C1363.481,897.346 1363.648,896.923 1363.997,896.695 C1364.346,896.468 1364.8,896.486 1365.13,896.74 Q1365.98,897.39 1376.13,906.33 Q1377.96,907.94 1378.68,908.33 Q1380.69,909.42 1381.02,909.75 C1381.081,909.789 1381.099,909.869 1381.06,909.93 C1381.021,909.991 1380.941,910.009 1380.88,909.97 z" fill="#000000"/>
    <path d="M1571.95,907.55 Q1570.6,907.49 1567.51,907.06 C1562.5,906.36 1555.91,908.17 1555.5,913.93 Q1555.18,918.52 1559.57,920.18 Q1567.47,923.17 1573.35,917.8 C1573.597,917.579 1573.765,917.285 1573.83,916.96 C1574.36,914.38 1570.41,911.53 1569.57,910.57 C1569.349,910.317 1569.249,909.98 1569.301,909.664 C1569.352,909.347 1569.549,909.089 1569.83,908.97 C1572.03,908.04 1574.8,911.84 1576.26,913.97 C1577.62,915.96 1575.48,919.34 1573.94,920.38 Q1565.77,925.88 1558,921.72 C1554.02,919.59 1551.75,915.36 1553.44,911.27 C1556.43,904.01 1566.11,902.52 1572.33,906.29 C1572.594,906.451 1572.716,906.771 1572.627,907.067 C1572.537,907.363 1572.259,907.562 1571.95,907.55 z" fill="#000000"/>
    <path d="M1762.81,923.38 Q1768.19,926.76 1778.2,934.22 Q1782.01,937.06 1785.53,940.8 Q1789.89,945.44 1792.45,947.76 Q1794.57,949.67 1798.47,956.91 C1798.77,957.457 1798.895,958.085 1798.83,958.71 Q1796.73,978.05 1782.27,990.76 Q1776.95,995.45 1770.09,998.2 C1769.958,998.251 1769.811,998.242 1769.688,998.177 C1769.565,998.111 1769.478,997.995 1769.45,997.86 L1768.01,990.74 C1767.97,990.534 1767.906,990.333 1767.82,990.14 C1765.87,985.86 1764.47,980.61 1761.81,976.79 Q1757.02,969.91 1754.6,967.37 Q1753.74,966.47 1746.68,960.26 C1742.78,956.82 1739.16,955.08 1734.36,953.54 C1733.614,953.303 1733.124,952.591 1733.17,951.81 C1733.26,950.25 1733.45,948.72 1733.25,947.07 Q1731.46,932.3 1721.12,921.63 C1717.57,917.96 1710.62,913.14 1705.29,914.99 C1704.935,915.108 1704.694,915.436 1704.687,915.809 C1704.68,916.183 1704.91,916.52 1705.26,916.65 C1712.22,919.33 1717.37,922.18 1721.81,928.48 Q1728.78,938.39 1728.9,950.51 C1728.899,950.635 1728.844,950.752 1728.748,950.83 C1728.653,950.908 1728.528,950.937 1728.41,950.91 C1721.03,949.26 1711.48,948.06 1703.77,949.04 Q1701.93,949.27 1693.69,952.45 C1693.574,952.497 1693.443,952.494 1693.328,952.441 C1693.213,952.389 1693.123,952.291 1693.08,952.17 Q1688.94,940.56 1683.76,933.28 Q1679.76,927.66 1672.52,922.67 C1672.427,922.606 1672.378,922.495 1672.393,922.384 C1672.407,922.272 1672.484,922.178 1672.59,922.14 Q1676.37,920.76 1687.11,917.1 C1694.8,914.48 1700.25,914.19 1709.81,912.86 Q1715.91,912.01 1719.25,912.24 C1723.88,912.54 1727.24,911.74 1731.88,912.52 Q1743.95,914.54 1748.47,916.05 C1755.5,918.38 1762.1,926.73 1763.92,933.27 Q1766.27,941.7 1765.14,947.97 Q1763.72,955.83 1758.03,968.93 C1757.874,969.294 1757.888,969.708 1758.068,970.059 C1758.248,970.409 1758.576,970.659 1758.96,970.74 L1759.36,970.83 C1760.029,970.968 1760.71,970.681 1761.07,970.11 C1766.05,962.2 1768.96,955.64 1769.6,946.55 Q1770.52,933.49 1762.69,923.51 C1762.664,923.475 1762.667,923.427 1762.696,923.395 C1762.725,923.363 1762.773,923.357 1762.81,923.38 z" fill="#FFFFFF"/>
    <path d="M1407.33,914.17 Q1401.49,916.83 1394.75,915.98 C1394.684,915.974 1394.615,915.894 1394.58,915.78 Q1394.57,915.74 1394.57,915.71 C1394.571,915.666 1394.599,915.624 1394.649,915.596 C1394.698,915.567 1394.764,915.554 1394.83,915.56 Q1399.98,916.02 1407.2,913.82 C1407.29,913.805 1407.378,913.856 1407.41,913.941 C1407.442,914.027 1407.408,914.123 1407.33,914.17 z" fill="#000000"/>
    <path d="M1387.181,921.329 C1387.123,921.361 1386.655,920.617 1386.135,919.668 C1385.615,918.718 1385.241,917.923 1385.299,917.891 C1385.357,917.859 1385.825,918.603 1386.345,919.552 C1386.865,920.502 1387.239,921.297 1387.181,921.329 z" fill="#000000"/>
    <path d="M1467.02,923.06 Q1463.72,924.79 1461.95,924.89 Q1455.07,925.29 1445.73,921.54 Q1444.23,920.95 1440.98,921.77 Q1436.06,923.02 1427.55,925.53 C1422.58,927 1416.19,926.32 1412.37,922.41 C1412.215,922.243 1412.21,921.986 1412.358,921.812 C1412.506,921.639 1412.76,921.604 1412.95,921.73 C1418.83,925.79 1424.75,925.56 1432.09,923.6 Q1439.05,921.75 1441.74,921.03 C1443.168,920.652 1444.678,920.708 1446.08,921.19 Q1449.88,922.5 1453.17,923.58 Q1454.74,924.09 1461.36,924.7 C1461.722,924.733 1462.084,924.685 1462.42,924.56 L1466.95,922.89 C1466.997,922.871 1467.051,922.893 1467.07,922.94 C1467.089,922.987 1467.067,923.041 1467.02,923.06 z" fill="#000000"/>
    <path d="M1388.88,923.17 L1395.69,927.63 C1395.723,927.638 1395.743,927.672 1395.735,927.705 C1395.727,927.738 1395.693,927.758 1395.66,927.75 Q1395.53,927.74 1395.33,927.67 Q1391.58,926.07 1388.83,923.22 C1388.826,923.206 1388.829,923.19 1388.84,923.18 C1388.85,923.17 1388.866,923.166 1388.88,923.17 z" fill="#000000"/>
    <path d="M1500.07,1096.81 C1500.104,1096.833 1500.146,1096.84 1500.185,1096.83 C1500.223,1096.821 1500.255,1096.795 1500.27,1096.76 L1500.41,1096.44 C1500.437,1096.376 1500.416,1096.303 1500.36,1096.27 L1494.39,1092.15 C1494.147,1091.979 1493.951,1091.749 1493.82,1091.48 C1492.33,1088.29 1490.24,1086.09 1488.5,1083.13 Q1485.76,1078.47 1480.59,1071.71 C1478.44,1068.9 1475.3,1066.74 1471.29,1066.67 Q1467.63,1066.61 1460.26,1065.59 Q1459.64,1065.51 1454.22,1066.51 C1448.2,1067.63 1442.73,1071.91 1439.44,1076.52 Q1436.56,1080.57 1435.05,1087.73 Q1431.92,1102.6 1436.45,1116.92 C1436.544,1117.221 1436.479,1117.55 1436.276,1117.792 C1436.074,1118.035 1435.763,1118.158 1435.45,1118.12 Q1425.94,1116.91 1417.97,1117.44 C1417.797,1117.447 1417.623,1117.437 1417.45,1117.41 L1413.5,1116.74 C1413.101,1116.674 1412.696,1116.644 1412.29,1116.65 Q1405.95,1116.81 1401.01,1116.12 Q1394.91,1115.26 1390.49,1115.02 Q1377.29,1114.3 1377.05,1114.33 C1376.679,1114.376 1376.306,1114.31 1375.98,1114.14 Q1374.66,1113.44 1372.48,1113.06 C1369.02,1112.46 1366.27,1112.7 1362.65,1111.56 Q1357.55,1109.95 1352.25,1110.32 C1351.948,1110.34 1351.649,1110.285 1351.38,1110.16 L1347.77,1108.56 C1347.637,1108.507 1347.503,1108.464 1347.37,1108.43 Q1330.94,1104.87 1316.86,1099.58 C1312.74,1098.03 1308.17,1095.28 1304.16,1094.38 C1304.021,1094.347 1303.889,1094.29 1303.77,1094.21 L1295.63,1088.59 C1295.582,1088.56 1295.559,1088.503 1295.573,1088.448 C1295.586,1088.394 1295.634,1088.354 1295.69,1088.35 Q1299.68,1087.78 1306.26,1087.01 Q1309.47,1086.63 1310.75,1086.71 C1312.73,1086.83 1314.42,1086.18 1316.74,1086.17 Q1325.33,1086.15 1332.46,1082.19 C1334.7,1080.95 1336.39,1078.02 1337.38,1075.63 Q1339.79,1069.74 1337.78,1064.48 C1335.21,1057.79 1331.31,1052.77 1324.5,1049.12 C1317.63,1045.43 1311.79,1045.01 1302.45,1044.15 C1297.58,1043.7 1293.66,1044.44 1288.53,1045.34 C1287.973,1045.442 1287.394,1045.317 1286.92,1044.99 L1285.16,1043.78 C1285.021,1043.682 1284.964,1043.505 1285.02,1043.345 C1285.076,1043.185 1285.231,1043.081 1285.4,1043.09 Q1290.17,1043.34 1294.28,1041.22 C1294.595,1041.06 1294.793,1040.738 1294.795,1040.384 C1294.797,1040.029 1294.603,1039.7 1294.29,1039.53 Q1292.09,1038.37 1289.48,1038.33 Q1279.7,1038.19 1269.65,1039.08 C1269.544,1039.094 1269.436,1039.117 1269.33,1039.15 L1267.04,1039.91 C1266.739,1040.005 1266.419,1039.844 1266.32,1039.55 L1263.87,1032.53 C1263.85,1032.47 1263.833,1032.403 1263.82,1032.33 L1261.68,1019.97 C1261.673,1019.944 1261.673,1019.916 1261.68,1019.89 Q1261.85,1016.75 1261.17,1013.37 C1261.09,1012.958 1261.06,1012.539 1261.08,1012.12 L1261.47,1002.48 C1261.477,1002.334 1261.5,1002.186 1261.54,1002.04 C1262.37,998.87 1263.82,996.15 1267.24,995.2 C1267.559,995.108 1267.895,995.283 1268.01,995.6 C1268.3,996.42 1268.53,998.27 1269.14,999.38 Q1271.23,1003.25 1272.25,1006.43 C1273.86,1011.45 1278.92,1014.88 1283.51,1011.36 C1283.746,1011.18 1284.081,1011.197 1284.31,1011.4 Q1291.36,1017.75 1297.09,1019.88 C1300.4,1021.12 1302.35,1022.26 1305.55,1023.33 Q1312.33,1025.6 1321.24,1028.23 C1321.758,1028.383 1322.292,1028.47 1322.83,1028.49 C1326.93,1028.65 1331.32,1030.35 1334.94,1031.05 Q1353.26,1034.58 1355.24,1034.75 Q1357.65,1034.95 1365.44,1034.97 C1366.311,1034.977 1367.182,1035.074 1368.04,1035.26 Q1371.51,1036.04 1372.9,1036.13 Q1383.59,1036.79 1388.95,1036.56 Q1393.08,1036.39 1397.57,1036.78 Q1402.58,1037.22 1406.21,1036.34 C1407.003,1036.149 1407.828,1036.111 1408.64,1036.23 Q1413.94,1037.01 1421.65,1036.08 Q1423.33,1035.88 1426.66,1036.1 C1427.544,1036.16 1428.432,1036.123 1429.31,1035.99 Q1435.85,1034.99 1442.39,1035.31 C1443.202,1035.35 1444.015,1035.317 1444.82,1035.21 Q1450.56,1034.45 1454.13,1034.35 C1456.63,1034.27 1458.57,1033.03 1460.89,1033.32 Q1462.09,1033.46 1463.63,1033.25 Q1469.19,1032.49 1473.34,1032.35 C1477.44,1032.2 1482.56,1030.9 1485.51,1030.02 C1485.98,1029.875 1486.474,1029.81 1486.97,1029.83 L1490.63,1029.94 C1490.855,1029.947 1491.085,1029.92 1491.31,1029.86 Q1495.48,1028.68 1507.37,1026.65 C1511.28,1025.98 1515.06,1026.31 1518.44,1024.85 Q1522.11,1023.26 1526.23,1023.33 Q1526.95,1023.34 1530.32,1021.69 C1530.723,1021.499 1531.161,1021.387 1531.61,1021.36 Q1538.03,1020.99 1540.09,1020.34 Q1564.23,1012.7 1571.9,1010.33 Q1577.62,1008.57 1585.28,1004.49 C1585.932,1004.144 1586.611,1003.86 1587.31,1003.64 C1592.41,1002.04 1597.68,998.79 1600.46,997.35 C1605.63,994.65 1613.16,991.83 1618.51,987.71 Q1625.04,982.67 1633.58,977.55 C1633.958,977.326 1634.425,977.319 1634.81,977.53 C1639.11,979.84 1642.25,975.66 1643.18,971.93 Q1643.54,970.47 1643.87,966.73 C1643.89,966.508 1643.973,966.296 1644.11,966.12 L1650.74,957.18 C1650.862,957.026 1650.854,956.805 1650.72,956.66 L1650.53,956.45 C1650.478,956.388 1650.402,956.35 1650.321,956.344 C1650.24,956.338 1650.16,956.366 1650.1,956.42 L1644.99,961.05 C1644.866,961.167 1644.681,961.193 1644.53,961.114 C1644.379,961.035 1644.295,960.869 1644.32,960.7 Q1645.73,949.23 1645.47,937.34 C1645.44,936 1644.48,934.1 1644.53,933.34 C1644.537,933.211 1644.615,933.097 1644.732,933.042 C1644.849,932.988 1644.987,933.002 1645.09,933.08 Q1647.49,934.79 1651.14,932.84 Q1660.41,927.88 1669.49,924.01 C1669.761,923.893 1670.076,923.935 1670.31,924.12 C1673.15,926.37 1675.33,927.75 1677.47,930.39 Q1686.45,941.48 1689.34,954.92 C1689.351,954.962 1689.334,955.003 1689.3,955.02 L1672.2,966.34 C1672.071,966.424 1671.912,966.448 1671.765,966.406 C1671.617,966.364 1671.495,966.259 1671.43,966.12 Q1668.95,960.87 1665.21,957.58 C1663.03,955.67 1660.75,952.51 1659.19,951.57 Q1657.39,950.48 1651.92,947.12 C1648.45,944.99 1645.32,948.82 1648.17,951.38 Q1652.3,955.1 1653.23,956.77 C1653.409,957.088 1653.635,957.375 1653.9,957.62 Q1656.93,960.43 1657.7,961.79 C1661.14,967.87 1666.1,974.9 1668.3,982.14 Q1669.12,984.85 1670.44,988.76 Q1671.94,993.22 1672.07,995.5 Q1672.62,1004.76 1672.79,1005.77 C1673.73,1011.42 1673.17,1017.53 1673.81,1023.76 Q1674.09,1026.5 1673.15,1029.36 C1673.06,1029.634 1672.777,1029.797 1672.49,1029.74 Q1652.63,1025.48 1648.45,1024.62 C1643.96,1023.7 1639.59,1021.87 1635.81,1022.33 C1635.395,1022.383 1634.975,1022.345 1634.58,1022.22 Q1628.59,1020.38 1622.75,1020.55 C1619.59,1020.64 1617.44,1020.15 1614.61,1020.02 C1614.397,1020.013 1614.186,1020.027 1613.98,1020.06 L1601.49,1022.08 C1601.231,1022.12 1600.976,1022.187 1600.73,1022.28 C1595.01,1024.5 1591.72,1025.14 1588.87,1029.15 C1588.641,1029.468 1588.633,1029.894 1588.85,1030.22 L1589.33,1030.95 C1589.514,1031.223 1589.573,1031.565 1589.49,1031.89 Q1588.57,1035.56 1588.28,1036.47 C1586.98,1040.56 1587.38,1045.74 1588.6,1049.4 C1591.26,1057.39 1599.19,1059.53 1606.79,1061.28 Q1610.29,1062.09 1616.17,1062.41 Q1630.73,1063.2 1630.75,1063.2 Q1638.93,1063.5 1644.06,1064.45 Q1644.35,1064.5 1644.45,1064.63 C1644.538,1064.75 1644.571,1064.901 1644.54,1065.046 C1644.51,1065.191 1644.419,1065.316 1644.29,1065.39 C1639.72,1068.09 1635.38,1069.69 1631.03,1072.07 Q1618.92,1078.68 1612.21,1081.41 Q1607.97,1083.13 1606.38,1083.88 Q1601.64,1086.11 1600.63,1086.51 C1594.63,1088.88 1588.13,1091.84 1581.59,1093.24 C1576.74,1094.27 1573.79,1096.23 1569.19,1097.27 Q1562.08,1098.88 1555.08,1101.74 C1553.897,1102.219 1552.667,1102.571 1551.41,1102.79 C1547.01,1103.56 1540.18,1104.86 1534.63,1106.75 C1528.49,1108.85 1522.77,1110.28 1515.16,1111 Q1510.7,1111.42 1505.61,1112.76 C1505.003,1112.924 1504.368,1112.623 1504.11,1112.05 L1496.49,1095.39 C1496.403,1095.203 1496.453,1094.981 1496.614,1094.849 C1496.774,1094.716 1497.005,1094.704 1497.18,1094.82 L1500.07,1096.81 z" fill="#FFFFFF"/>
    <path d="M1397.663,928.174 C1397.651,928.228 1397.335,928.203 1396.958,928.118 C1396.581,928.033 1396.285,927.92 1396.297,927.866 C1396.309,927.812 1396.625,927.838 1397.002,927.922 C1397.379,928.008 1397.675,928.12 1397.663,928.174 z" fill="#000000"/>
    <path d="M1802.57,961.68 Q1806.16,967.94 1809.91,976.47 Q1810.96,978.86 1811.58,981.9 C1812.58,986.76 1814.06,991.77 1813.97,997.24 C1813.957,998.09 1813.711,998.92 1813.26,999.64 C1811.11,1003.08 1809.25,1005.63 1805.49,1008.02 Q1799.71,1011.71 1798.54,1012.27 Q1788.29,1017.24 1777.24,1019.83 C1776.917,1019.908 1776.581,1019.761 1776.42,1019.47 L1773.56,1014.29 C1773.288,1013.8 1773.093,1013.27 1772.98,1012.72 L1770.89,1002.34 C1770.833,1002.03 1770.999,1001.722 1771.29,1001.6 Q1797.77,990.52 1802.04,961.78 C1802.062,961.663 1802.154,961.572 1802.271,961.55 C1802.388,961.528 1802.506,961.579 1802.57,961.68 z" fill="#FFFFFF"/>
    <path d="M1204.28,995.26 Q1203.79,994.7 1203.43,994.1 Q1198.78,986.33 1197.94,978.25 C1197.9,977.852 1197.92,977.451 1198,977.06 Q1199.47,969.97 1200.38,966.97 C1201.57,963.06 1204.99,964 1208.06,963.23 C1208.718,963.072 1209.402,963.065 1210.06,963.21 C1214.38,964.17 1219.94,963.37 1224.34,964.56 Q1226.64,965.19 1230.86,965.35 C1230.986,965.357 1231.108,965.384 1231.22,965.43 L1245.41,970.5 C1245.545,970.552 1245.641,970.673 1245.662,970.816 C1245.682,970.959 1245.624,971.102 1245.51,971.19 Q1235.96,978.37 1235.76,989.6 C1235.67,994.34 1238.02,997.67 1240.63,1001.9 C1240.768,1002.152 1241.076,1002.255 1241.338,1002.137 C1241.599,1002.019 1241.727,1001.72 1241.63,1001.45 C1239.55,994.38 1239.98,986.85 1243.77,980.35 C1245.06,978.12 1247.92,975.98 1250.38,973.6 C1250.658,973.326 1251.085,973.269 1251.43,973.46 Q1252.48,974.05 1253.71,975.03 C1256.07,976.93 1259.47,977.59 1262.34,976.89 C1262.469,976.858 1262.605,976.882 1262.717,976.956 C1262.828,977.03 1262.906,977.147 1262.93,977.28 Q1264.14,984.53 1266.81,990.77 C1266.897,990.973 1266.882,991.205 1266.77,991.395 C1266.657,991.585 1266.46,991.71 1266.24,991.73 C1261.38,992.14 1257.74,994.4 1256.49,999.56 Q1254.45,1008.03 1254.48,1009.36 Q1254.59,1013.23 1253.72,1017.07 C1253.69,1017.198 1253.604,1017.306 1253.486,1017.361 C1253.368,1017.416 1253.233,1017.412 1253.12,1017.35 Q1250.87,1016.13 1247.47,1013.77 Q1238.49,1007.54 1233.04,1004.73 C1227.98,1002.12 1223.54,1001.04 1217.4,1001.5 Q1207.57,1002.25 1206.73,1002.42 Q1195.51,1004.66 1187.98,1008.26 C1183.92,1010.2 1182.18,1012.81 1179.99,1016.35 C1179.807,1016.647 1179.466,1016.808 1179.12,1016.76 Q1160.99,1014.26 1153.7,995.75 C1153.348,994.863 1153.437,993.865 1153.94,993.06 C1155.84,990 1158,986.54 1161.1,983.67 Q1166.84,978.36 1167.12,978.11 C1167.545,977.705 1168.022,977.362 1168.54,977.09 L1172.76,974.85 C1172.992,974.731 1173.211,974.579 1173.41,974.4 Q1176.34,971.69 1178.13,970.89 Q1183.23,968.63 1195.64,965.09 C1195.764,965.051 1195.899,965.089 1195.985,965.186 C1196.072,965.283 1196.093,965.422 1196.04,965.54 Q1193.59,971.29 1193.61,972.7 Q1193.67,977.67 1193.58,980.63 C1193.573,980.968 1193.617,981.302 1193.71,981.62 Q1195.24,986.88 1198.15,990.36 C1198.183,990.4 1198.217,990.437 1198.25,990.47 L1204.19,995.35 C1204.215,995.375 1204.255,995.375 1204.28,995.35 C1204.305,995.325 1204.305,995.285 1204.28,995.26 z" fill="#FFFFFF"/>
    <path d="M1518.91,987.63 C1518.512,987.753 1518.162,987.998 1517.91,988.33 L1516.69,989.93 C1516.383,990.328 1515.949,990.61 1515.46,990.73 C1513.01,991.35 1509.88,991.73 1506.9,992.66 Q1496.05,996.06 1487.25,997.45 Q1459.79,1001.77 1428.71,1004.53 Q1423.81,1004.97 1421.15,1005.01 C1415.61,1005.11 1411.97,1005.54 1406.91,1004.98 C1401.77,1004.42 1397.85,1004.28 1393.65,1002 C1384.39,996.99 1402.94,990.02 1406.13,988.85 Q1421.66,983.18 1437.4,979.75 C1440.16,979.15 1442.52,977.61 1445.18,977.62 Q1445.51,977.63 1448.4,977.11 Q1464.25,974.29 1468.47,974.13 Q1476.92,973.84 1482.07,973.58 Q1487.47,973.28 1493.21,973.76 C1499.29,974.26 1506.2,975.48 1512.35,977.64 Q1516.49,979.08 1520.58,979.4 C1523.8,979.65 1524.91,983.91 1522.83,986.15 C1521.78,987.29 1520.22,987.23 1518.91,987.63 z" fill="#000000"/>
    <path d="M1463.473,996.514 L1478.986,993.973 C1479.117,993.952 1479.24,994.04 1479.262,994.171 L1479.265,994.191 C1479.286,994.322 1479.198,994.445 1479.067,994.467 L1463.554,997.007 C1463.423,997.028 1463.299,996.94 1463.278,996.809 L1463.275,996.789 C1463.253,996.658 1463.342,996.535 1463.473,996.514 z" fill="#FFFFFF"/>
    <path d="M1407.44,995.82 Q1407.57,996.7 1406.01,996.58 Q1404.5,996.47 1404.47,996.26 Q1404.44,996.04 1405.85,995.49 Q1407.31,994.93 1407.44,995.82 z" fill="#FFFFFF"/>
    <path d="M1150.51,998.63 C1154.81,1010.79 1164.93,1019.1 1178,1019.43 C1178.136,1019.437 1178.264,1019.501 1178.348,1019.607 C1178.433,1019.713 1178.466,1019.849 1178.44,1019.98 C1177.86,1023.15 1176.72,1025.9 1176.01,1028.52 Q1174.31,1034.79 1173,1043.96 C1172.76,1045.65 1171.88,1047.08 1170.21,1047.74 Q1161.11,1051.29 1154.14,1050.25 C1146.76,1049.16 1137.3,1044.01 1133.99,1036.59 C1133.86,1036.291 1133.829,1035.958 1133.9,1035.64 C1134.58,1032.82 1134.85,1029.44 1135.92,1026.51 Q1140.37,1014.32 1143.1,1009.56 Q1145.69,1005.05 1146.87,1002.51 C1146.917,1002.41 1146.977,1002.313 1147.05,1002.22 L1150.03,998.54 C1150.095,998.462 1150.197,998.426 1150.296,998.445 C1150.396,998.463 1150.478,998.534 1150.51,998.63 z" fill="#FFFFFF"/>
    <path d="M1402.618,1001.406 C1402.583,1001.522 1400.984,1001.148 1399.047,1000.571 C1397.11,999.993 1395.568,999.431 1395.603,999.315 C1395.637,999.198 1397.236,999.572 1399.173,1000.149 C1401.11,1000.727 1402.652,1001.289 1402.618,1001.406 z" fill="#FFFFFF"/>
    <path d="M953.62,1000.311 C955.214,1000.6 954.625,1000.262 955.53,1001.02 L955.69,1001.2 C955.957,1001.522 956.061,1001.95 955.971,1002.357 C955.88,1002.764 955.607,1003.105 955.23,1003.28 Q950.51,1005.48 947.57,1007.55 Q933.88,1017.19 925.23,1031.09 Q921.98,1036.31 920.26,1042.31 Q917.96,1050.32 916.94,1054.29 C916.641,1055.459 916.48,1056.661 916.46,1057.87 C916.36,1064.37 916.2,1071.58 918.44,1077.07 C920.87,1083.01 922.24,1087.82 925.51,1091.99 C929.27,1096.77 933.53,1101.54 938.77,1104.93 Q948.12,1110.99 955.9,1113.57 Q959.16,1114.66 969.17,1116.85 Q974.43,1118 978.42,1117.78 C982.11,1117.57 986.33,1118.15 990.85,1117.92 Q1002.81,1117.3 1014.74,1114.88 C1015.302,1114.765 1015.748,1114.342 1015.89,1113.79 L1016.54,1111.32 C1016.593,1111.134 1016.667,1110.953 1016.76,1110.78 Q1021.55,1101.9 1026.21,1095.35 Q1028.39,1092.28 1030.55,1090.4 C1032.67,1088.54 1034.29,1086.09 1036.66,1084.04 Q1042.36,1079.1 1049.27,1074.76 C1055.02,1071.15 1061.67,1069.03 1067.94,1067.7 Q1074.71,1066.27 1081.18,1068.1 Q1087.38,1069.85 1089.85,1073.94 Q1092.67,1078.58 1090.84,1084.22 C1090.649,1084.807 1090.335,1085.349 1089.92,1085.81 Q1084.51,1091.78 1079.37,1095.35 C1076.22,1097.54 1070.67,1101.08 1065.62,1103.45 Q1050,1110.78 1034.37,1116.09 Q1027.17,1118.54 1021.41,1119.75 C1020.901,1119.855 1020.522,1120.287 1020.48,1120.81 Q1020.23,1123.57 1019.85,1125.25 C1018.48,1131.18 1019.95,1138.75 1022.48,1143.06 Q1027.92,1152.29 1038.77,1158.55 Q1044.06,1161.6 1056.94,1166.76 Q1064.21,1169.68 1075.6,1172.09 Q1077.41,1172.48 1094.59,1176.57 C1102.28,1178.41 1109.15,1178.79 1116.59,1179.78 C1116.69,1179.792 1116.779,1179.85 1116.833,1179.937 C1116.888,1180.023 1116.901,1180.131 1116.87,1180.23 L1116.79,1180.49 C1116.762,1180.582 1116.67,1180.641 1116.57,1180.63 Q1103.57,1178.85 1093.09,1178.35 Q1088.74,1178.15 1083.92,1177.4 C1076.11,1176.18 1073.82,1175.87 1066.17,1173.93 Q1062.13,1172.9 1057.57,1171.8 Q1052.66,1170.62 1045.77,1167.97 C1036.92,1164.57 1028.82,1159.55 1022.45,1153.36 Q1019.7,1150.69 1016.77,1145.16 C1012.85,1137.75 1012.35,1130.56 1013.14,1122.17 C1013.155,1122.037 1013.106,1121.904 1013.007,1121.813 C1012.908,1121.722 1012.772,1121.684 1012.64,1121.71 Q998.51,1124.42 983.74,1124.53 Q978.77,1124.57 975.34,1123.84 C971.57,1123.03 968.01,1123.29 964.16,1122.31 Q949.09,1118.47 940.02,1113.22 Q933.57,1109.48 925.13,1100.94 Q922.84,1098.62 920.71,1095.31 C916.99,1089.54 914.24,1085.76 912.8,1080.23 C910.98,1073.23 909.13,1065.05 910.46,1058.32 C911.25,1054.36 911.1,1051.58 912.22,1047.73 Q914.44,1040.09 915.25,1038.5 C918.33,1032.45 919.66,1029.2 922.95,1024.69 Q931.13,1013.48 942.68,1006.46 Q945.37,1004.82 952.94,1000.55 L953.62,1000.311 z M1074.66,1073.038 L1074.4,1073.05 Q1066.26,1073.94 1065.08,1074.38 Q1041.01,1083.31 1027.26,1105.25 Q1025.3,1108.37 1023.83,1112.05 C1023.79,1112.154 1023.811,1112.272 1023.884,1112.356 C1023.958,1112.44 1024.072,1112.476 1024.18,1112.45 Q1040.66,1108.37 1056.58,1101.27 C1060.46,1099.54 1064.13,1097.3 1067.2,1095.88 Q1072.2,1093.57 1075.01,1091.64 C1080.85,1087.65 1083.67,1086.27 1085.68,1080.4 C1086.62,1077.65 1083.45,1075.58 1081.24,1074.34 C1080.916,1074.155 1080.56,1074.026 1080.19,1073.96 L1074.92,1073.06 L1074.66,1073.038 z" fill="#000000"/>
    <path d="M1815.15,1001.91 Q1814.98,1007.77 1812,1015.23 Q1810.72,1018.44 1809.03,1020.49 C1803.43,1027.34 1798.96,1030.03 1789.73,1030.06 Q1782.53,1030.08 1779.18,1023.38 C1779.115,1023.252 1779.112,1023.1 1779.172,1022.97 C1779.233,1022.839 1779.35,1022.743 1779.49,1022.71 C1781.37,1022.23 1784,1022.12 1786.4,1021.1 C1790.97,1019.17 1794.78,1018.24 1798.98,1015.8 Q1804.3,1012.7 1805.55,1011.8 Q1811.06,1007.88 1814.87,1001.82 C1814.905,1001.758 1814.979,1001.729 1815.047,1001.75 C1815.115,1001.772 1815.158,1001.839 1815.15,1001.91 z" fill="#FFFFFF"/>
    <path d="M1407.998,1001.855 C1407.983,1001.959 1407.413,1001.965 1406.724,1001.868 C1406.034,1001.771 1405.488,1001.609 1405.502,1001.505 C1405.517,1001.401 1406.087,1001.395 1406.776,1001.492 C1407.466,1001.589 1408.012,1001.752 1407.998,1001.855 z" fill="#DEE5F5"/>
    <path d="M1741.92,1078.22 C1728.58,1076.48 1714.74,1082.93 1709.06,1095.57 C1708.727,1096.316 1708.822,1097.184 1709.31,1097.84 L1709.34,1097.88 C1709.528,1098.129 1709.829,1098.266 1710.14,1098.244 C1710.451,1098.221 1710.729,1098.043 1710.88,1097.77 Q1717.91,1084.94 1733.49,1081.21 Q1740.66,1079.48 1743.3,1079.94 C1743.629,1079.993 1743.94,1080.12 1744.21,1080.31 Q1745.02,1080.86 1745.57,1082.17 C1746.54,1084.48 1748.05,1086.9 1751.38,1092.5 Q1753.74,1096.46 1754.71,1099.25 C1755.95,1102.79 1757.62,1104.9 1758.75,1108.46 Q1759.13,1109.65 1762.38,1117.54 C1763.36,1119.93 1763.53,1121.6 1763.95,1123.68 C1764.07,1124.292 1764.24,1124.895 1764.46,1125.48 Q1765.14,1127.29 1766.81,1131.89 C1768.38,1136.21 1768.71,1140.01 1769.83,1144.39 Q1771.41,1150.52 1771.75,1156.75 C1771.774,1157.142 1771.562,1157.513 1771.21,1157.7 Q1762.41,1162.39 1762.06,1162.57 Q1747.95,1169.96 1732.76,1172.75 Q1729.76,1173.3 1727.15,1173.39 C1727.008,1173.396 1726.869,1173.344 1726.766,1173.246 C1726.662,1173.148 1726.603,1173.013 1726.6,1172.87 Q1726.29,1159.75 1725.53,1150.5 Q1725.13,1145.54 1723.74,1140.33 C1723.57,1139.695 1723.573,1139.022 1723.75,1138.38 C1727.13,1126.25 1740.78,1125.58 1753.21,1124.16 C1756.11,1123.82 1759.55,1123.17 1762.03,1122.78 C1762.2,1122.753 1762.347,1122.644 1762.423,1122.489 C1762.498,1122.334 1762.494,1122.151 1762.41,1122 Q1762.19,1121.59 1761.7,1121.56 C1751.92,1120.88 1739.71,1121.57 1730.64,1126.14 Q1727.68,1127.63 1723,1132.83 C1722.932,1132.91 1722.824,1132.944 1722.72,1132.916 C1722.617,1132.889 1722.536,1132.805 1722.51,1132.7 Q1719.13,1119.09 1716.52,1112.76 Q1715.75,1110.91 1711.43,1102.15 Q1710.27,1099.79 1708.87,1098.74 C1706.7,1097.12 1706.68,1094.14 1704.73,1092.1 C1700.31,1087.47 1696.48,1082.26 1691.62,1078.03 Q1684.34,1071.7 1677.6,1068.3 C1677.441,1068.22 1677.323,1068.078 1677.274,1067.907 C1677.225,1067.736 1677.249,1067.553 1677.34,1067.4 C1683.36,1056.95 1693.53,1052.78 1705.14,1051.27 C1705.192,1051.257 1705.229,1051.212 1705.231,1051.159 C1705.233,1051.106 1705.2,1051.057 1705.15,1051.04 C1691.34,1047.46 1681.28,1054.31 1673.46,1065.57 C1673.294,1065.805 1672.992,1065.896 1672.73,1065.79 C1668.98,1064.35 1663.46,1061.59 1658.35,1060.99 C1657.72,1060.917 1657.1,1060.752 1656.51,1060.5 Q1652.07,1058.64 1649.53,1058.45 Q1637.82,1057.53 1628.23,1056.28 C1628.128,1056.266 1628.036,1056.209 1627.979,1056.125 C1627.921,1056.041 1627.903,1055.937 1627.93,1055.84 C1630.76,1045.27 1636.69,1039.55 1646.16,1034.52 C1646.316,1034.444 1646.393,1034.265 1646.34,1034.099 C1646.287,1033.934 1646.121,1033.832 1645.95,1033.86 Q1638.59,1034.82 1633.52,1039.59 Q1626.34,1046.34 1624.78,1055.58 C1624.74,1055.838 1624.53,1056.036 1624.27,1056.06 Q1620.84,1056.42 1619.24,1056.21 Q1616.18,1055.81 1609,1055.72 C1599.67,1055.6 1592.75,1052.01 1592.18,1041.53 C1592,1038.33 1592.73,1032.14 1596.54,1030.97 Q1605.62,1028.17 1608.87,1027.84 C1611.16,1027.62 1614.21,1028.51 1617.07,1028.22 Q1620.73,1027.85 1624.14,1028.68 C1627.44,1029.49 1629.1,1029.37 1632.98,1029.47 C1633.644,1029.49 1634.3,1029.601 1634.93,1029.8 C1636.57,1030.31 1637.51,1030.76 1639.5,1031.07 Q1653.95,1033.29 1670.32,1038.21 C1670.617,1038.298 1670.857,1038.524 1670.97,1038.82 L1671.37,1039.91 C1671.428,1040.064 1671.543,1040.186 1671.69,1040.25 L1676.92,1042.57 C1677.293,1042.737 1677.718,1042.748 1678.101,1042.599 C1678.484,1042.451 1678.793,1042.156 1678.96,1041.78 L1679.18,1041.31 C1679.352,1040.916 1679.781,1040.701 1680.2,1040.8 Q1688.44,1042.73 1689.76,1043.22 Q1691.25,1043.78 1702.17,1048.28 Q1708.48,1050.88 1713.77,1054.1 Q1724.24,1060.46 1724.83,1060.88 Q1728.24,1063.36 1736.04,1070.9 C1738.48,1073.25 1740.86,1074.98 1742.26,1077.73 C1742.315,1077.841 1742.306,1077.974 1742.235,1078.076 C1742.164,1078.178 1742.043,1078.233 1741.92,1078.22 z" fill="#FFFFFF"/>
    <path d="M1132.55,1042.01 C1132.537,1041.916 1132.592,1041.825 1132.682,1041.794 C1132.772,1041.762 1132.871,1041.798 1132.92,1041.88 Q1141.44,1053.69 1156.27,1054.53 C1162.06,1054.86 1167.31,1052.08 1171.74,1048.87 C1171.866,1048.783 1172.033,1048.78 1172.162,1048.863 C1172.291,1048.946 1172.357,1049.099 1172.33,1049.25 Q1170.93,1056.71 1170.39,1062.61 Q1170.21,1064.55 1167.55,1069 C1167.224,1069.542 1166.748,1069.976 1166.18,1070.25 C1163.95,1071.32 1161.78,1072.93 1159.27,1073.83 Q1153.29,1075.97 1145.48,1076.93 C1141.25,1077.45 1139.27,1075.97 1137.08,1072.48 Q1133.87,1067.36 1131.91,1059.64 C1131.751,1059.011 1131.694,1058.363 1131.74,1057.72 Q1132.04,1053.09 1131.94,1052.34 C1131.848,1051.706 1131.878,1051.064 1132.03,1050.45 Q1132.82,1047.21 1132.55,1042.01 z" fill="#FFFFFF"/>
    <path d="M1281.65,1048.46 Q1281.93,1048.72 1282.43,1048.65 Q1286.35,1048.13 1289,1051.29 Q1292.23,1055.12 1293.37,1056.3 Q1296.09,1059.1 1297.42,1061.34 C1299.02,1064.04 1300.58,1065.81 1301.75,1068.87 Q1303.49,1073.44 1304.93,1080.21 C1304.959,1080.341 1304.931,1080.478 1304.853,1080.587 C1304.775,1080.696 1304.653,1080.766 1304.52,1080.78 Q1294.78,1081.7 1282.17,1084.8 C1275.61,1086.41 1268.52,1089.04 1263.96,1091.22 Q1258.41,1093.87 1258.03,1093.89 C1257.689,1093.903 1257.365,1094.042 1257.12,1094.28 Q1256.13,1095.26 1255.32,1095.59 C1247.49,1098.83 1243.13,1104.25 1237.57,1109.86 C1233.74,1113.72 1230.47,1119.43 1228.01,1122.83 Q1225.98,1125.63 1224.77,1128.33 C1223.52,1131.13 1221.95,1133.07 1220.89,1135.92 Q1216.48,1147.82 1217.45,1159.94 C1217.467,1160.128 1217.404,1160.314 1217.276,1160.453 C1217.149,1160.592 1216.969,1160.671 1216.78,1160.67 L1180.25,1160.67 C1180.101,1160.669 1179.961,1160.603 1179.865,1160.49 C1179.769,1160.376 1179.727,1160.227 1179.75,1160.08 C1180.72,1154.03 1181.68,1149.57 1182.61,1142.99 Q1183.4,1137.41 1185.07,1133.3 C1186.18,1130.54 1186,1127.65 1187.71,1125.13 C1188.98,1123.27 1189.46,1121.07 1190.06,1119.21 C1190.352,1118.29 1191.028,1117.545 1191.91,1117.17 Q1201.58,1113.04 1211.75,1113.29 Q1217.53,1113.43 1227.3,1115.21 Q1228.35,1115.4 1230.75,1116.61 C1230.88,1116.676 1231.034,1116.67 1231.158,1116.595 C1231.282,1116.519 1231.358,1116.385 1231.36,1116.24 L1231.36,1115.95 C1231.361,1115.678 1231.216,1115.426 1230.98,1115.29 Q1224.74,1111.58 1222.45,1111.06 Q1207.84,1107.77 1193.56,1112.43 C1193.463,1112.462 1193.356,1112.434 1193.287,1112.359 C1193.218,1112.283 1193.199,1112.174 1193.24,1112.08 C1195,1107.9 1196.94,1105.36 1199,1101.12 C1201.3,1096.39 1205.33,1092.72 1207.92,1088.18 C1208.179,1087.728 1208.481,1087.306 1208.82,1086.92 Q1208.88,1086.85 1214.25,1080.49 Q1215.97,1078.46 1218.81,1078.08 Q1227.91,1076.87 1237.18,1080.61 Q1239.02,1081.35 1244.91,1084.38 Q1251.49,1087.77 1256.55,1093.47 C1256.648,1093.579 1256.785,1093.645 1256.932,1093.653 C1257.078,1093.66 1257.222,1093.609 1257.33,1093.51 L1257.55,1093.31 C1257.672,1093.201 1257.697,1093.022 1257.61,1092.89 Q1253.83,1087.12 1250.84,1084.64 Q1237.55,1073.61 1220.14,1074.17 C1220.046,1074.178 1219.958,1074.122 1219.925,1074.033 C1219.892,1073.945 1219.923,1073.845 1220,1073.79 Q1223.53,1070.87 1228.96,1065.96 C1232.32,1062.92 1235.02,1061.36 1238.98,1058.67 Q1240.96,1057.33 1243.25,1056.2 Q1254.29,1050.78 1256.84,1049.71 C1257.207,1049.555 1257.628,1049.6 1257.95,1049.83 Q1258.55,1050.25 1258.81,1050.29 C1259.186,1050.354 1259.57,1050.259 1259.87,1050.03 Q1264.33,1046.67 1266.59,1046.31 Q1271.61,1045.51 1277.65,1044.1 Q1281.4,1043.22 1283.74,1046.39 C1283.946,1046.675 1283.907,1047.068 1283.65,1047.3 Q1283.14,1047.77 1281.82,1047.93 C1281.703,1047.947 1281.606,1048.03 1281.57,1048.142 C1281.534,1048.255 1281.565,1048.378 1281.65,1048.46 z" fill="#FFFFFF"/>
    <path d="M1292.45,1048.86 Q1295.23,1049.01 1305.47,1049.27 Q1308.81,1049.35 1316.56,1051.16 Q1322.81,1052.61 1326.48,1056.02 Q1331.71,1060.87 1333.28,1067.19 C1334.96,1073.96 1332.04,1075.78 1326.75,1078.47 C1324.1,1079.82 1318.62,1079.82 1316.59,1080.31 C1313.97,1080.95 1311.28,1079.96 1308.25,1080.82 C1308,1080.89 1307.733,1080.818 1307.552,1080.632 C1307.371,1080.447 1307.305,1080.178 1307.38,1079.93 C1308.06,1077.8 1308.43,1076.94 1308.22,1074.65 C1307.71,1069.12 1304.2,1061.97 1300.29,1057.88 C1297.26,1054.71 1295.96,1051.93 1292.27,1049.38 C1292.171,1049.304 1292.132,1049.173 1292.173,1049.055 C1292.213,1048.937 1292.325,1048.859 1292.45,1048.86 z" fill="#FFFFFF"/>
    <path d="M1443.03,1111.64 C1442.961,1111.724 1442.847,1111.755 1442.745,1111.72 C1442.642,1111.684 1442.573,1111.589 1442.57,1111.48 C1442.4,1108.48 1441.31,1105.71 1440.96,1102.47 Q1440.23,1095.5 1441.35,1089.34 Q1441.78,1087.01 1444.71,1080.69 C1448.27,1073.01 1456.8,1070.4 1465.01,1070.11 C1470.4,1069.93 1474.24,1074.65 1476.82,1078.78 Q1480.84,1085.22 1484.65,1089.31 C1484.745,1089.407 1484.771,1089.551 1484.717,1089.676 C1484.663,1089.802 1484.538,1089.886 1484.4,1089.89 C1481.27,1089.94 1479.53,1089.95 1477.46,1090.5 Q1457.17,1095.85 1443.03,1111.64 z" fill="#FFFFFF"/>
    <path d="M1462.77,1158.39 Q1460.24,1155.51 1458.51,1150.3 C1457.6,1147.56 1455.86,1145.6 1454.69,1143.03 Q1448.7,1129.89 1444.28,1118.34 C1443.842,1117.199 1443.987,1115.918 1444.67,1114.91 Q1445.96,1113.01 1449.58,1109.84 Q1457.66,1102.79 1466.61,1098.24 C1472.48,1095.25 1478.85,1093.77 1484.25,1093.01 C1486.27,1092.72 1487.15,1092.8 1488,1094.78 Q1489.6,1098.53 1493.11,1104.04 C1493.276,1104.3 1493.42,1104.577 1493.54,1104.87 L1496.49,1112.29 C1496.619,1112.613 1496.63,1112.977 1496.52,1113.32 L1496.13,1114.55 C1496.021,1114.89 1496.046,1115.256 1496.2,1115.57 Q1499.42,1122.38 1500.35,1124.74 C1502.15,1129.3 1505.75,1134.48 1507.31,1139.67 Q1508.75,1144.45 1510.96,1149.58 C1511.036,1149.754 1510.993,1149.957 1510.852,1150.084 C1510.711,1150.211 1510.505,1150.234 1510.34,1150.14 C1503.31,1146.19 1495.83,1145.28 1488.14,1145.58 C1479.07,1145.93 1468.52,1150.15 1463.52,1158.33 C1463.445,1158.457 1463.313,1158.539 1463.164,1158.551 C1463.016,1158.563 1462.869,1158.503 1462.77,1158.39 z" fill="#FFFFFF"/>
    <path d="M1524.37,1194.47 Q1510.3,1187.49 1495.09,1192.11 Q1485.71,1194.95 1478.84,1200.73 C1478.715,1200.835 1478.545,1200.868 1478.39,1200.817 C1478.235,1200.766 1478.118,1200.639 1478.08,1200.48 C1477.1,1196.28 1476.82,1193.79 1475.13,1189.73 Q1473.57,1185.97 1473.12,1182.51 C1473.034,1181.841 1472.845,1181.193 1472.56,1180.59 C1470.88,1177.02 1469.7,1171.81 1467.4,1167.98 Q1466.72,1166.83 1464.66,1162.51 C1464.501,1162.179 1464.544,1161.79 1464.77,1161.51 Q1468.84,1156.3 1472.13,1154.4 C1480.52,1149.56 1491.62,1147.66 1501.32,1150.36 Q1507.46,1152.06 1510.43,1153.03 C1511.476,1153.364 1512.311,1154.169 1512.69,1155.21 L1516.69,1166.27 C1516.743,1166.423 1516.777,1166.581 1516.79,1166.74 L1516.99,1169.58 C1517.003,1169.753 1517.037,1169.927 1517.09,1170.1 Q1518.08,1173.25 1519.93,1179.49 C1520.78,1182.37 1522.2,1185.35 1522.57,1187.95 C1522.623,1188.342 1522.727,1188.728 1522.88,1189.1 L1524.88,1193.99 C1524.945,1194.134 1524.912,1194.304 1524.797,1194.413 C1524.681,1194.521 1524.51,1194.544 1524.37,1194.47 z" fill="#FFFFFF"/>
    <path d="M1771.77,1160.52 C1771.863,1160.448 1771.988,1160.435 1772.094,1160.485 C1772.2,1160.536 1772.268,1160.643 1772.27,1160.76 Q1772.63,1169.65 1772.33,1178.16 Q1772.33,1178.26 1772.31,1181.35 Q1772.29,1185.49 1770.96,1189.97 C1770.847,1190.361 1770.562,1190.675 1770.19,1190.82 C1762.49,1193.79 1755.03,1197.05 1745.71,1198.88 C1745.325,1198.96 1744.935,1198.986 1744.55,1198.96 L1734.05,1198.23 C1733.903,1198.219 1733.765,1198.301 1733.705,1198.435 C1733.644,1198.57 1733.674,1198.727 1733.78,1198.83 Q1734.64,1199.68 1736.04,1200.26 Q1744.35,1203.68 1753.78,1201.01 Q1763.33,1198.3 1770.78,1192.1 C1770.868,1192.024 1770.994,1192.011 1771.096,1192.066 C1771.198,1192.122 1771.256,1192.235 1771.24,1192.35 C1770.02,1202.75 1767.91,1217.28 1757.75,1222.71 Q1742.05,1231.1 1725.82,1223.98 C1722.38,1222.47 1723.46,1214.86 1723.86,1211.8 Q1726.25,1193.48 1726.39,1175.47 C1726.39,1175.326 1726.448,1175.188 1726.552,1175.088 C1726.656,1174.988 1726.796,1174.935 1726.94,1174.94 Q1738.73,1175.44 1749.45,1171.8 C1756.78,1169.31 1765.31,1165.45 1771.77,1160.52 z" fill="#FFFFFF"/>
    <path d="M1180.49,1163.83 Q1197.41,1164.89 1212.47,1163.89 Q1215.07,1163.71 1216.86,1163.17 C1217.223,1163.062 1217.616,1163.115 1217.937,1163.316 C1218.259,1163.516 1218.478,1163.846 1218.54,1164.22 C1219.07,1167.54 1219.23,1171.26 1220.21,1174.68 Q1223.88,1187.6 1229.21,1198.82 C1229.301,1199.016 1229.29,1199.244 1229.179,1199.428 C1229.068,1199.611 1228.873,1199.725 1228.66,1199.73 Q1209.54,1200.35 1191.07,1205.84 Q1186.45,1207.22 1182.16,1209.64 C1182.096,1209.679 1182.017,1209.682 1181.951,1209.647 C1181.885,1209.612 1181.843,1209.545 1181.84,1209.47 Q1181.12,1199.72 1179.51,1185.82 Q1178.81,1179.77 1179.66,1164.57 C1179.67,1164.361 1179.764,1164.165 1179.92,1164.026 C1180.076,1163.887 1180.281,1163.816 1180.49,1163.83 z" fill="#FFFFFF"/>
    <path d="M1534.55,1246.47 C1534.556,1246.552 1534.517,1246.629 1534.447,1246.675 C1534.377,1246.72 1534.287,1246.726 1534.21,1246.69 C1525.59,1242.51 1518.15,1242.06 1507.75,1242.17 Q1494.91,1242.31 1483.41,1247.48 C1483.283,1247.541 1483.133,1247.527 1483.019,1247.443 C1482.906,1247.359 1482.849,1247.219 1482.87,1247.08 C1482.97,1246.36 1483.33,1245.36 1483.25,1244.6 Q1482.26,1235.66 1482.25,1231.96 C1482.24,1229.98 1481.34,1228.15 1481.17,1226.07 Q1480.5,1217.72 1480.43,1213.93 C1480.38,1210.8 1479.62,1208.6 1478.46,1205.43 C1478.258,1204.867 1478.453,1204.236 1478.94,1203.88 Q1483.7,1200.48 1490.72,1197.03 Q1494.39,1195.22 1502.46,1194.02 Q1513.98,1192.29 1524.65,1197.92 C1525.012,1198.111 1525.272,1198.451 1525.36,1198.85 L1531.02,1224.03 C1531.153,1224.649 1531.25,1225.278 1531.31,1225.91 C1531.31,1226.83 1531.51,1229.29 1531.85,1230.45 Q1533.94,1237.72 1534.55,1246.47 z" fill="#FFFFFF"/>
    <path d="M1248.31,1242.46 Q1241.67,1239.21 1233.7,1239.07 Q1221.76,1238.85 1210.25,1243.29 C1204.82,1245.39 1198.1,1249.07 1195.08,1254.07 Q1194.89,1254.37 1194.98,1254.62 C1195.047,1254.825 1195.201,1254.991 1195.4,1255.072 C1195.599,1255.153 1195.822,1255.141 1196.01,1255.04 C1202.68,1251.42 1207.37,1248.53 1213.51,1246.46 Q1224.23,1242.83 1235.87,1242.94 C1240.23,1242.98 1243.67,1243.82 1248.14,1244.14 C1249.349,1244.231 1250.379,1245.047 1250.74,1246.2 Q1253.14,1253.82 1253.59,1255.58 C1255.23,1261.97 1253.65,1265.04 1249.54,1270.14 C1249.288,1270.451 1248.984,1270.721 1248.64,1270.94 Q1241.04,1275.65 1238.9,1276.16 Q1224.8,1279.52 1209.93,1278.12 C1201.85,1277.36 1199.75,1273.47 1197.16,1265.94 Q1194.85,1259.24 1193.51,1256.57 C1193.151,1255.86 1192.886,1255.107 1192.72,1254.33 Q1190.86,1245.77 1189.36,1241.67 Q1187.77,1237.34 1187.12,1233.77 C1186.15,1228.42 1184.62,1224.81 1184.14,1220.09 Q1183.9,1217.61 1182.73,1214.5 C1182.435,1213.719 1182.817,1212.845 1183.59,1212.53 Q1193.7,1208.44 1204.76,1206.78 Q1224.34,1203.84 1230.57,1202.67 C1230.929,1202.605 1231.284,1202.791 1231.43,1203.12 Q1242.88,1228.14 1244.73,1232.03 Q1246.17,1235.04 1248.58,1242.22 C1248.602,1242.294 1248.578,1242.374 1248.521,1242.425 C1248.463,1242.477 1248.381,1242.49 1248.31,1242.46 z" fill="#FFFFFF"/>
    <path d="M1483.74,1250.75 Q1492.36,1247.32 1498.92,1246.4 Q1516.91,1243.87 1534.33,1248.68 C1534.78,1248.8 1535.107,1249.187 1535.15,1249.65 C1535.7,1255.49 1536.74,1259.99 1536.59,1265.48 Q1536.48,1269.57 1537.07,1275.35 Q1537.35,1278.04 1537.26,1279.65 C1537.13,1281.96 1537.59,1283.77 1537.04,1286.07 C1536.967,1286.381 1536.947,1286.702 1536.98,1287.02 Q1537.35,1290.38 1536.62,1294.53 C1536.555,1294.884 1536.363,1295.201 1536.08,1295.42 C1521.29,1306.74 1501.76,1306.28 1485.16,1299.4 C1483.2,1298.59 1481.4,1298.84 1481.79,1295.75 C1483.05,1285.75 1482.78,1277.07 1483.44,1267.36 Q1483.87,1261.09 1483.17,1255.53 Q1483.01,1254.22 1483.17,1251.53 C1483.195,1251.182 1483.416,1250.879 1483.74,1250.75 z" fill="#FFFFFF"/>
    <path d="M1482.14,1300.81 C1499.37,1309.78 1519.06,1310.71 1535.86,1299.98 C1535.999,1299.891 1536.172,1299.876 1536.324,1299.94 C1536.476,1300.004 1536.587,1300.139 1536.62,1300.3 C1537.26,1303.55 1535.86,1307.87 1535.79,1310.99 C1535.777,1311.672 1535.652,1312.351 1535.42,1313 C1534.56,1315.45 1534.15,1316.59 1533.7,1318.74 Q1532.75,1323.34 1532.09,1324.35 Q1529.38,1328.44 1526.95,1332.8 C1526.678,1333.284 1526.341,1333.725 1525.95,1334.11 C1521.43,1338.59 1515.44,1344.1 1509.27,1346.97 C1500.98,1350.83 1494.22,1353.23 1484.92,1351.04 C1482.16,1350.4 1479.22,1348.76 1476.62,1347.67 C1476.362,1347.562 1476.198,1347.306 1476.21,1347.03 L1476.56,1337.59 C1476.56,1337.524 1476.567,1337.453 1476.58,1337.38 C1477.38,1333.18 1478.23,1330.53 1478.17,1326.97 C1478.13,1323.77 1479.41,1320.8 1479.66,1317.51 Q1479.75,1316.35 1480.44,1312.11 C1481.06,1308.27 1480.52,1304.83 1481.5,1301.09 C1481.532,1300.959 1481.624,1300.851 1481.749,1300.797 C1481.873,1300.742 1482.018,1300.747 1482.14,1300.81 z" fill="#FFFFFF"/>
  </g>
</svg>
