<svg id="Calque_1" data-name="Calque 1" xmlns="http://www.w3.org/2000/svg" viewBox="0 0 16 16"><defs><style>.cls-1{fill:#131226;}</style></defs><path class="cls-1" d="M4.757,7.952A30.365,30.365,0,0,0,8.745,4.674c.785-.737-.4-1.913-1.178-1.179A24.764,24.764,0,0,1,3,7.086.842.842,0,0,0,2.827,8.4c1.42,1.452,3.041,2.582,3.944,4.46.465.968,1.9.122,1.439-.842A14.383,14.383,0,0,0,4.757,7.952Z"/><path class="cls-1" d="M11.975,4.029A24.764,24.764,0,0,1,7.4,7.62a.842.842,0,0,0-.169,1.309c1.42,1.452,3.041,2.583,3.943,4.46.466.968,1.9.122,1.44-.841A14.373,14.373,0,0,0,9.165,8.486a30.365,30.365,0,0,0,3.988-3.278C13.937,4.471,12.757,3.3,11.975,4.029Z"/></svg>