<svg data-name="Calque 1" xmlns="http://www.w3.org/2000/svg" viewBox="0 0 16 21"><path d="M5.85 12.4a4.044 4.044 0 002.92 2.59 6 6 0 001.68.11 6.481 6.481 0 01-3.31.63c-1.91-.14-4.05-1.19-4.42-3.26a6.213 6.213 0 011.71-5.41 4.414 4.414 0 013.55-1.2 4.928 4.928 0 00-1.65 1.97 6.471 6.471 0 00-.48 4.57z" fill="#fcfad8"/><path d="M10.45 15.1a6 6 0 01-1.68-.11 4.044 4.044 0 01-2.92-2.59 6.471 6.471 0 01.48-4.57 4.928 4.928 0 011.65-1.97 4.414 4.414 0 00-3.55 1.2 6.213 6.213 0 00-1.71 5.41c.37 2.07 2.51 3.12 4.42 3.26a6.481 6.481 0 003.31-.63zm.35-9.07a.685.685 0 01-.25.42.724.724 0 01-.52.2c-2.13.6-3.06 2.98-2.69 5.05.46 2.66 4.05 1.72 5.69 1.11.89-.34 1.32.95.63 1.44a.757.757 0 01-.22.67 8.26 8.26 0 01-6.53 2.41 6.145 6.145 0 01-5.74-4.43 7.8 7.8 0 012.3-7.15 5.76 5.76 0 017-.64.817.817 0 01.33.92z" fill="#131226"/></svg>