<svg class="mode" data-name="Calque 1" xmlns="http://www.w3.org/2000/svg" viewBox="0 0 16 21"><defs><style>.cls-2{fill:#131226}</style></defs><path d="M8.09 7.93a2.824 2.824 0 012.61 2.54 4.082 4.082 0 01-.52 1.86c-.47.71-.93.54-1.63.52-.85-.02-1.65-.04-2.17-.83a3.249 3.249 0 01-.46-1.51c.05-.76-.02-1.67.69-2.15a2.879 2.879 0 011.48-.43z" fill="#fcc016"/><path class="cls-2" d="M14.85 7.64c.63-.58 1.56.35.95.93a5.671 5.671 0 01-1.97.97c-.81.25-1.17-1.02-.35-1.29.25-.09.49-.2.73-.31.15-.06.32-.15.49-.23a1 1 0 01.19-.11zM15.43 13.07c.78.35.1 1.49-.66 1.15-.5-.22-.99-.71-1.41-.88-.78-.32-.44-1.6.35-1.29.63.25 1.11.75 1.72 1.02zM11.29 17.43a7.45 7.45 0 01-.87-1.85c-.29-.82 1-1.15 1.29-.36a6.523 6.523 0 00.73 1.53c.49.71-.66 1.37-1.15.68zM12.88 4.67c-.29.54-.66 1.03-.96 1.58a.673.673 0 01-1.16-.68c.31-.55.68-1.04.97-1.58.41-.76 1.56-.09 1.15.68zM7.05 5.08a6.818 6.818 0 01-.41-2.23c-.04-.86 1.29-.85 1.32 0a6.263 6.263 0 00.36 1.87c.27.81-1 1.15-1.27.36zM6.54 15.43c.32-.78 1.61-.44 1.29.35a16.9 16.9 0 00-.72 2.07.669.669 0 01-1.29-.35 16.332 16.332 0 01.72-2.07zM8.57 14.34a3.979 3.979 0 01-3.14-1.1 4.554 4.554 0 01-1-2.68 4.53 4.53 0 01.07-1.22 3.541 3.541 0 01.87-2.05 3.935 3.935 0 012.66-.91c2.09.23 4.24 1.82 4.2 4.09a5.512 5.512 0 01-1.09 3.13 2.693 2.693 0 01-2.57.74zm-.48-6.41a2.879 2.879 0 00-1.48.43c-.71.48-.64 1.39-.69 2.15a3.249 3.249 0 00.46 1.51c.52.79 1.32.81 2.17.83.7.02 1.16.19 1.63-.52a4.082 4.082 0 00.52-1.86 2.824 2.824 0 00-2.61-2.54zM3.96 7.21a9.267 9.267 0 01-1.72-1.22c-.66-.51 0-1.66.68-1.15a8.946 8.946 0 001.72 1.22c.78.34.1 1.48-.68 1.15zM2.48 13.78a4.587 4.587 0 01.71-.54c.77-.36 1.45.8.67 1.13a4.394 4.394 0 00-1.35 1.19c-.54.66-1.47-.27-.93-.93a6.568 6.568 0 01.9-.85zM2.67 9.35c.85-.08.85 1.24 0 1.33a10.022 10.022 0 01-2.19-.09.666.666 0 01-.46-.81.687.687 0 01.81-.48 6.656 6.656 0 001.84.05z"/></svg>