<svg id="Calque_1" data-name="Calque 1" xmlns="http://www.w3.org/2000/svg" viewBox="0 0 16 16"><defs><style>.cls-1{fill:#131226;}</style></defs><path class="cls-1" d="M6.4,12.426a60.626,60.626,0,0,0,5.362-5.9.736.736,0,0,0,.085-.157,1.136,1.136,0,0,0,.345-.09,3.278,3.278,0,0,0,1.622-1.426A.844.844,0,0,0,13.9,4.6a.756.756,0,0,0-.022-.779c-.613-.858-1.157-1.937-2.333-2.026a.968.968,0,0,0-.2.005.786.786,0,0,0-.533.243c-.53.526-1.2,1.126-1.193,1.935a.921.921,0,0,0,.015.152.341.341,0,0,0-.066.022.608.608,0,0,0-.745.283A15.045,15.045,0,0,1,6.5,6.954c-.863.911-1.716,1.83-2.62,2.7a.629.629,0,0,0-.18.309.927.927,0,0,0-.177.182,4.583,4.583,0,0,0-.768,2.018.831.831,0,0,0,.048.434.777.777,0,0,0-.142.11l-.308.308a.653.653,0,1,0,.923.923l.28-.28a.586.586,0,0,0,.637.194,4.108,4.108,0,0,0,2.1-1.34A.626.626,0,0,0,6.4,12.426ZM4,12.547a.285.285,0,0,0,.015-.052,4.518,4.518,0,0,1,.272-1.018c.235.185.478.359.721.535A2.972,2.972,0,0,1,4,12.547Zm6.422-6.4A55.715,55.715,0,0,1,5.9,11.077a.9.9,0,0,0-.117-.114c-.262-.19-.526-.374-.774-.581.83-.811,1.624-1.659,2.42-2.5A23.325,23.325,0,0,0,9.732,5.445,2.367,2.367,0,0,1,10.426,6.146Zm1.439-2.278c.1.137.2.278.291.42a2.164,2.164,0,0,1-.8.522.63.63,0,0,0-.233.18c-.085-.094-.171-.187-.261-.275a.757.757,0,0,0,.45-.691c.025-.044.052-.088.081-.131l.015-.023a.654.654,0,0,0,.053-.06c.057-.066.119-.128.18-.192A2.257,2.257,0,0,1,11.865,3.868Z"/></svg>