<svg id="Calque_1" data-name="Calque 1" xmlns="http://www.w3.org/2000/svg" viewBox="0 0 14 14"><defs><style>.cls-1{fill:#131226;}</style></defs><path class="cls-1" d="M13.854,12.518a7.821,7.821,0,0,0-.942-1.2,15.927,15.927,0,0,0-1.765-1.8,1.463,1.463,0,0,0-.427-.239,6.878,6.878,0,0,0,.535-2.416c.048-2.693-2.5-4.579-4.982-4.851A4.666,4.666,0,0,0,3.118,3.1,4.2,4.2,0,0,0,2.086,5.528,5.391,5.391,0,0,0,2,6.975a5.4,5.4,0,0,0,1.186,3.179c1.009,1.115,2.278,1.257,3.725,1.3,1.112.068,2.115.1,2.914-.739a1.3,1.3,0,0,0,.157.171,9.538,9.538,0,0,1,2.358,2.557C12.918,14.761,14.482,13.815,13.854,12.518ZM6.907,9.867c-1.069-.026-2.075-.051-2.729-1.044a4.087,4.087,0,0,1-.579-1.9c.063-.956-.025-2.1.868-2.7a3.616,3.616,0,0,1,1.862-.541,3.552,3.552,0,0,1,3.283,3.2,5.128,5.128,0,0,1-.654,2.339C8.367,10.106,7.788,9.892,6.907,9.867Z"/></svg>