<svg id="Calque_1" data-name="Calque 1" xmlns="http://www.w3.org/2000/svg" viewBox="0 0 16 16"><defs><style>.cls-1{fill:#131226;}</style></defs><path class="cls-1" d="M13.621,5.266c-1.36-3.739-5.74-3.808-8.966-3.04-.707.168-.419,1.254.278,1.117C2.53,4.834.92,7.581,2.225,10.471a6.253,6.253,0,0,0,9.151,2.51A7,7,0,0,0,13.621,5.266Zm-2.3,5.8c-1.6,2.009-4.219,1.919-6.249.646a3.988,3.988,0,0,1-1.137-5.5A5.369,5.369,0,0,1,9.118,3.633a.447.447,0,0,0,.418-.181,3.948,3.948,0,0,1,2.6,2A5.413,5.413,0,0,1,11.319,11.064Z"/><path class="cls-1" d="M8.693,7.727c.343-1.2-1.235-1.438-1.534-.215a6.841,6.841,0,0,0-.031,1.329,13.882,13.882,0,0,0,.188,2.192c.269,1.252,1.812.978,1.543-.274A8.327,8.327,0,0,1,8.693,7.727Z"/><path class="cls-1" d="M8.143,6.106a.714.714,0,1,0-.7-.714A.71.71,0,0,0,8.143,6.106Z"/></svg>