<svg id="Calque_1" data-name="Calque 1" xmlns="http://www.w3.org/2000/svg" viewBox="0 0 16 16"><defs><style>.cls-1{fill:#131226;}</style></defs><path class="cls-1" d="M12.637,7.241A10.542,10.542,0,0,0,11.554,4.1,3.982,3.982,0,0,0,8.766,2a.885.885,0,0,0-.378-.024.4.4,0,0,0-.318.291.521.521,0,0,0,.07.333,5.8,5.8,0,0,0,.406.681c.1.143.193.291.282.446a2.74,2.74,0,0,1-.291,2.924c-.455.376-1.005.065-1.387-.263A1.432,1.432,0,0,1,6.825,5.7c-.018-.064-.036-.126-.055-.182l-.034-.108a2.45,2.45,0,0,0-.444-.939c-.3-.273-.62,0-.831.175l-.044.038a5.737,5.737,0,0,0-1.03,1.268c-.055.083-.11.166-.164.246a6.566,6.566,0,0,0-.754,1.354,5.236,5.236,0,0,0,.719,4.575,4.084,4.084,0,0,0,3.079,2.03c.115.006.228.008.34.008a4.931,4.931,0,0,0,3.87-1.668A6.141,6.141,0,0,0,12.637,7.241Zm-2.014.849c-.015.176-.139.957-.187,1.263-.019.122-.034.212-.039.245a2.669,2.669,0,0,0-.09.38,1.484,1.484,0,0,1-.193.56,3.661,3.661,0,0,1-.655.848,1.812,1.812,0,0,1-1.242.561,1.007,1.007,0,0,1-.719-.422.906.906,0,0,1-.2-.782,2.3,2.3,0,0,1,1.226-1.3c.155-.079.32-.15.479-.218a4.936,4.936,0,0,0,.82-.415,3.33,3.33,0,0,0,.491-.371,1.235,1.235,0,0,0,.209-.23l.015-.032a.688.688,0,0,1,.043-.115A.153.153,0,0,1,10.623,8.09Z"/></svg>