<svg id="Calque_1" data-name="Calque 1" xmlns="http://www.w3.org/2000/svg" viewBox="0 0 16 16"><defs><style>.cls-1{fill:#131226;}</style></defs><path class="cls-1" d="M13,7.149A24.806,24.806,0,0,1,8.433,3.558C7.651,2.824,6.47,4,7.255,4.737a30.365,30.365,0,0,0,3.988,3.278A14.369,14.369,0,0,0,7.79,12.076c-.463.963.974,1.809,1.44.841.9-1.877,2.523-3.007,3.943-4.46A.841.841,0,0,0,13,7.149Z"/><path class="cls-1" d="M8.6,7.683A24.806,24.806,0,0,1,4.025,4.092c-.782-.734-1.962.441-1.178,1.179A30.365,30.365,0,0,0,6.835,8.549,14.369,14.369,0,0,0,3.382,12.61c-.462.964.974,1.809,1.44.841.9-1.877,2.523-3.007,3.943-4.46A.841.841,0,0,0,8.6,7.683Z"/></svg>