<svg id="Layer_1" data-name="Layer 1" xmlns="http://www.w3.org/2000/svg" xmlns:xlink="http://www.w3.org/1999/xlink" viewBox="0 0 90 66.78"><defs><style>.Graphic-Style-2{fill:url(#linear-gradient);}</style><linearGradient id="linear-gradient" x1="1.43" y1="29.43" x2="88.36" y2="38.56" gradientUnits="userSpaceOnUse"><stop offset="0" stop-color="#06a0ce"/><stop offset="1" stop-color="#51cbbf"/></linearGradient></defs><title>gradle-elephant-icon-gradient-secondary</title><path class="Graphic-Style-2" d="M62.55,66.78H56.64A2.68,2.68,0,0,1,54,64.45a7.65,7.65,0,0,0-15.18,0,2.68,2.68,0,0,1-2.65,2.33h-6a2.67,2.67,0,0,1-2.64-2.33,7.65,7.65,0,0,0-15.18,0A2.68,2.68,0,0,1,9.7,66.78H3.56A2.67,2.67,0,0,1,.93,64.61a45.86,45.86,0,0,1,1.55-24.3A34.16,34.16,0,0,1,14.75,24L16,23.12a5.88,5.88,0,0,1,2.92-7.5C39,6.08,52.52,13,62.4,18c7.38,3.76,11.4,5.55,15.1,1.85a6.49,6.49,0,0,0,1.93-4.65,6.59,6.59,0,0,0-6.58-6.58,6.5,6.5,0,0,0-3.94,1.31,2.68,2.68,0,0,1-3.49-.25L63.67,7.94A2.75,2.75,0,0,1,62.89,6a2.65,2.65,0,0,1,.85-1.9,15.18,15.18,0,0,1,21.12.35A18.3,18.3,0,0,1,90,18.56c-.58,8.14-6.12,16.19-16.46,23.93-2.41,1.8-8,7.51-8.26,21.67A2.69,2.69,0,0,1,62.55,66.78Zm-59-2.68h0Zm53.09,0h5.84c.09-5.13,1.18-17.65,9.34-23.75,9.55-7.15,14.87-14.74,15.39-22a15.55,15.55,0,0,0-4.31-12,12.47,12.47,0,0,0-17.32-.32l1.69,1.69a9.21,9.21,0,0,1,5.54-1.83,9.29,9.29,0,0,1,6.57,15.86C74.16,27,68.14,24,61.17,20.41,56.3,17.94,50.79,15.13,44.08,14c-7.77-1.26-15.62.06-24,4a3.16,3.16,0,0,0-1.39,4.44l.22.36v0l5.49,9.49a3.16,3.16,0,0,0,4.27,1.17l.15-.08.17-.08,2.22-1.24A57.62,57.62,0,0,0,39,26.37a1.35,1.35,0,1,1,1.82,2,59.38,59.38,0,0,1-8.18,6.11l0,0-2.53,1.42-.2.09a5.89,5.89,0,0,1-7.78-2.28l-4.76-8.22-1,.7A31.52,31.52,0,0,0,5,41.25,43.21,43.21,0,0,0,3.59,64.07H9.66a10.37,10.37,0,0,1,20.55,0h5.92a10.37,10.37,0,0,1,20.55,0ZM61.25,30.5,57,28.37h0a2.66,2.66,0,1,1,4.24,2.13Z"/></svg>