<svg width="20" height="24" viewBox="3 0 12 14" fill="none" xmlns="http://www.w3.org/2000/svg">
<path d="M0 0h16v16H0z"/>
<path fill-rule="evenodd" clip-rule="evenodd" d="M9.136 4.648c.065.023.087.023.13-.022.023-.023.045-.023.066-.046.022-.022.044-.022.066-.045.022-.023.043-.023.065-.046.022-.022.044-.022.066-.045a.926.926 0 01.152-.113c.022-.023.066-.068.088-.068.021 0 .043-.046.065-.046.022 0 .044-.045.066-.045.021 0 .043-.045.065-.045l.044-.023.021-.045h.044l.022-.046h.043l.022-.045c.044-.023.066-.023.11-.046.021 0 0-.022.021-.022l.044-.023.022-.045h.043l.022-.046h.044l.022-.045h.043l.022-.045h.044l.021-.046c.044-.022.088-.022.153-.068l.022-.023c.022-.022.066 0 .087-.022l.022-.046h.044c.022-.022.022-.068.043-.068.11-.068.219-.136.306-.158.218-.023.349.113.523.25.022.044-.022.09 0 .135a.476.476 0 010 .25v.045c-.022.023-.043.068-.065.114 0 .022 0 .045-.022.068 0 .022-.043.022-.043.022-.044.068-.088.114-.131.182-.044.068-.066.136-.11.181-.065.068-.174.09-.261.159-.022.023-.044.068-.088.09a.936.936 0 01-.152.091c-.022 0 0 .023-.022.023s-.044.045-.066.045c-.021 0-.065.046-.109.069-.021.022-.021.045-.043.045h-.044l-.022.045c-.021.023-.043 0-.065.023-.022.023-.022.045-.044.068-.022.023-.043 0-.065.023-.044.022-.066.09-.11.113-.021.023-.021.023-.043.023-.022 0-.044.045-.065.068h-.044l-.022.045h-.043l-.022.046h-.044l-.022.045c-.022.023-.043 0-.065.023-.044.022-.066.09-.11.113l-.196.204c-.021.046-.087.046-.087.114.022.09.044.113.11.158.021 0 .043.023.043.023l.087.09c.022.023.044 0 .066.023.021 0 .021.046.021.046.022.023.044 0 .066.023.022 0 .022.045.043.045.022.023.066.045.088.068.021.023.043 0 .065.023.022.022.044.09.087.136.088.022.175.045.24.113l.088.09c.021.024.021.046.043.046h.044c.022.023.065.046.109.091.022.023.022.045.044.045h.043c.022.023.066.068.11.091.021.023.021.045.043.045h.044a.48.48 0 00.109.091c.022 0 .043 0 .065.023.022.023.066.09.11.136.021 0 .043.045.043.045h.043v.023c.022.023.044 0 .066.023.022 0 .022.045.044.045.021.023.043 0 .065.023.044.022.066.09.11.136.02.023.064.045.086.068.022.023 0 .068.022.09l.044.023v.046l.043.022c.022.046 0 .068.044.091.022.09-.022.159-.022.227.022 0 .022.023.022.045 0 .023.044.068.022.136-.022.091-.175.227-.262.273a.406.406 0 01-.109.158c-.044.023-.11.023-.153.046.022 0-.13.068-.152.022-.022-.022-.022-.022-.066-.022h-.043c-.022-.023-.197-.023-.262-.046 0 0 0-.022-.022-.022s-.044-.046-.087-.046l-.066-.022-.065-.068c-.022 0-.022-.023-.044-.023l-.065-.023c.087.068.087.023.043 0l-.043-.022-.066-.069h-.043l-.022-.045h-.044c-.022-.023-.022-.068-.065-.068l-.044-.023-.065-.068c-.022 0-.022-.022-.044-.022-.022-.023-.066-.068-.087-.068-.022 0-.022-.046-.044-.046h-.044l-.065-.068c-.022 0-.022-.022-.044-.022L9.9 8.119c-.088-.046-.175-.023-.24-.068-.022 0 0-.023-.022-.023-.044 0-.044-.068-.088-.09h-.043c-.022-.023-.022-.046-.066-.069-.021-.022-.043-.022-.065-.045-.022-.023-.044-.023-.065-.045-.022-.023-.11-.091-.175-.091-.044.023-.044.045-.065.09-.022.046-.022.091-.022.137-.022.136 0 .272-.022.453 0 .068-.022.16-.022.273 0 .068.022.068 0 .136 0 .022.044.204 0 .226-.065.069-.065.227-.065.318 0 .09 0 .182-.022.272 0 .091-.044.182-.044.25-.022.227 0 .43 0 .658v.045c-.022.136 0 .408 0 .612 0 .069-.022.114-.022.16 0 .067.022.135.022.203.022.204.022.454.022.68 0 .182 0 .386-.022.545-.022.068 0 .182-.022.295a.441.441 0 01-.043.182 2.493 2.493 0 00-.066.612c-.022.023-.043.023-.065.045l-.022.046c-.022.022-.065 0-.087.022-.044.023-.11.069-.218.046-.044 0-.153-.09-.24-.114h-.044l-.065-.022c-.022-.046-.066-.046-.11-.091a76.16 76.16 0 00-.087-.09c-.087-.069-.13-.114-.153-.182-.043-.09-.021-.182-.021-.295-.022-.25-.022-.476-.022-.771 0 0 .022 0 .022-.023 0 0-.022 0-.022-.023v-.068c0-.295 0-.59.022-.907 0-.045.021-.09.021-.136.022-.431-.043-.953 0-1.407.022-.204.022-.385.022-.59 0-.43-.043-.861 0-1.224.022-.204.11-.386 0-.567-.087-.046-.152.068-.218.068-.022 0-.043.045-.065.045-.022 0-.022.023-.044.023s-.022.045-.044.045H7.26v.023c-.022 0-.044 0-.066.023l-.021.045c-.022.023-.044 0-.066.023l-.022.045c-.022.023-.043 0-.065.023-.022.022-.044.09-.087.113-.022.023-.044 0-.066.023l-.022.045c-.022.023-.043 0-.065.023-.022.022-.066.09-.11.113-.021.023-.065.046-.086.068-.022.023-.022.046-.044.046h-.044c-.109.113-.109.158-.174.158-.044 0-.044.068-.088.068-.021 0-.021.046-.043.046h-.044v.022c-.065.046-.13.023-.196.046 0 0 0 .023-.022.023-.044 0-.175.09-.262.068 0 0 0-.023-.022-.023-.043 0-.065 0-.109-.023-.021 0-.065 0-.087-.022l-.087-.091c-.022-.023-.066-.068-.087-.114-.044 0-.044 0-.044-.045 0-.023-.022-.023-.022-.023-.022-.09-.022-.34.044-.453 0-.023.022 0 .022-.023s.065-.09.087-.113h.043c.022-.023.022-.046.066-.068a.762.762 0 00.174-.114c.066-.068.088-.136.175-.181.022 0 .022-.023.044-.023.021-.023.043-.023.065-.045.022-.023.044-.023.065-.046.022-.022.066-.022.066-.022.022-.023.022-.069.065-.069.022 0 .044-.045.066-.045.022 0 .043-.045.065-.045.022 0 .066-.068.11-.091.043-.045.108-.068.174-.113a4.57 4.57 0 00.305-.227c.022 0 0-.023.022-.023s.044-.045.087-.045c.022 0 .044-.046.066-.046a.163.163 0 00.087-.045c.131-.09.35-.159.24-.363 0-.023-.022 0-.022-.023 0-.045-.13-.136-.174-.181l-.131-.136c-.066-.046-.131-.046-.175-.09-.022-.069-.109-.137-.152-.205-.022-.023-.044-.068-.066-.113-.022-.023-.087-.091-.13-.114a.925.925 0 00-.153-.113c-.022 0-.044 0-.066-.023l-.022-.045c-.022-.023-.043-.023-.087-.046-.022-.022-.044-.022-.065-.045l-.044-.045c-.044-.023-.087-.069-.131-.091l-.022-.046c-.022-.022-.043-.022-.087-.045l-.022-.045c-.022-.023-.043-.023-.087-.046l-.022-.045c-.022-.023-.065-.023-.087-.045l-.087-.091c-.022-.023 0-.046-.022-.068 0 0-.044 0-.044-.023-.022-.045-.044-.068-.065-.113-.022-.023-.066-.046-.088-.068-.021-.023 0-.046-.021-.068-.022-.023-.11-.068-.131-.114-.022-.022 0-.045-.022-.068l-.044-.023c-.022-.022-.022-.045-.022-.068l-.021-.09c-.066-.046-.022-.477 0-.567 0-.023.021 0 .021-.023s.044-.045.066-.068c.022-.023.043-.046.087-.068.022 0 .022-.023.044-.023s.087-.068.13-.068c.022 0 .044-.045.066-.045.022 0 .066-.046.131-.046.218-.022.37.136.61.091l.066.068c.11.09.218.227.35.34.065.046.108.114.174.16.022.022.043.022.065.045 0 0 .088.09.11.09l.043.023.022.045h.043c.022.023.022.046.044.068h.044c.022.023.022.046.065.068.044.023.11.068.153.114.022.023.044.023.065.045l.022.046H7.5c.022.022.022.045.043.068h.044c.022.022.087.113.153.113.087-.113.065-.227.087-.386.022-.385-.022-.93.044-1.293 0-.045.021-.113.043-.158 0-.023 0-.068.022-.091 0-.023.044-.023.044-.045a.678.678 0 01.174-.182c.022-.023.044-.068.066-.068.022-.023.087-.023.13-.023.022 0 .044-.045.044-.045h.066c.065-.023.109-.023.24 0 .065 0 .109 0 .152.023 0 0 0 .022.022.022s.197.16.197.205c0 0 .021.022.021.045.022.045.022.068.044.113 0 .023.022.046.022.068.022.068.065.386.043.545-.021.113-.021.385-.021.59-.066.294-.066.68-.044 1.02z" />
</svg>