<svg id="Calque_1" data-name="Calque 1" xmlns="http://www.w3.org/2000/svg" viewBox="0 0 16 16"><defs><style>.cls-1{fill:#131226;}</style></defs><path class="cls-1" d="M11.308,7.134A3.732,3.732,0,0,0,9.723,4.778a2.077,2.077,0,0,0-2.386-.169A3.033,3.033,0,0,0,4.458,6.523,2.605,2.605,0,0,0,4.5,8.709c.2.416.937.938,1.228,1.47a.46.46,0,0,0-.251.307,10.751,10.751,0,0,0-.612,2.561.5.5,0,0,0,.246.43c.787.44,1.638,1.091,2.45.355a4.783,4.783,0,0,0,1.1-2.6.513.513,0,0,0-.015-.275A3.314,3.314,0,0,0,11.308,7.134ZM7.2,12.627c-.135.272-.314.666-.658.509a7.172,7.172,0,0,1-.665-.364,6.1,6.1,0,0,1,.272-1.123l.811.177c.156.033.332.087.506.109A4.333,4.333,0,0,1,7.2,12.627Zm.81-2.863a.435.435,0,0,0-.421.32l-.114.459,0,.019H7.452l-.515-.112a1.775,1.775,0,0,0-.229-.973c-.278-.538-.894-.837-1.11-1.411A1.83,1.83,0,0,1,7.03,5.894a1.552,1.552,0,0,1,1.311-.23c0-.014.008-.029.011-.043a2.239,2.239,0,0,1,.989.56,2.353,2.353,0,0,1,.712,1.429A1.989,1.989,0,0,1,8.008,9.764Z"/><path class="cls-1" d="M12.964,6.5c.537-.5,1.331.3.811.793a1.965,1.965,0,0,1-1.055.544c-.691.213-1-.87-.3-1.1.214-.077.419-.17.623-.264.128-.052-.353.156-.208.087A.872.872,0,0,1,13,6.465Z"/><path class="cls-1" d="M13.723,11.132c.666.3.085,1.272-.563.982-.427-.188-.473-.32-.832-.465-.665-.273-.375-1.365.3-1.1C13.164,10.762,13.2,10.9,13.723,11.132Z"/><path class="cls-1" d="M5.854,2.516c-.26-.682.839-.959,1.092-.3.169.435.109.561.259.917.278.664-.7,1.231-.989.567C5.987,3.173,6.059,3.047,5.854,2.516Z"/><path class="cls-1" d="M12.211,3.241c-.247.461-.24.319-.5.788a.574.574,0,0,1-.99-.58c.264-.469.257-.327.505-.788C11.58,2.013,12.561,2.584,12.211,3.241Z"/><path class="cls-1" d="M3.177,5.739A3.368,3.368,0,0,1,2.2,5.091c-.563-.436,0-1.417.58-.982a3.227,3.227,0,0,0,.974.648C4.423,5.047,3.842,6.02,3.177,5.739Z"/></svg>